SplineFontDB: 3.0
FontName: Pacifico-Light
FullName: Pacifico Light
FamilyName: Pacifico
Weight: Light
Copyright: Copyright (c) 2011-14 by vernon adams. All rights reserved.
Version: 2.0
ItalicAngle: 0
UnderlinePosition: 0
UnderlineWidth: 0
Ascent: 800
Descent: 200
UFOAscent: 1407
UFODescent: -459
LayerCount: 2
Layer: 0 0 "Back"  1
Layer: 1 0 "Fore"  0
FSType: 0
OS2Version: 0
OS2_WeightWidthSlopeOnly: 0
OS2_UseTypoMetrics: 1
CreationTime: 1398192578
ModificationTime: 1398193238
PfmFamily: 17
TTFWeight: 300
TTFWidth: 5
LineGap: 0
VLineGap: 0
OS2TypoAscent: 0
OS2TypoAOffset: 1
OS2TypoDescent: 0
OS2TypoDOffset: 1
OS2TypoLinegap: 0
OS2WinAscent: 0
OS2WinAOffset: 1
OS2WinDescent: 0
OS2WinDOffset: 1
HheadAscent: 0
HheadAOffset: 1
HheadDescent: 0
HheadDOffset: 1
OS2Vendor: 'NeWT'
Lookup: 1 0 0 "'locl' Localized Forms in Latin lookup 0"  {"'locl' Localized Forms in Latin lookup 0 subtable"  } ['locl' ('latn' <'ROM ' 'dflt' > ) ]
Lookup: 1 0 0 "'locl' Localized Forms in Latin lookup 1"  {"'locl' Localized Forms in Latin lookup 1 subtable"  } ['locl' ('latn' <'MOL ' 'dflt' > ) ]
Lookup: 6 0 0 "'locl' Localized Forms in Latin lookup 2"  {"'locl' Localized Forms in Latin lookup 2 contextual 0"  "'locl' Localized Forms in Latin lookup 2 contextual 1"  } ['locl' ('latn' <'CAT ' 'dflt' > ) ]
Lookup: 4 0 0 "Ligature Substitution lookup 3"  {"Ligature Substitution lookup 3 subtable"  } []
Lookup: 4 0 0 "Ligature Substitution lookup 4"  {"Ligature Substitution lookup 4 subtable"  } []
Lookup: 1 0 0 "'sups' Superscript lookup 5"  {"'sups' Superscript lookup 5 subtable" ("superior" ) } ['sups' ('latn' <'dflt' 'ROM ' 'MOL ' 'CAT ' > 'grek' <'dflt' > 'DFLT' <'dflt' > ) ]
Lookup: 4 0 0 "'frac' Diagonal Fractions lookup 6"  {"'frac' Diagonal Fractions lookup 6 subtable"  } ['frac' ('latn' <'dflt' 'ROM ' 'MOL ' 'CAT ' > 'grek' <'dflt' > 'DFLT' <'dflt' > ) ]

StartChar: A
Encoding: 65 65 0
Width: 647
VWidth: 0
Flags: HW
PickledData: "(dp1
S'com.typemytype.robofont.layerData'
p2
(dp3
s."
AnchorPoint: "top" 542 658 basechar 0
AnchorPoint: "ogonek" 534 -30 basechar 0
LayerCount: 2
Fore
SplineSet
277 -46 m 0
 364 -46 431 -8 472 73 c 1
 472 73 470 39 470 31 c 0
 470 -27 508 -45 549 -45 c 0
 594 -45 641 -6 662 21 c 0
 664 23 665 26 665 30 c 0
 665 41 655 55 647 55 c 0
 645 55 643 55 641 53 c 0
 620 30 595 0 562 0 c 0
 534 0 525 13 525 38 c 0
 525 65 536 107 549 165 c 2
 618 480 l 2
 619 482 619 483 619 484 c 0
 619 499 600 509 585 509 c 0
 575 509 567 504 565 496 c 2
 501 214 l 2
 477 104 401 3 290 3 c 0
 173 3 131 98 131 198 c 0
 131 452 337 612 522 612 c 0
 628 612 703 542 708 538 c 0
 715 532 723 530 729 530 c 0
 740 530 749 538 749 549 c 0
 749 555 746 562 739 569 c 0
 674 637 581 663 519 663 c 0
 282 663 65 462 65 197 c 0
 65 86 114 -46 277 -46 c 0
EndSplineSet
Position2: "'cpsp' Capital Spacing lookup 0 subtable" dx=5 dy=0 dh=10 dv=0
Substitution2: "Single Substitution lookup 8 subtable" ordfeminine
EndChar

StartChar: AE
Encoding: 198 198 1
Width: 1162
VWidth: 0
Flags: HW
PickledData: "(dp1
S'com.typemytype.robofont.layerData'
p2
(dp3
s."
AnchorPoint: "bot" 905 -83 basechar 0
AnchorPoint: "top" 658 658 basechar 0
AnchorPoint: "ogonek" 925 -87 basechar 0
LayerCount: 2
Fore
SplineSet
131 198 m 0
 131 432 309 617 515 617 c 0
 548 617 582 612 616 602 c 1
 501 214 l 2
 471 111 415 3 290 3 c 0
 173 3 131 98 131 198 c 0
1007 525 m 0
 1007 616 901 662 790 662 c 0
 754 662 687 647 653 636 c 1
 607 655 558 665 507 665 c 0
 294 665 65 498 65 197 c 0
 65 86 114 -46 277 -46 c 0
 369 -46 428 -10 469 45 c 1
 469 40 468 35 468 30 c 0
 468 -67 555 -116 660 -116 c 0
 789 -116 941 -52 1012 57 c 0
 1016 63 1019 70 1019 76 c 0
 1019 90 1009 98 999 98 c 0
 993 98 984 95 978 84 c 0
 919 -3 776 -71 668 -71 c 0
 595 -71 514 -38 514 43 c 0
 514 57 517 73 522 90 c 2
 572 250 l 1
 612 249 689 245 750 245 c 0
 777 245 790 254 790 271 c 0
 790 283 783 296 771 296 c 0
 744 297 616 296 585 300 c 1
 641 506 l 2
 660 578 695 616 797 616 c 0
 854 616 911 598 947 562 c 1
 928 546 915 528 915 505 c 0
 915 478 931 462 958 462 c 0
 978 462 1007 481 1007 525 c 0
EndSplineSet
Position2: "'cpsp' Capital Spacing lookup 0 subtable" dx=5 dy=0 dh=10 dv=0
EndChar

StartChar: B
Encoding: 66 66 18
Width: 556
VWidth: 0
Flags: HW
PickledData: "(dp1
S'com.typemytype.robofont.layerData'
p2
(dp3
s."
AnchorPoint: "top" 342 658 basechar 0
LayerCount: 2
Fore
SplineSet
178 -60 m 0
 339 -60 528 55 528 174 c 0
 528 237 482 285 387 310 c 1
 549 342 595 414 595 485 c 0
 595 583 491 676 311 676 c 0
 165 676 82 623 23 565 c 0
 19 561 17 556 17 551 c 0
 17 539 27 526 42 526 c 0
 50 526 59 529 69 538 c 0
 128 589 195 627 314 627 c 0
 454 627 529 561 536 492 c 0
 536 489 536 486 536 483 c 0
 536 412 467 341 314 341 c 0
 312 341 310 341 308 341 c 2
 278 341 l 2
 277 341 276 341 275 341 c 0
 257 341 250 331 250 321 c 0
 250 266 463 304 463 169 c 0
 463 79 322 -19 176 -19 c 0
 137 -19 137 0 137 21 c 0
 137 157 162 413 221 504 c 1
 213 514 205 518 195 518 c 0
 104 518 81 120 81 -12 c 0
 81 -41 121 -60 178 -60 c 0
EndSplineSet
Position2: "'cpsp' Capital Spacing lookup 0 subtable" dx=5 dy=0 dh=10 dv=0
EndChar

StartChar: C
Encoding: 67 67 20
Width: 576
VWidth: 0
Flags: HW
PickledData: "(dp1
S'com.typemytype.robofont.layerData'
p2
(dp3
s."
AnchorPoint: "top" 452 658 basechar 0
AnchorPoint: "bot" 278 -70 basechar 0
LayerCount: 2
Fore
SplineSet
380 329 m 0
 503 329 587 439 587 543 c 0
 587 623 536 669 455 669 c 0
 206 669 51 403 49 182 c 0
 49 32 118 -93 278 -93 c 0
 419 -93 539 -12 591 92 c 0
 591 93 592 94 592 95 c 0
 592 103 581 113 574 113 c 0
 572 113 571 112 570 111 c 0
 501 27 426 -44 299 -44 c 0
 171 -44 115 65 115 196 c 0
 116 390 245 618 449 618 c 0
 506 618 532 593 532 537 c 0
 532 458 477 378 394 374 c 0
 368 372 346 373 346 352 c 0
 346 335 357 329 380 329 c 0
EndSplineSet
Position2: "'cpsp' Capital Spacing lookup 0 subtable" dx=5 dy=0 dh=10 dv=0
EndChar

StartChar: D
Encoding: 68 68 26
Width: 558
VWidth: 0
Flags: HW
PickledData: "(dp1
S'com.typemytype.robofont.layerData'
p2
(dp3
s."
AnchorPoint: "top" 322 658 basechar 0
AnchorPoint: "bot" 177 -36 basechar 0
LayerCount: 2
Fore
SplineSet
162 -41 m 0
 417 -41 556 164 556 353 c 0
 556 514 454 663 238 663 c 0
 148 663 75 634 23 577 c 0
 6 559 -13 529 -13 500 c 0
 -13 491 -7 481 0 481 c 0
 21 481 19 505 62 547 c 0
 112 598 178 612 225 612 c 0
 410 612 497 484 497 346 c 0
 497 180 377 3 156 3 c 0
 152 3 147 3 144 3 c 0
 115 3 110 3 110 16 c 0
 110 137 169 458 226 537 c 1
 219 547 211 551 202 551 c 0
 192 551 180 547 167 538 c 1
 96 439 60 154 51 -14 c 0
 50 -23 50 -23 55 -25 c 0
 76 -33 118 -41 162 -41 c 0
EndSplineSet
Position2: "'cpsp' Capital Spacing lookup 0 subtable" dx=5 dy=0 dh=10 dv=0
EndChar

StartChar: Delta
Encoding: 916 916 32
Width: 687
VWidth: 0
Flags: HW
LayerCount: 2
Fore
SplineSet
185 55 m 1
 202 76 352 327 419 439 c 1
 580 55 l 1
 185 55 l 1
141 -1 m 2
 614 -1 l 2
 637 -1 646 11 646 34 c 1
 459 478 l 2
 452 494 441 504 429 504 c 0
 419 504 409 498 400 483 c 0
 331 368 259 251 202 161 c 0
 161 94 128 45 119 25 c 1
 119 9 126 -1 141 -1 c 2
EndSplineSet
Position2: "'cpsp' Capital Spacing lookup 0 subtable" dx=5 dy=0 dh=10 dv=0
EndChar

StartChar: E
Encoding: 69 69 35
Width: 515
VWidth: 0
Flags: HW
PickledData: "(dp1
S'com.typemytype.robofont.layerData'
p2
(dp3
s."
AnchorPoint: "top" 422 658 basechar 0
AnchorPoint: "bot" 258 -83 basechar 0
AnchorPoint: "ogonek" 278 -87 basechar 0
LayerCount: 2
Fore
SplineSet
279 299 m 1
 175 286 32 196 32 61 c 0
 32 -55 189 -56 243 -96 c 1
 372 -96 524 -32 595 77 c 0
 599 83 602 90 602 96 c 0
 602 110 592 118 582 118 c 0
 576 118 567 115 561 104 c 0
 502 17 359 -51 251 -51 c 0
 168 -51 91 -25 91 58 c 0
 91 170 208 265 333 265 c 0
 360 265 373 274 373 291 c 0
 373 303 366 313 354 316 c 0
 242 341 178 408 178 492 c 0
 178 586 263 636 380 636 c 0
 437 636 494 618 530 582 c 1
 511 566 498 548 498 525 c 0
 498 498 514 482 541 482 c 0
 561 482 590 501 590 545 c 0
 590 636 484 682 373 682 c 0
 250 682 121 623 121 489 c 0
 121 417 169 336 279 299 c 1
EndSplineSet
Position2: "'cpsp' Capital Spacing lookup 0 subtable" dx=5 dy=0 dh=10 dv=0
EndChar

StartChar: Eng
Encoding: 330 330 46
Width: 538
VWidth: 0
Flags: HW
LayerCount: 2
Fore
SplineSet
147 -266 m 0
 127 -266 120 -253 120 -238 c 0
 120 -181 235 -103 310 -51 c 1
 280 -133 232 -266 147 -266 c 0
76 -250 m 0
 76 -288 96 -310 143 -310 c 0
 256 -310 321 -193 374 -27 c 1
 451 18 486 46 537 66 c 0
 550 74 555 83 555 91 c 0
 555 101 546 109 534 109 c 0
 533 109 531 109 530 109 c 0
 478 88 445 55 386 19 c 1
 453 196 520 399 520 502 c 0
 520 550 484 592 422 592 c 0
 309 592 219 432 149 265 c 1
 161 329 174 404 174 461 c 0
 174 531 156 583 96 583 c 0
 51 583 15 547 -9 507 c 0
 -13 500 -15 493 -15 487 c 0
 -15 476 -9 470 0 470 c 0
 6 470 14 473 20 481 c 0
 52 522 71 540 92 541 c 0
 122 541 125 499 125 464 c 0
 125 349 90 157 42 23 c 0
 41 20 40 17 40 13 c 0
 40 0 48 -16 68 -16 c 0
 82 -16 95 -7 99 9 c 0
 166 247 338 540 419 540 c 0
 457 540 458 509 458 482 c 0
 458 401 391 179 325 -2 c 1
 238 -58 86 -152 77 -235 c 0
 76 -240 76 -245 76 -250 c 0
EndSplineSet
Position2: "'cpsp' Capital Spacing lookup 0 subtable" dx=5 dy=0 dh=10 dv=0
EndChar

StartChar: Euro
Encoding: 8364 8364 50
Width: 634
VWidth: 0
Flags: HW
LayerCount: 2
Fore
SplineSet
72 226 m 2
 61 226 51 222 51 206 c 0
 51 193 60 189 69 189 c 2
 106 189 l 1
 106 165 l 2
 106 31 168 -58 293 -58 c 0
 396 -58 474 -15 535 38 c 0
 546 48 550 57 550 64 c 0
 550 77 540 85 530 85 c 0
 524 85 519 83 513 79 c 0
 465 39 397 -8 304 -8 c 0
 200 -8 167 55 167 161 c 0
 167 170 167 186 167 189 c 2
 317 189 l 2
 336 189 342 195 342 215 c 0
 342 224 339 226 329 226 c 2
 174 226 l 1
 178 250 184 272 193 299 c 1
 339 299 l 2
 358 299 364 305 364 324 c 0
 364 333 361 335 351 335 c 2
 207 335 l 1
 264 458 344 564 443 564 c 0
 495 564 538 543 538 489 c 0
 538 447 517 421 517 393 c 0
 517 386 528 379 537 379 c 0
 542 379 546 381 549 385 c 0
 564 407 582 450 582 494 c 0
 582 576 532 611 447 611 c 0
 328 611 213 496 145 335 c 1
 96 335 l 2
 82 335 74 329 74 314 c 0
 74 302 83 299 95 299 c 2
 132 299 l 1
 124 276 117 255 113 226 c 1
 72 226 l 2
EndSplineSet
EndChar

StartChar: F
Encoding: 70 70 51
Width: 440
VWidth: 0
Flags: HW
PickledData: "(dp1
S'com.typemytype.robofont.layerData'
p2
(dp3
s."
AnchorPoint: "top" 412 658 basechar 0
LayerCount: 2
Fore
SplineSet
128 -68 m 0
 251 -68 306 27 345 270 c 1
 394 270 427 271 450 277 c 0
 457 279 465 287 465 295 c 0
 465 302 464 310 447 313 c 0
 440 314 430 315 417 315 c 0
 400 315 378 314 353 314 c 1
 358 335 405 546 422 615 c 1
 440 618 466 619 496 619 c 0
 548 619 611 615 664 608 c 0
 666 608 669 608 671 608 c 0
 692 608 703 617 703 635 c 0
 703 667 516 669 461 669 c 0
 270 669 30 610 30 432 c 0
 30 388 44 337 78 278 c 0
 86 268 104 261 116 261 c 0
 124 261 129 264 129 271 c 0
 129 275 127 281 123 288 c 0
 90 343 76 388 76 426 c 0
 76 551 230 594 370 615 c 1
 350 529 329 426 303 313 c 1
 237 311 216 304 216 287 c 0
 216 276 224 272 250 270 c 0
 259 270 282 269 295 269 c 1
 281 209 253 -25 137 -25 c 0
 76 -25 95 6 62 6 c 0
 48 6 37 -8 37 -25 c 0
 37 -58 91 -68 128 -68 c 0
EndSplineSet
Position2: "'cpsp' Capital Spacing lookup 0 subtable" dx=5 dy=0 dh=10 dv=0
EndChar

StartChar: G
Encoding: 71 71 53
Width: 727
VWidth: 0
Flags: HW
PickledData: "(dp1
S'com.typemytype.robofont.layerData'
p2
(dp3
s."
AnchorPoint: "top" 552 658 basechar 0
AnchorPoint: "bot" 383 -321 basechar 0
LayerCount: 2
Fore
SplineSet
274 -282 m 0
 274 -318 369 -330 398 -330 c 0
 540 -330 626 -180 688 122 c 0
 691 140 694 154 694 165 c 0
 694 202 668 206 574 206 c 0
 547 206 527 197 527 178 c 0
 527 161 538 156 571 156 c 0
 628 156 641 151 641 139 c 0
 641 136 641 133 640 130 c 2
 634 103 l 1
 568 41 449 -10 345 -10 c 0
 238 -10 148 43 148 193 c 0
 148 472 369 619 508 619 c 0
 575 619 625 586 625 517 c 0
 625 480 638 474 657 474 c 0
 679 474 691 482 691 513 c 0
 691 623 614 676 514 676 c 0
 335 676 83 505 83 191 c 0
 83 0 200 -59 326 -59 c 0
 448 -59 579 -4 620 39 c 1
 561 -213 489 -282 410 -282 c 0
 379 -282 346 -272 313 -257 c 0
 310 -256 307 -255 304 -255 c 0
 289 -255 274 -268 274 -282 c 0
EndSplineSet
Position2: "'cpsp' Capital Spacing lookup 0 subtable" dx=5 dy=0 dh=10 dv=0
EndChar

StartChar: H
Encoding: 72 72 60
Width: 678
VWidth: 0
Flags: HW
PickledData: "(dp1
S'com.typemytype.robofont.layerData'
p2
(dp3
s."
AnchorPoint: "top" 422 658 basechar 0
LayerCount: 2
Fore
SplineSet
13 -84 m 0
 13 -101 23 -105 37 -105 c 0
 61 -105 68 -87 80 -51 c 2
 176.88856235 227.0005155 l 2
 177.259041566 227.0005155 177.629520783 227 178 227 c 0
 266.053147164 227 353.358507135 237.618578132 433.740553597 256.504126692 c 1
 400 113 l 2
 393 84 390 57 390 34 c 0
 390 -76 460 -121 540 -121 c 0
 596 -121 657 -99 701 -60 c 0
 703 -58 704 -57 704 -55 c 0
 704 -46 685 -33 675 -33 c 0
 673 -33 671 -34 670 -35 c 0
 650 -55 593 -81 541 -81 c 0
 489 -81 441 -55 441 31 c 0
 441 56 445 86 454 121 c 2
 491.231358985 271.764021571 l 1
 676.156060021 326.727649564 812 426.485961995 812 538 c 0
 812 611 756 653 690 653 c 0
 610 653 513 592 479 449 c 2
 445.288269606 305.618463136 l 1
 367.306855822 284.502611945 281.514510001 272 196 272 c 0
 194.858743953 272 193.716749546 272.006665295 192.574076971 272.006665295 c 2
 233 388 l 2
 248 435 255 475 255 509 c 0
 255 598 196 652 97 652 c 0
 -11 652 -125 574 -125 437 c 0
 -125 422 -114 416 -103 416 c 0
 -95 416 -87 419 -87 424 c 0
 -83 507 -12 606 92 606 c 0
 159 606 204 578 204 514 c 0
 204 478 192 427 166 357 c 2
 136.035796909 274.120289322 l 1
 113.761176467 275.733879404 91.6029630042 278.311689243 70 282 c 0
 69 282 68 282 67 282 c 0
 53 282 42 266 42 252 c 0
 42 243 47 235 58 234 c 0
 78.518768476 231.43515394 99.0375369521 229.659720118 119.556305428 228.538717142 c 1
 25 -33 l 2
 16 -58 13 -74 13 -84 c 0
504.044376692 323.648834013 m 1
 535 449 l 2
 563 559 634 604 689 604 c 0
 729 604 761 581 761 539 c 0
 761 457.552237995 652.87433576 374.962303481 504.044376692 323.648834013 c 1
EndSplineSet
Position2: "'cpsp' Capital Spacing lookup 0 subtable" dx=5 dy=0 dh=10 dv=0
EndChar

StartChar: Hbar
Encoding: 294 294 61
Width: 678
VWidth: 0
Flags: HW
LayerCount: 2
Fore
SplineSet
90 402 m 1
 604 426 l 2
 616 426 622 435 622 444 c 0
 622 453 616 461 606 461 c 2
 605 461 l 1
 89 434 l 2
 78 433 74 427 74 420 c 0
 74 411 80 402 89 402 c 2
 90 402 l 1
EndSplineSet
Refer: 60 72 N 1 0 0 1 0 0 2
Position2: "'cpsp' Capital Spacing lookup 0 subtable" dx=5 dy=0 dh=10 dv=0
EndChar

StartChar: I
Encoding: 73 73 63
Width: 335
VWidth: 0
Flags: HW
PickledData: "(dp1
S'com.typemytype.robofont.layerData'
p2
(dp3
s."
AnchorPoint: "top" 342 658 basechar 0
AnchorPoint: "ogonek" 166 0 basechar 0
LayerCount: 2
Fore
SplineSet
11 2 m 0
 11 -15 19 -24 33 -24 c 0
 71 -24 227 -8 318 -4 c 0
 341 -3 349 13 349 25 c 0
 349 39 338 40 323 40 c 0
 320 40 317 40 314 40 c 0
 288 40 250 37 206 37 c 0
 202 37 199 37 195 37 c 1
 222 168 320 500 352 613 c 1
 386 617 487 622 519 627 c 0
 527 628 530 636 530 645 c 0
 530 656 525 667 517 667 c 0
 481 668 448 668 418 668 c 0
 248 668 175 655 154 645 c 0
 149 642 146 634 146 625 c 0
 146 612 151 598 158 598 c 2
 159 598 l 1
 209 607 282 607 299 610 c 1
 236 444 177 213 138 35 c 1
 120 34 18 32 13 13 c 0
 12 9 11 6 11 2 c 0
EndSplineSet
Position2: "'cpsp' Capital Spacing lookup 0 subtable" dx=5 dy=0 dh=10 dv=0
EndChar

StartChar: IJ
Encoding: 306 306 64
Width: 816
VWidth: 0
Flags: HW
LayerCount: 2
Fore
SplineSet
11 2 m 0
 11 -14 18 -24 32 -24 c 0
 67 -24 210 -8 301 -4 c 0
 317 -3 324 7 324 18 c 0
 324 30 316 43 304 43 c 2
 196 39 l 1
 223 170 320 500 352 613 c 1
 362 614 378 615 396 617 c 0
 577 617 655 609 786 604 c 1
 751 427 629 -100 497 -100 c 0
 453 -100 438 -38 432 13 c 0
 430 26 419 33 408 33 c 0
 398 33 388 26 388 12 c 0
 388 -82 429 -148 504 -148 c 0
 509 -148 513 -147 518 -147 c 0
 664 -135 790 299 831 602 c 1
 865 600 898 600 936 600 c 0
 1005 600 1009 609 1009 626 c 0
 1009 640 999 651 988 651 c 0
 987 651 986 651 985 651 c 0
 942 651 891 652 836 654 c 1
 835 664 831 667 821 667 c 0
 808 667 802 667 798 656 c 1
 691 661 581 667 506 667 c 0
 474 668 445 668 418 668 c 0
 247 668 176 655 154 645 c 0
 149 642 146 634 146 625 c 0
 146 612 151 598 158 598 c 2
 159 598 l 1
 209 607 282 607 299 610 c 1
 236 444 177 213 138 35 c 1
 120 34 18 32 13 13 c 0
 12 9 11 6 11 2 c 0
EndSplineSet
Position2: "'cpsp' Capital Spacing lookup 0 subtable" dx=5 dy=0 dh=10 dv=0
EndChar

StartChar: J
Encoding: 74 74 77
Width: 480
VWidth: 0
Flags: HW
PickledData: "(dp1
S'com.typemytype.robofont.layerData'
p2
(dp3
s."
AnchorPoint: "top" 432 658 basechar 0
LayerCount: 2
Fore
SplineSet
601 576 m 0
 669 576 674 585 674 600 c 0
 674 615 663 627 652 627 c 0
 651 627 651 627 650 627 c 0
 601.231311114 627 550.714177036 628.998223076 500.434685802 631.582339973 c 1
 498.969097205 638.380724608 494.482004326 643.999999986 485 644 c 0
 472.263680929 644 466.421449356 642.783396324 462.308287747 633.635666179 c 1
 383.438102993 638.034315292 306.408544436 643 239 643 c 0
 30 643 -57 545 -57 436 c 0
 -57 424 -45 416 -34 416 c 0
 -27 416 -21 419 -19 426 c 0
 7 523 39 593 236 593 c 0
 284.166402717 593 355.804362641 585.176147597 450.601662021 580.143846331 c 1
 416.385637551 405.969132798 292.731064459 -100 162 -100 c 0
 110 -100 110 -21 103 30 c 0
 102 43 92 50 82 50 c 0
 72 50 63 43 63 28 c 0
 63 -65 94 -148 168 -148 c 0
 173 -148 178 -148 183 -147 c 0
 297.735073945 -133.724867477 480.803897406 277.864094465 499.453551679 577.927159139 c 1
 531.099998249 576.74671899 564.951882962 576 601 576 c 0
EndSplineSet
Position2: "'cpsp' Capital Spacing lookup 0 subtable" dx=5 dy=0 dh=10 dv=0
EndChar

StartChar: K
Encoding: 75 75 79
Width: 561
VWidth: 0
Flags: HW
PickledData: "(dp1
S'com.typemytype.robofont.layerData'
p2
(dp3
s."
AnchorPoint: "top" 502 658 basechar 0
AnchorPoint: "bot" 334 -114 basechar 0
LayerCount: 2
Fore
SplineSet
-11 322 m 0
 11 322 21 333 21 344 c 0
 21 349 21 354 21 359 c 0
 21 571 171 604 285 607 c 1
 247 117 174 -58 63 -58 c 0
 39 -58 12 -47 -1 -47 c 0
 -13 -47 -27 -63 -27 -77 c 0
 -27 -97 36 -104 65 -104 c 0
 215 -104 262 24 301 292 c 1
 431 -30 464 -137 612 -137 c 0
 644 -137 717 -126 717 -94 c 0
 717 -84 710 -78 705 -78 c 0
 688 -78 664 -91 640 -91 c 0
 635 -91 631 -91 626 -91 c 0
 506 -91 486 -13 347 309 c 1
 526 400 646 531 673 591 c 0
 678 603 681 613 681 621 c 0
 681 632 676 639 664 639 c 0
 647 639 639 618 613 583 c 0
 554 503 455 419 315 341 c 1
 332 445 332 540 332 629 c 0
 332 643 323 648 303 648 c 0
 158 648 -36 593 -36 360 c 0
 -36 356 -36 352 -36 348 c 0
 -36 332 -25 322 -11 322 c 0
EndSplineSet
Position2: "'cpsp' Capital Spacing lookup 0 subtable" dx=5 dy=0 dh=10 dv=0
EndChar

StartChar: L
Encoding: 76 76 82
Width: 644
VWidth: 0
Flags: HW
PickledData: "(dp1
S'com.typemytype.robofont.layerData'
p2
(dp3
s."
AnchorPoint: "caron.alt" 906 583 basechar 0
AnchorPoint: "top" 652 658 basechar 0
AnchorPoint: "bot" 422 -144 basechar 0
LayerCount: 2
Fore
SplineSet
417.120673953 434.946351475 m 1
 376.020699846 442.710534224 331.347297 454.194152904 283 470 c 0
 281 471 280 471 278 471 c 0
 265 471 257 455 257 443 c 0
 257 437 259 432 264 430 c 0
 319.076531539 412.137341122 370.213870706 399.444872234 417.289856997 391.189630317 c 1
 417.585156337 371.51833855 418 351.966591107 418 332 c 0
 418 233.390721589 411.394164546 135.355863652 376.017767712 65.6013335949 c 1
 303.244691492 103.36836701 231.050530871 132 165 132 c 0
 97 132 62 86 62 38 c 0
 62 -17 107 -75 201 -75 c 0
 288.387712559 -75 347.760884633 -45.4711600292 387.995387258 3.0520265104 c 1
 518.494246751 -72.1619423648 650.777978124 -174 758 -174 c 0
 813 -174 861 -147 899 -76 c 0
 902 -70 903 -65 903 -60 c 0
 903 -50 897 -42 889 -42 c 0
 883 -42 875 -47 868 -58 c 0
 841 -99 806 -115 765 -115 c 0
 669.924587462 -115 543.38438326 -26.6840506669 415.525574839 44.3292905591 c 1
 462.599552836 132.063571302 470.655783578 257.487562448 470.988888255 383.458658041 c 1
 498.257523525 380.427503048 523.937680156 379 548 379 c 0
 753 379 847 482 847 576 c 0
 847 654 781 725 660 725 c 0
 494.935855384 725 420.498310838 587.629153579 417.120673953 434.946351475 c 1
471.801237205 426.508100807 m 1
 480.071287066 599.423338255 551.702292496 678 656 678 c 0
 742 678 789 628 789 572 c 0
 789 501 714 422 545 422 c 0
 522.25358512 422 497.864958329 423.436935421 471.801237205 426.508100807 c 1
348.899893555 24.7028868908 m 1
 317.154719698 -11.8922035392 271.220222511 -34 205 -34 c 0
 144 -34 113 4 113 36 c 0
 113 60 130 82 166 82 c 0
 223.865749676 82 285.856008167 58.0028578062 348.899893555 24.7028868908 c 1
EndSplineSet
Position2: "'cpsp' Capital Spacing lookup 0 subtable" dx=5 dy=0 dh=10 dv=0
EndChar

StartChar: Lslash
Encoding: 321 321 89
Width: 622
VWidth: 0
Flags: HW
LayerCount: 2
Fore
SplineSet
558 236 m 2
 568 239 571 246 571 254 c 0
 571 264 564 272 553 272 c 0
 550 272 547 271 543 270 c 2
 315 191 l 2
 307 188 304 180 304 174 c 0
 304 165 311 156 321 156 c 0
 322 156 326 157 331 159 c 2
 558 236 l 2
EndSplineSet
Refer: 82 76 N 1 0 0 1 0 0 2
Position2: "'cpsp' Capital Spacing lookup 0 subtable" dx=5 dy=0 dh=10 dv=0
EndChar

StartChar: M
Encoding: 77 77 90
Width: 770
VWidth: 0
Flags: HW
PickledData: "(dp1
S'com.typemytype.robofont.layerData'
p2
(dp3
s."
AnchorPoint: "top" 552 658 basechar 0
LayerCount: 2
Fore
SplineSet
138 575 m 0
 178 575 193 536 193 477 c 0
 193 420 178 343 151 265 c 2
 55 -18 l 2
 55 -19 54 -21 54 -22 c 0
 54 -32 67 -41 79 -41 c 0
 103 -41 107 -24 119 9 c 0
 242 348 323 578 415 578 c 0
 447 578 461 543 461 490 c 0
 461 434 445 357 422 282 c 2
 332 -7 l 2
 329 -18 345 -31 362 -31 c 0
 373 -31 385 -24 388 -6 c 0
 477 292 560 533 652 546 c 0
 655 546 659 547 662 547 c 0
 690 547 700 526 700 503 c 0
 700 498 700 494 699 489 c 0
 679 363 604 224 595 85 c 0
 595 82 595 80 595 77 c 0
 595 19 629 -34 707 -34 c 0
 777 -34 830 8 852 45 c 0
 853 48 854 51 854 54 c 0
 854 67 844 82 833 82 c 0
 829 82 824 80 820 75 c 0
 797 48 757 15 709 15 c 0
 666 15 649 41 649 77 c 0
 649 80 649 84 649 88 c 0
 662 250 747 368 757 500 c 0
 757 504 757 508 757 512 c 0
 757 576 711 606 674 606 c 0
 673 606 672 606 671 606 c 0
 604 606 548 541 495 406 c 1
 503 443 508 476 508 506 c 0
 508 580 481 629 424 629 c 0
 309 626 261 486 217 366 c 1
 228 409 237 456 237 498 c 0
 237 565 214 621 140 621 c 0
 63 621 7 551 7 454 c 0
 7 433 20 422 33 422 c 0
 44 422 55 431 55 447 c 0
 55 520 90 575 138 575 c 0
EndSplineSet
Position2: "'cpsp' Capital Spacing lookup 0 subtable" dx=5 dy=0 dh=10 dv=0
EndChar

StartChar: N
Encoding: 78 78 92
Width: 572
VWidth: 0
Flags: HW
PickledData: "(dp1
S'com.typemytype.robofont.layerData'
p2
(dp3
s."
AnchorPoint: "top" 402 658 basechar 0
LayerCount: 2
Fore
SplineSet
126 541 m 0
 157 541 159 497 159 461 c 0
 159 346 123 156 76 23 c 0
 75 20 74 17 74 13 c 0
 74 0 83 -16 102 -16 c 0
 116 -16 128 -7 133 9 c 0
 199 247 372 540 453 540 c 0
 491 540 492 509 492 482 c 0
 492 409 385 190 385 71 c 0
 385 9 417 -31 499 -31 c 0
 537 -31 592 -6 624 25 c 0
 638 38 643 50 643 58 c 0
 643 66 637 71 630 71 c 0
 624 71 616 68 609 60 c 0
 580 28 540 10 507 10 c 0
 472 10 443 31 443 78 c 0
 443 82 444 85 444 89 c 0
 455 209 554 404 554 502 c 0
 554 550 517 592 455 592 c 0
 343 592 252 432 183 265 c 1
 194 331 207 409 207 466 c 0
 207 534 188 583 130 583 c 0
 85 583 49 547 25 507 c 0
 21 500 19 493 19 487 c 0
 19 476 26 470 35 470 c 0
 41 470 48 473 54 481 c 0
 86 522 105 540 126 541 c 0
EndSplineSet
Position2: "'cpsp' Capital Spacing lookup 0 subtable" dx=5 dy=0 dh=10 dv=0
EndChar

StartChar: O
Encoding: 79 79 99
Width: 659
VWidth: 0
Flags: HW
PickledData: "(dp1
S'com.typemytype.robofont.layerData'
p2
(dp3
s."
AnchorPoint: "top" 482 658 basechar 0
AnchorPoint: "ogonek" 337 -92 basechar 0
LayerCount: 2
Fore
SplineSet
332 -106 m 0
 527 -106 671 153 671 376 c 0
 671 601 586 687 435 687 c 0
 233 687 86 424 86 201 c 0
 86 -21 174 -106 332 -106 c 0
614 389 m 0
 614 134 461 -57 329 -57 c 0
 196 -57 143 33 143 188 c 0
 143 447 303 639 442 639 c 0
 565 639 614 547 614 389 c 0
EndSplineSet
Position2: "'cpsp' Capital Spacing lookup 0 subtable" dx=5 dy=0 dh=10 dv=0
Substitution2: "Single Substitution lookup 9 subtable" ordmasculine
EndChar

StartChar: OE
Encoding: 338 338 100
Width: 1002
VWidth: 0
Flags: HW
LayerCount: 2
Fore
SplineSet
116 188 m 0
 116 447 276 639 415 639 c 0
 537 639 587 549 587 393 c 0
 587 387 587 381 587 375 c 0
 583 150 430 -57 302 -57 c 0
 169 -57 116 33 116 188 c 0
1077 549 m 0
 1077 636 968 682 861 682 c 0
 759 682 652 642 619 551 c 1
 583 647 511 687 408 687 c 0
 207 687 59 424 59 201 c 0
 59 -21 148 -106 306 -106 c 0
 392 -106 467 -57 525 19 c 1
 546 -65 635 -104 732 -104 c 0
 871 -104 1015 -33 1083 77 c 0
 1087 83 1089 90 1089 96 c 0
 1089 110 1080 118 1070 118 c 0
 1064 118 1055 115 1048 104 c 0
 990 18 855 -54 738 -54 c 0
 737 -54 737 -54 736 -54 c 0
 653 -54 566 -15 566 71 c 0
 566 74 566 77 566 80 c 0
 584 121 617 191 636 265 c 1
 791 265 l 2
 817 265 830 274 830 291 c 0
 830 303 823 313 811 316 c 2
 641 316 l 1
 643 328 644 351 644 375 c 0
 644 417 642 465 639 479 c 1
 663 566 746 634 863 634 c 0
 920 634 982 618 1018 582 c 1
 1004 555 987 530 987 502 c 0
 987 486 997 478 1025 478 c 0
 1045 478 1077 499 1077 549 c 0
EndSplineSet
Position2: "'cpsp' Capital Spacing lookup 0 subtable" dx=5 dy=0 dh=10 dv=0
EndChar

StartChar: Omega
Encoding: 937 937 111
Width: 837
VWidth: 0
Flags: HW
LayerCount: 2
Fore
SplineSet
761 41 m 0
 735 41 705 36 665 36 c 0
 652 36 638 36 623 37 c 1
 747 102 812 236 812 366 c 0
 812 530 710 686 498 686 c 0
 260 686 130 488 130 305 c 0
 130 201 172 102 260 45 c 1
 221 46 191 48 167 48 c 0
 157 48 147 48 139 47 c 0
 128 47 123 38 123 28 c 0
 123 13 137 -5 157 -6 c 0
 169 -6 180 -7 192 -7 c 0
 241 -7 297 -4 410 -2 c 1
 412 40 l 1
 259 54 190 169 190 293 c 0
 190 453 304 628 496 628 c 0
 665 628 751 492 751 350 c 0
 751 206 662 57 483 40 c 1
 481 -2 l 1
 553 -12 614 -17 666 -17 c 0
 669 -17 672 -17 675 -17 c 0
 720 -17 774 -16 774 24 c 0
 774 33 770 41 761 41 c 0
EndSplineSet
Position2: "'cpsp' Capital Spacing lookup 0 subtable" dx=5 dy=0 dh=10 dv=0
EndChar

StartChar: Oslash
Encoding: 216 216 113
Width: 633
VWidth: 0
Flags: HW
PickledData: "(dp1
S'com.typemytype.robofont.layerData'
p2
(dp3
s."
LayerCount: 2
Fore
SplineSet
75 -163 m 2
 677 718 l 2
 681 724 683 729 683 734 c 0
 683 746 672 753 661 753 c 0
 653 753 646 750 642 741 c 2
 42 -142 l 2
 35 -154 33 -163 33 -170 c 0
 33 -179 38 -184 45 -184 c 0
 54 -184 66 -177 75 -163 c 2
EndSplineSet
Refer: 99 79 N 1 0 0 1 0 0 2
Position2: "'cpsp' Capital Spacing lookup 0 subtable" dx=5 dy=0 dh=10 dv=0
EndChar

StartChar: P
Encoding: 80 80 116
Width: 589
VWidth: 0
Flags: HW
PickledData: "(dp1
S'com.typemytype.robofont.layerData'
p2
(dp3
s."
AnchorPoint: "top" 472 658 basechar 0
LayerCount: 2
Fore
SplineSet
229 -119 m 0
 323 -119 349 -35 363 99 c 0
 375 202 383 266 385 266 c 0
 579 272 699 359 699 491 c 0
 699 608 613 697 444 697 c 0
 433 697 421 697 409 696 c 0
 208 682 87 485 87 232 c 0
 87 45 131 -119 229 -119 c 0
240 -67 m 0
 165 -67 143 100 143 221 c 0
 143 393 223 629 408 643 c 0
 418 644 427 644 436 644 c 0
 568 644 643 577 643 485 c 0
 643 384 539 317 388 312 c 1
 393 346 410 419 444 478 c 0
 445 479 445 480 445 481 c 0
 445 488 434 496 415 496 c 0
 358 496 349 418 330 314 c 1
 302 314 257 339 247 344 c 0
 240 347 241 333 241 326 c 0
 241 286 300 272 325 270 c 1
 307 131 312 -67 240 -67 c 0
EndSplineSet
Position2: "'cpsp' Capital Spacing lookup 0 subtable" dx=5 dy=0 dh=10 dv=0
EndChar

StartChar: Q
Encoding: 81 81 118
Width: 643
VWidth: 0
Flags: HW
LayerCount: 2
Fore
SplineSet
942 -188 m 0
 984 -155 997 -126 1002 -114 c 0
 1004 -109 1005 -105 1005 -102 c 0
 1005 -93 990 -85 983 -89 c 0
 980 -91 979 -94 976 -98 c 0
 947 -131 908 -168 850 -168 c 0
 783 -168 680 -124 479 8 c 0
 478 9 478 9 477 9 c 0
 470 9 454 -9 454 -19 c 0
 454 -21 455 -22 456 -23 c 0
 655 -150 760 -225 845 -225 c 0
 879 -225 910 -213 942 -188 c 0
EndSplineSet
Refer: 99 79 N 1 0 0 1 0 0 2
Position2: "'cpsp' Capital Spacing lookup 0 subtable" dx=5 dy=0 dh=10 dv=0
EndChar

StartChar: R
Encoding: 82 82 119
Width: 697
VWidth: 0
Flags: HW
PickledData: "(dp1
S'com.typemytype.robofont.layerData'
p2
(dp3
s."
AnchorPoint: "top" 462 658 basechar 0
LayerCount: 2
Fore
SplineSet
483 338 m 0
 557 338 674 393 674 510 c 0
 674 621 569 696 415 697 c 0
 236 697 70 534 70 225 c 0
 70 -1 123 -119 218 -119 c 2
 219 -119 l 2
 320.766075108 -119 340.532710156 -21.3816189746 376.677810824 330.102405043 c 0
 380.673100224 330.034580493 384.779739303 330 389 330 c 0
 402 330 417 330 433 331 c 1
 495 -9 612 -137 712 -148 c 0
 719 -149 726 -150 734 -150 c 0
 765 -150 800 -139 838 -96 c 0
 844 -90 846 -85 846 -80 c 0
 846 -72 837 -59 827 -59 c 0
 820 -59 814 -64 809 -69 c 0
 792 -86 768 -97 745 -97 c 0
 741 -97 737 -97 734 -96 c 0
 695 -91 572 -67 481 338 c 1
 482 338 482 338 483 338 c 0
317.430907839 334.454108607 m 1
 284.840684575 137.567888291 295.441236659 -66 222 -66 c 0
 166 -66 127 11 127 225 c 0
 127 446 231 639 416 639 c 0
 563 639 616 579 616 503 c 0
 616 501 616 499 616 497 c 0
 616 438 569 383 393 383 c 2
 385.186595272 383 l 1
 400.199606332 440.502106898 429 466.922566378 429 481 c 0
 429 489 417 496 401 496 c 0
 358.778597091 496 341.316178399 454.219214135 326.834430419 384.949660641 c 1
 306.117200758 386.701417818 289.760018196 389 278 389 c 0
 276 389 273 389 271 389 c 0
 258 389 250 385 250 373 c 0
 250 357.126789366 268.220162303 341.774154797 317.430907839 334.454108607 c 1
EndSplineSet
Position2: "'cpsp' Capital Spacing lookup 0 subtable" dx=5 dy=0 dh=10 dv=0
EndChar

StartChar: S
Encoding: 83 83 125
Width: 561
VWidth: 0
Flags: HW
PickledData: "(dp1
S'com.typemytype.robofont.layerData'
p2
(dp3
s."
AnchorPoint: "top" 382 658 basechar 0
AnchorPoint: "bot" 272 -89 basechar 0
LayerCount: 2
Fore
SplineSet
91 101 m 0
 91 120 80 136 63 136 c 0
 49 136 33 122 28 90 c 0
 26 80 26 71 26 62 c 0
 26 -55 154 -114 269 -114 c 0
 419 -114 527 -36 527 80 c 0
 527 187 446 225 335 290 c 1
 205 375 163 390 163 468 c 0
 163 536 271 583 351 583 c 0
 426 583 497 551 497 487 c 0
 497 450 481 424 464 403 c 0
 459 397 457 391 457 386 c 0
 457 375 466 366 478 366 c 0
 488 366 500 372 513 387 c 0
 531 407 549 442 549 484 c 0
 549 577 467 632 353 632 c 0
 231 632 104 566 104 459 c 0
 104 362 196 313 285 257 c 0
 371 203 475 170 475 73 c 0
 475 -3 406 -66 275 -66 c 0
 173 -66 87 -22 87 61 c 0
 87 73 91 89 91 101 c 0
EndSplineSet
Position2: "'cpsp' Capital Spacing lookup 0 subtable" dx=5 dy=0 dh=10 dv=0
EndChar

StartChar: T
Encoding: 84 84 133
Width: 476
VWidth: 0
Flags: HW
PickledData: "(dp1
S'com.typemytype.robofont.layerData'
p2
(dp3
s."
AnchorPoint: "mid" 336 304 basechar 0
AnchorPoint: "top" 432 658 basechar 0
AnchorPoint: "bot" 289 -113 basechar 0
LayerCount: 2
Fore
SplineSet
273 -90 m 0
 293 -90 302 -78 306 -51 c 0
 314.914391808 9.41976669905 344.43117877 278.806684244 436.33494486 585.163744181 c 1
 509.081896727 580.704435629 596.518925072 576 687 576 c 0
 755 576 760 585 760 600 c 0
 760 615 749 627 738 627 c 0
 737 627 737 627 736 627 c 0
 598 627 408 643 287 643 c 0
 78 643 -9 545 -9 436 c 0
 -9 424 3 416 14 416 c 0
 21 416 27 419 29 426 c 0
 55 523 87 593 284 593 c 0
 309.967468118 593 348.457825101 590.660559223 395.387080779 587.717373492 c 1
 274.602689854 295.570599138 247 -12.3132875886 247 -56 c 0
 247 -76 253 -90 273 -90 c 0
EndSplineSet
Position2: "'cpsp' Capital Spacing lookup 0 subtable" dx=5 dy=0 dh=10 dv=0
EndChar

StartChar: Thorn
Encoding: 222 222 138
Width: 469
VWidth: 0
Flags: HW
LayerCount: 2
Fore
SplineSet
269 312 m 1
 276 372 295 516 311 636 c 0
 312 636 313 636 314 636 c 0
 445 636 523 577 523 485 c 0
 523 384 419 317 269 312 c 1
120 -67 m 0
 45 -67 23 100 23 221 c 0
 23 382 97 597 254 631 c 1
 243 554 230 452 210 314 c 1
 183 314 137 339 127 344 c 0
 121 347 121 333 121 326 c 0
 121 286 180 272 206 270 c 1
 188 131 192 -67 120 -67 c 0
109 -119 m 0
 203 -119 229 -35 243 99 c 0
 255 202 263 266 265 266 c 0
 458 272 579 359 579 491 c 0
 579 609 484 693 318 696 c 1
 328 772 334 823 334 835 c 0
 334 847 329 851 315 851 c 0
 291 851 281 823 263 694 c 1
 78 670 -32 474 -32 232 c 0
 -32 45 12 -119 109 -119 c 0
EndSplineSet
Position2: "'cpsp' Capital Spacing lookup 0 subtable" dx=5 dy=0 dh=10 dv=0
EndChar

StartChar: U
Encoding: 85 85 139
Width: 632
VWidth: 0
Flags: HW
PickledData: "(dp1
S'com.typemytype.robofont.layerData'
p2
(dp3
s."
AnchorPoint: "top" 442 658 basechar 0
AnchorPoint: "ogonek" 310 -27 basechar 0
LayerCount: 2
Fore
SplineSet
472 567 m 0
 472 603 494 636 537 636 c 0
 582 636 601 589 601 520 c 0
 601 501.110544597 599.496993666 480.609169357 596.60009835 459.038051125 c 0
 595.391651024 459.012621814 594.191618241 459 593 459 c 0
 512 459 472 517 472 567 c 0
646.659437081 424.300135125 m 1
 689.10368286 434.465179546 737.084217638 455.829718372 790 492 c 0
 797 496 800 502 800 508 c 0
 800 518 791 528 779 528 c 0
 774 528 769 527 764 523 c 0
 722.293989538 495.195993025 684.972078152 477.621550563 652.034265844 468.068420415 c 1
 653.336879089 483.176431397 654 497.865243184 654 512 c 0
 654 610 622 681 551 681 c 0
 465 681 424 624 424 566 c 0
 424 495 482 417 588 417 c 0
 588.487994943 417 588.977013294 417.004967969 589.467053673 417.004967969 c 1
 552.778607956 236.483339338 432.345687331 10.0000000036 283 10 c 0
 190 10 154 87 154 188 c 0
 154 303 200 448 261 548 c 0
 264 552 265 556 265 559 c 0
 265 569 255 575 243 575 c 0
 239.062041851 575 234.757041942 574.357676919 230.390756888 572.989641858 c 0
 230.261050843 572.996525917 230.130792733 573.000000721 230 573 c 0
 229 573 227 573 226 572 c 2
 78 483 l 2
 70 478 67 470 67 462 c 0
 67 452 72 441 81 441 c 0
 83 441 86 442 89 444 c 2
 172.900509088 496.018315635 l 1
 125.608505219 399.809357284 95 285.252552337 95 186 c 0
 95 58 147 -43 280 -43 c 0
 473.502515665 -43 613.822950943 216.072705887 646.659437081 424.300135125 c 1
EndSplineSet
Position2: "'cpsp' Capital Spacing lookup 0 subtable" dx=5 dy=0 dh=10 dv=0
EndChar

StartChar: V
Encoding: 86 86 153
Width: 580
VWidth: 0
Flags: HW
LayerCount: 2
Fore
SplineSet
507 284 m 0
 458 188 374 46 282 35 c 0
 279 35 277 35 274 35 c 0
 232 35 204 71 204 164 c 0
 204 347 305 480 315 494 c 0
 316 495 316 496 316 497 c 0
 316 503 306 514 292 514 c 0
 285.077719539 514 276.571374061 511.22788622 267.477812968 503.939172255 c 0
 266.581551937 503.845331672 265.606720795 503.606721022 265 503 c 2
 38 366 l 2
 30 361 27 353 27 345 c 0
 27 334 33 324 41 324 c 0
 44 324 46 325 49 327 c 2
 218.11028755 431.863147739 l 1
 187.630167848 375.369738468 149 282.572352671 149 170 c 0
 149 44 188 -20 268 -20 c 1
 377 -14 461 108 546 260 c 0
 570.585199805 303.9309308 589.16019111 345.10041445 602.576063103 383.115640557 c 1
 651.748245011 388.359448556 710.668637987 412.534003626 778 465 c 0
 785 470 787 477 787 483 c 0
 787 492 781 500 773 500 c 0
 770 500 767 499 764 497 c 0
 706.675769872 455.82344033 657.173957581 434.854793407 616.547178339 428.304675564 c 1
 626.530629649 466.164814211 631 500.223980398 631 530 c 0
 631 613 596 662 547 664 c 0
 463 664 424 606 424 542 c 0
 424 473.940711495 468.909234436 399.465818071 551.546099587 384.646073946 c 1
 540.661391717 354.569851637 526.07724755 321.094648015 507 284 c 0
565.387211878 427.926429154 m 1
 501.316045591 438.766189368 470 493.299460088 470 539 c 0
 470 576 490 608 531 608 c 0
 552 608 579 580 579 517 c 0
 579 492.713721635 575.073661353 463.192325074 565.387211878 427.926429154 c 1
EndSplineSet
Position2: "'cpsp' Capital Spacing lookup 0 subtable" dx=5 dy=0 dh=10 dv=0
EndChar

StartChar: W
Encoding: 87 87 154
Width: 936
VWidth: 0
Flags: HW
PickledData: "(dp1
S'com.typemytype.robofont.layerData'
p2
(dp3
s."
AnchorPoint: "top" 642 658 basechar 0
LayerCount: 2
Fore
SplineSet
987 520 m 0
 987 608 948 653 887 653 c 0
 811 653 777 601 777 543 c 0
 777 475.545036964 823.917329461 399.191959719 908.293945298 384.512320515 c 1
 896.886843239 354.439849392 881.998694765 320.997458228 863 284 c 0
 813 188 730 46 638 35 c 0
 636 35 633 35 631 35 c 0
 587 35 553 78 553 184 c 0
 553 207 555 265 560 274 c 0
 564 283 636 397 636 456 c 0
 636 474 628 486 607 486 c 0
 593 486 576 465 560 430 c 0
 544.707651972 396.138372223 531.205017527 350.047034961 522.098660759 300.197321519 c 1
 514 284 l 2
 464 188 381 46 289 35 c 0
 286 35 284 35 281 35 c 0
 239 35 210 71 210 164 c 0
 210 347 312 480 322 494 c 0
 323 495 323 496 323 497 c 0
 323 503 313 514 299 514 c 0
 291.440213677 514 283.086672227 511.221857051 274.18940132 503.915390716 c 0
 273.243968222 503.807271844 272.121984174 503.560991871 271 503 c 2
 44 366 l 2
 36 361 33 353 33 345 c 0
 33 334 39 324 47 324 c 0
 50 324 52 325 55 327 c 2
 224.946477796 432.381658721 l 1
 194.404662571 375.938486044 156 282.917438748 156 170 c 0
 156 44 195 -20 274 -20 c 1
 367.801937124 -14.836590617 438.645966188 79.9367179655 510.750156869 203.137433935 c 1
 510.256777408 193.006947188 510 182.939279242 510 173 c 0
 510 69 539 -20 624 -20 c 1
 733 -14 818 106 903 258 c 0
 928.294253719 303.108085799 947.190514726 345.017175243 960.587852193 383.352656175 c 1
 1009.85751293 389.156182325 1067.44632231 414.004324888 1134 465 c 0
 1141 470 1143 477 1143 483 c 0
 1143 492 1137 500 1129 500 c 0
 1126 500 1123 499 1120 497 c 0
 1062.64390684 453.786505153 1013.93035448 432.179362303 973.374311237 424.903096276 c 1
 982.755591375 460.421716091 987 492.244637178 987 520 c 0
921.748325408 423.441708109 m 1
 856.494897232 433.0311302 825 488.659630525 825 536 c 0
 825 575 846 608 887 608 c 0
 916 608 940 583 940 526 c 0
 940 499.208867929 934.691089071 465.250706103 921.748325408 423.441708109 c 1
EndSplineSet
Position2: "'cpsp' Capital Spacing lookup 0 subtable" dx=5 dy=0 dh=10 dv=0
EndChar

StartChar: X
Encoding: 88 88 159
Width: 610
VWidth: 0
Flags: HW
LayerCount: 2
Fore
SplineSet
-6 451 m 0
 62 511 102 535 129 535 c 0
 156 535 170 511 184 477 c 2
 289.607201268 224.391820083 l 1
 250.305702118 177.124934599 212.905704611 132.603325904 180 93 c 0
 97 -7 42 -35 -42 -35 c 0
 -57 -35 -65 -49 -65 -63 c 0
 -65 -79 -56 -95 -35 -95 c 0
 37 -95 93 -70 208 61 c 0
 237.438446594 94.3810956917 271.505694467 135.845321974 307.786604005 180.907419566 c 1
 383 1 l 2
 407 -56 439 -84 476 -84 c 0
 505 -84 537 -67 570 -35 c 2
 680 72 l 1
 681 73 l 1
 681 79 657 97 652 97 c 2
 651 97 l 1
 541 -7 l 2
 522 -25 505 -34 490 -34 c 0
 464 -34 444 -8 426 37 c 2
 348.912231479 232.26077631 l 1
 440.404467029 346.931164938 539.708414216 473.068665669 612 546 c 0
 623 558 628 568 628 577 c 0
 628 592 614 602 599 602 c 0
 589 602 579 597 573 587 c 0
 503.927564339 487.632636418 415.765249397 377.251880942 331.868549123 275.431861837 c 1
 244 498 l 2
 225 548 190 581 141 581 c 0
 95 581 36 551 -34 479 c 0
 -36 477 -37 474 -37 471 c 0
 -37 460 -23 449 -13 449 c 0
 -10 449 -8 449 -6 451 c 0
EndSplineSet
Position2: "'cpsp' Capital Spacing lookup 0 subtable" dx=5 dy=0 dh=10 dv=0
EndChar

StartChar: Y
Encoding: 89 89 160
Width: 523
VWidth: 0
Flags: HW
PickledData: "(dp1
S'com.typemytype.robofont.layerData'
p2
(dp3
s."
AnchorPoint: "top" 392 658 basechar 0
LayerCount: 2
Fore
SplineSet
461.242435239 141.050014906 m 1
 548 513 l 2
 551 526 553 536 553 545 c 0
 553 562 545 571 521 571 c 0
 510 571 497 560 491 530 c 2
 418 207 l 1
 358 129 274 74 209 74 c 0
 154 74 114 113 114 212 c 0
 114 290 140 404 203 565 c 0
 204 567 204 569 204 571 c 0
 204 580 194 582 183 582 c 0
 163 582 154 569 147 556 c 0
 83 430 55 314 55 222 c 0
 55 96 107 15 190 15 c 0
 251 15 327 59 412 160 c 1
 405.565411863 131.949217342 398.918547747 105.131657045 392.127499854 79.5828895992 c 1
 268.105795938 -35.7210520959 145.999999961 -178.11877288 146 -274 c 0
 146 -307 165 -332 200 -332 c 0
 316.112654266 -332 372.304648618 -198.114775504 446.486013088 81.4327710524 c 1
 497.711307669 127.600709007 552.364166708 171.996721135 606 210 c 0
 609 212 610 216 610 220 c 0
 610 230 603 244 596 244 c 0
 595 244 594 244 593 243 c 0
 558.580418459 219.7928579 511.718143529 184.007036692 461.242435239 141.050014906 c 1
372.815129732 11.4704161542 m 1
 316.711200834 -174.073768228 255.423732005 -275.999999823 224 -276 c 0
 208 -276 194 -267 194 -241 c 0
 194 -192.741145073 269.607275993 -91.9476570622 372.815129732 11.4704161542 c 1
EndSplineSet
Position2: "'cpsp' Capital Spacing lookup 0 subtable" dx=5 dy=0 dh=10 dv=0
EndChar

StartChar: Z
Encoding: 90 90 167
Width: 508
VWidth: 0
Flags: HW
PickledData: "(dp1
S'com.typemytype.robofont.layerData'
p2
(dp3
s."
AnchorPoint: "top" 482 658 basechar 0
LayerCount: 2
Fore
SplineSet
667 576 m 0
 735 576 740 585 740 600 c 0
 740 615 729 627 718 627 c 0
 717 627 717 627 716 627 c 0
 578 627 426 643 305 643 c 0
 96 643 9 545 9 436 c 0
 9 424 21 416 32 416 c 0
 39 416 45 419 47 426 c 0
 73 523 105 593 302 593 c 0
 363.278856566 593 462.548193466 580.336506555 599.165090755 576.868799318 c 1
 355.560228125 359.476962826 161.120434246 185.993721147 74 93 c 0
 43 59 26 35 26 24 c 0
 26 14 35 7 44 7 c 0
 59 7 75 18 94 40 c 1
 181 -9 270 -50 371 -50 c 0
 442 -50 518 -30 604 22 c 0
 608 24 610 27 610 32 c 0
 610 43 599 60 589 60 c 0
 588 60 586 60 585 59 c 0
 520 24 461 -3 385 -3 c 0
 318 -3 238 18 130 76 c 0
 128 77 126 78 124 80 c 0
 246.506825313 208.340483661 484.342859135 411.361356439 659.200051189 576.011638003 c 0
 661.788505313 576.003919003 664.388489417 576 667 576 c 0
EndSplineSet
Position2: "'cpsp' Capital Spacing lookup 0 subtable" dx=5 dy=0 dh=10 dv=0
EndChar

StartChar: a
Encoding: 97 97 171
Width: 333
VWidth: 0
Flags: HW
PickledData: "(dp1
S'com.typemytype.robofont.layerData'
p2
(dp3
s."
AnchorPoint: "top" 242 333 basechar 0
AnchorPoint: "ogonek" 282 -1 basechar 0
LayerCount: 2
Fore
SplineSet
212 150 m 2
 203 117 170 36 112 36 c 0
 79 36 66 58 66 90 c 0
 66 165 143 288 239 288 c 0
 243 288 246 287 250 287 c 2
 212 150 l 2
18 88 m 0
 18 35 41 -6 102 -6 c 0
 151.177453149 -6 204.501720253 24.686423263 221.186851556 75.4851346452 c 1
 221.068223776 73.6567564343 220.999999962 71.8283782234 221 70 c 0
 221 27 246 -1 282 -1 c 0
 333 -1 385 46 409 80 c 1
 409 80 410 82 410 87 c 0
 410 97 403 123 396 123 c 1
 396 123 393 123 389 117 c 0
 372 95 342 50 291 43 c 0
 290 43 288 43 287 43 c 0
 267 43 260 61 260 82 c 0
 260 88 261 93 262 99 c 2
 298 282 l 2
 299 284 299 287 299 289 c 0
 299 299 293 305 281 305 c 2
 260 305 l 2
 260 307 261 309 261 311 c 0
 261 321 255 332 222 332 c 0
 110 332 18 188 18 88 c 0
EndSplineSet
Substitution2: "Single Substitution lookup 8 subtable" ordfeminine
EndChar

StartChar: acute
Encoding: 180 180 176
Width: 208
VWidth: 0
Flags: HW
PickledData: "(dp1
S'com.typemytype.robofont.layerData'
p2
(dp3
s."
AnchorPoint: "top" 54 333 mark 0
LayerCount: 2
Fore
SplineSet
81 422 m 2
 217 517 l 2
 229 525 234 535 234 544 c 0
 234 559 222 572 207 572 c 0
 199 572 190 568 183 559 c 2
 67 439 l 2
 64 436 63 432 63 429 c 0
 63 423 66 419 72 419 c 0
 75 419 78 420 81 422 c 2
EndSplineSet
EndChar

StartChar: ae
Encoding: 230 230 180
Width: 480
VWidth: 0
Flags: HW
AnchorPoint: "top" 327 333 basechar 0
AnchorPoint: "ogonek" 417 0 basechar 0
LayerCount: 2
Fore
SplineSet
287 109 m 1
 283 123 281 137 281 151 c 0
 281 227 333 289 384 289 c 0
 402 289 423 276 423 249 c 0
 423 206 373 165 287 109 c 1
139 36 m 0
 100 36 83 55 83 89 c 0
 83 159 143 292 229 292 c 0
 246 292 266 287 271 275 c 1
 254 254 230 209 230 151 c 0
 230 129 234 105 243 81 c 1
 243 81 188 36 139 36 c 0
367 -6 m 0
 453 -6 522 51 552 91 c 0
 555 96 556 100 556 104 c 0
 556 115 547 123 541 123 c 0
 539 123 538 122 537 121 c 0
 480 66 426 36 375 36 c 0
 336 36 314 51 299 74 c 1
 393 131 468 184 468 255 c 0
 468 302 427 331 380 331 c 0
 349 331 320 319 296 300 c 1
 283 315 256 332 229 332 c 0
 116 332 35 187 35 87 c 0
 35 0 102 -7 131 -7 c 0
 194 -7 258 46 258 46 c 1
 284 13 315 -6 367 -6 c 0
EndSplineSet
EndChar

StartChar: ampersand
Encoding: 38 38 186
Width: 521
VWidth: 0
Flags: HW
LayerCount: 2
Fore
SplineSet
234 342 m 1
 212 375 207 408 207 439 c 0
 207 479 227 511 271 511 c 0
 304 511 322 500 322 465 c 0
 322 401 264 359 234 342 c 1
193 52 m 0
 146 52 102 87 102 138 c 0
 102 202 153 239 186 264 c 1
 222 183 254 132 301 74 c 1
 275 63 238 52 193 52 c 0
468 -82 m 0
 511 -82 538 -60 538 -54 c 0
 538 -42 485 -26 461 -7 c 0
 445 6 429 21 394 54 c 1
 453 85 498 129 498 184 c 0
 498 197 471 215 454 215 c 0
 449 215 444 213 442 209 c 0
 442 155 411 127 358 105 c 1
 326 151 276 238 248 299 c 1
 304 332 373 392 373 474 c 0
 373 532 327 566 267 566 c 0
 192 566 129 508 129 435 c 0
 129 383 144 346 163 312 c 1
 103 280 30 211 30 125 c 0
 30 47 105 0 191 0 c 0
 256 0 306 15 330 25 c 1
 342 7 374 -28 410 -63 c 0
 425 -80 447 -82 468 -82 c 0
EndSplineSet
EndChar

StartChar: asciicircum
Encoding: 94 94 191
Width: 372
VWidth: 0
Flags: HW
LayerCount: 2
Fore
SplineSet
66 185 m 0
 82 185 93 199 100 211 c 0
 106 223 169 375 194 402 c 1
 212 375 270 240 277 224 c 0
 285 206 300 184 319 184 c 0
 333 184 339 199 339 213 c 0
 339 219 338 224 336 229 c 0
 313 290 287 348 259 402 c 0
 245 429 229 449 194 449 c 0
 160 449 144 415 126 382 c 0
 109 350 90 313 73 280 c 0
 61 257 42 236 42 212 c 0
 42 195 59 185 66 185 c 0
EndSplineSet
EndChar

StartChar: asciitilde
Encoding: 126 126 192
Width: 295
VWidth: 0
Flags: HW
LayerCount: 2
Fore
SplineSet
249 449 m 0
 286 449 326 496 326 532 c 0
 326 544 317 550 305 550 c 0
 273 550 264 510 243 492 c 1
 203 531 l 2
 182 552 167 579 134 579 c 0
 97 579 57 532 57 496 c 0
 57 484 65 478 78 478 c 0
 109 478 122 519 140 537 c 1
 180 497 l 2
 201 477 216 449 249 449 c 0
EndSplineSet
EndChar

StartChar: asterisk
Encoding: 42 42 193
Width: 490
VWidth: 0
Flags: HW
LayerCount: 2
Fore
SplineSet
285 302 m 0
 304 302 321 312 321 327 c 2
 325 437 l 1
 406 362 l 2
 410 358 416 356 422 356 c 0
 438 356 458 368 458 387 c 0
 458 410 405 427 348 457 c 1
 384 461 473 470 473 496 c 0
 473 517 454 532 439 532 c 0
 435 532 432 531 429 529 c 0
 395 511 365 497 332 480 c 1
 347 513 356 548 369 586 c 0
 370 589 371 593 371 596 c 0
 371 608 363 617 346 617 c 0
 327 617 310 608 310 592 c 0
 310 553 306 518 306 481 c 1
 274 509 228 562 209 562 c 0
 191 562 172 547 172 530 c 0
 172 506 247 482 285 462 c 1
 278 460 158 453 158 422 c 0
 158 401 177 386 192 386 c 0
 196 386 199 387 202 389 c 0
 235 406 267 422 298 440 c 1
 290 409 260 364 260 322 c 0
 260 309 270 302 285 302 c 0
EndSplineSet
EndChar

StartChar: at
Encoding: 64 64 194
Width: 766
VWidth: 0
Flags: HW
LayerCount: 2
Fore
SplineSet
476 195 m 2
 459 141 416 62 338 62 c 0
 285 62 273 99 273 130 c 0
 273 265 380 367 494 367 c 0
 504 367 515 366 525 364 c 1
 476 195 l 2
482 98 m 0
 482 52 508 34 550 34 c 0
 640 34 721 145 721 294 c 0
 721 451 626 536 462 536 c 0
 252 536 43 357 43 123 c 0
 43 -11 123 -134 333 -134 c 0
 432 -134 537 -109 611 -65 c 0
 622 -59 626 -49 626 -40 c 0
 626 -28 618 -16 605 -16 c 0
 601 -16 595 -18 590 -21 c 0
 512 -66 425 -84 343 -84 c 0
 162 -84 103 14 103 121 c 0
 103 308 253 489 462 489 c 0
 599 489 671 419 671 287 c 0
 671 215 628 74 552 74 c 0
 532 74 520 82 520 107 c 0
 520 114 521 122 523 131 c 2
 579 353 l 2
 581 362 582 369 582 375 c 0
 582 392 573 399 554 399 c 0
 553 399 552 399 551 399 c 2
 531 399 l 2
 516 399 525 416 515 416 c 0
 378 416 217 295 217 127 c 0
 217 59 260 16 328 16 c 0
 403 16 457 64 489 145 c 1
 484 127 482 111 482 98 c 0
EndSplineSet
EndChar

StartChar: b
Encoding: 98 98 196
Width: 371
VWidth: 0
Flags: HW
PickledData: "(dp1
S'com.typemytype.robofont.layerData'
p2
(dp3
s."
LayerCount: 2
Fore
SplineSet
107 271 m 1
 146 453 214 600 275 600 c 0
 292 600 299 588 299 574 c 0
 299 458 119 285 107 271 c 1
171 39 m 0
 117 39 93 76 93 135 c 0
 93 203 145 286 215 286 c 0
 262.191651048 286 274.669781037 248.892443005 277.900857035 211.719462933 c 1
 276.720950804 211.90331887 275.425735165 212 274 212 c 0
 245 212 236 191 236 173 c 0
 236 153.873860604 247.541305609 138.762088376 270.623916826 131.574742605 c 1
 254.500861453 83.2919964064 216.675038003 39 171 39 c 0
319.340460233 127.810638076 m 1
 364.575398411 132.794206421 413.085285629 159.988870442 442 188 c 0
 450 194 451 197 451 207 c 0
 451 219 445 224 439 224 c 0
 433 224 382 172 327 172 c 0
 326.77662104 172 326.554779965 172.00248629 326.334464649 172.00248629 c 1
 326.720478035 177.357435726 326.941729591 182.697392786 327 188 c 0
 327 263 297 330 240 330 c 0
 239 330 238 330 237 330 c 0
 222 330 205 325 186 314 c 1
 245 357 349 476 349 583 c 0
 349 630 325 656 290 656 c 0
 153 656 54 365 44 128 c 0
 44 126 44 124 44 122 c 0
 44 53 80 -5 171 -5 c 0
 253.783443832 -5 301.801257667 57.2121799934 319.340460233 127.810638076 c 1
EndSplineSet
EndChar

StartChar: backslash
Encoding: 92 92 197
Width: 426
VWidth: 0
Flags: HW
LayerCount: 2
Fore
SplineSet
369 -5 m 0
 379 -5 389 5 389 20 c 0
 389 25 388 30 386 36 c 2
 136 582 l 2
 121 615 117 637 96 637 c 0
 83 637 69 629 69 620 c 0
 69 609 79 594 88 574 c 2
 349 10 l 2
 354 -1 362 -5 369 -5 c 0
EndSplineSet
EndChar

StartChar: bar
Encoding: 124 124 198
Width: 369
VWidth: 0
Flags: HW
LayerCount: 2
Fore
SplineSet
151 -69 m 2
 148 -83 160 -91 172 -91 c 0
 181 -91 190 -86 192 -75 c 2
 346 638 l 2
 347 641 347 644 347 647 c 0
 347 661 339 669 329 669 c 0
 320 669 309 661 305 643 c 2
 151 -69 l 2
EndSplineSet
EndChar

StartChar: braceleft
Encoding: 123 123 200
Width: 394
VWidth: 0
Flags: HW
LayerCount: 2
Fore
SplineSet
116 324 m 0
 109 324 102 325 95 325 c 0
 78 325 67 317 67 298 c 0
 67 284 73 273 85 271 c 0
 160 264 171 244 171 203 c 0
 171 145 156 93 156 45 c 0
 156 -31 187 -72 281 -72 c 0
 296 -72 312 -71 330 -69 c 0
 338 -68 341 -61 341 -53 c 0
 341 -44 336 -34 326 -34 c 0
 317 -34 306 -35 298 -35 c 0
 214 -35 204 -6 204 52 c 0
 204 104 219 160 219 211 c 0
 219 258.479901595 188.503396188 285.093705845 144.765113064 294.436188669 c 1
 194.613284901 301.012697699 234.37500017 326.812502597 238 383 c 0
 247 554 257 605 321 612 c 0
 326 613 330 613 335 613 c 0
 364 613 393 603 410 597 c 0
 413 596 415 596 417 596 c 0
 427 596 432 605 432 613 c 0
 432 619 430 624 425 626 c 0
 403 639 367 651 328 651 c 0
 222 651 202 582 192 404 c 0
 188 352 173 324 116 324 c 0
EndSplineSet
EndChar

StartChar: braceright
Encoding: 125 125 201
Width: 426
VWidth: 0
Flags: HW
LayerCount: 2
Fore
SplineSet
167 583 m 0
 177 583 186 584 194 584 c 0
 277 584 288 555 288 497 c 0
 288 445 273 390 273 338 c 0
 273 290.774671591 303.170452989 264.192284701 345.825043839 254.715576516 c 1
 296.865479812 248.576630245 256.706933537 221.94329389 254 166 c 0
 245 -5 235 -55 171 -62 c 0
 166 -63 162 -63 157 -63 c 0
 127 -63 100 -53 83 -47 c 0
 81 -46 78 -46 76 -46 c 0
 65 -46 60 -55 60 -63 c 0
 60 -68 62 -74 67 -76 c 0
 89 -90 128 -101 168 -101 c 0
 172 -101 177 -101 181 -101 c 0
 269 -93 290 -25 300 146 c 0
 303 199 319 226 379 226 c 0
 385 226 392 225 399 225 c 0
 416 225 424 233 424 254 c 0
 424 267 418 276 407 278 c 0
 332 285 321 306 321 347 c 0
 321 405 335 456 335 504 c 0
 335 581 303 622 210 622 c 0
 195 622 180 621 162 619 c 0
 154 618 151 611 151 603 c 0
 151 593 156 583 167 583 c 0
EndSplineSet
EndChar

StartChar: bracketleft
Encoding: 91 91 202
Width: 316
VWidth: 0
Flags: HW
LayerCount: 2
Fore
SplineSet
118 -17 m 1
 129 34 199 479 207 524 c 1
 332 524 l 2
 347 524 355 535 355 545 c 0
 355 553 350 560 338 560 c 2
 206 560 l 2
 167 560 158 553 151 506 c 0
 129 373 86 75 76 13 c 2
 70 -18 l 1
 70 -45 82 -55 103 -55 c 0
 104 -55 105 -55 106 -55 c 2
 237 -54 l 2
 255 -54 262 -45 262 -37 c 0
 262 -27 254 -17 244 -17 c 2
 118 -17 l 1
EndSplineSet
EndChar

StartChar: bracketright
Encoding: 93 93 203
Width: 316
VWidth: 0
Flags: HW
LayerCount: 2
Fore
SplineSet
37 -55 m 2
 173 -55 l 2
 203 -55 209 -46 214 -12 c 0
 233 115 281 381 285 418 c 0
 303 528 304 533 304 537 c 0
 304 555 292 560 265 560 c 2
 133 560 l 2
 113 560 103 548 103 539 c 0
 103 529 111 521 129 521 c 2
 254 521 l 1
 225 341 196 162 166 -17 c 1
 41 -17 l 2
 26 -17 19 -27 19 -38 c 0
 19 -47 24 -55 37 -55 c 2
EndSplineSet
EndChar

StartChar: breve
Encoding: 728 728 204
Width: 205
VWidth: 0
Flags: HW
AnchorPoint: "top" 84 333 mark 0
LayerCount: 2
Fore
SplineSet
21 513 m 0
 21 466 52 433 104 433 c 0
 155 433 210 463 210 523 c 0
 210 531 202 535 194 535 c 0
 185 535 175 531 174 523 c 0
 169 484 137 465 108 465 c 0
 82 465 58 481 58 511 c 0
 58 515 59 519 59 523 c 0
 59 534 49 539 40 539 c 0
 25 539 21 529 21 513 c 0
EndSplineSet
EndChar

StartChar: brokenbar
Encoding: 166 166 205
Width: 350
VWidth: 0
Flags: HW
LayerCount: 2
Fore
SplineSet
210 333 m 0
 230 333 238 350 241 373 c 0
 249 436 266 503 266 570 c 0
 266 598 257 624 236 624 c 0
 221 624 211 608 207 588 c 0
 190 518 175 388 175 375 c 0
 175 352 189 333 210 333 c 0
157 -45 m 0
 174 -45 180 -38 183 -20 c 0
 190 23 213 62 213 200 c 0
 213 226 203 246 182 246 c 0
 162 246 150 228 147 207 c 0
 136 133 116 73 116 0 c 0
 116 -37 128 -45 157 -45 c 0
EndSplineSet
EndChar

StartChar: bullet
Encoding: 8226 8226 206
Width: 383
VWidth: 0
Flags: HW
LayerCount: 2
Fore
SplineSet
175 96 m 0
 243 96 285 157 285 229 c 0
 285 275 264 296 219 296 c 0
 152 296 98 252 98 186 c 0
 98 130 123 96 175 96 c 0
EndSplineSet
EndChar

StartChar: bulletoperator
Encoding: 8729 8729 207
Width: 205
VWidth: 0
Flags: HW
LayerCount: 2
Fore
SplineSet
107 425 m 0
 134 425 153 444 153 471 c 0
 153 494 136 509 113 509 c 0
 87 509 69 490 69 463 c 0
 69 440 85 425 107 425 c 0
EndSplineSet
EndChar

StartChar: c
Encoding: 99 99 208
Width: 281
VWidth: 0
Flags: HW
PickledData: "(dp1
S'com.typemytype.robofont.layerData'
p2
(dp3
s."
AnchorPoint: "top" 222 333 basechar 0
AnchorPoint: "bot" 146 0 basechar 0
LayerCount: 2
Fore
SplineSet
25 125 m 0
 25 44 82 -7 171 -7 c 0
 263 -7 327 49 359 105 c 0
 362 109 363 114 363 118 c 0
 363 130 355 141 346 141 c 0
 342 141 338 139 335 135 c 0
 296 76 244 36 176 36 c 0
 114 36 83 71 83 135 c 0
 85 237 157 284 193 284 c 2
 194 284 l 2
 218 284 230 268 230 248 c 0
 230 233 224 216 211 200 c 0
 209 198 209 196 209 193 c 0
 209 185 217 175 227 175 c 0
 232 175 237 177 242 182 c 0
 256 194 274 216 274 257 c 0
 274 301 241 330 193 330 c 0
 108 330 25 229 25 125 c 0
EndSplineSet
EndChar

StartChar: caron
Encoding: 711 711 210
Width: 295
VWidth: 0
Flags: HW
AnchorPoint: "top" 134 333 mark 0
LayerCount: 2
Fore
SplineSet
308 612 m 0
 308 619 301 625 289 625 c 0
 276 625 267 615 252 593 c 2
 158 454 l 1
 139 574 148 625 126 625 c 0
 116 625 105 621 105 597 c 0
 105 594 105 591 105 588 c 2
 117 493 l 2
 124 438 122 415 152 415 c 0
 182 415 193 444 216 476 c 2
 301 595 l 2
 304 600 308 606 308 612 c 0
EndSplineSet
EndChar

StartChar: caron.alt
Encoding: 65536 -1 211
Width: 600
VWidth: 0
Flags: HW
AnchorPoint: "caron.alt" 54 333 mark 0
LayerCount: 2
Fore
SplineSet
63 431 m 0
 62 430 62 429 62 428 c 0
 62 423 67 419 71 419 c 0
 90 419 170 483 197 527 c 0
 202 535 204 542 204 549 c 0
 204 565 191 577 178 577 c 0
 169 577 160 572 153 559 c 0
 118 492 72 448 63 431 c 0
EndSplineSet
EndChar

StartChar: cedilla
Encoding: 184 184 216
Width: 404
VWidth: 0
Flags: HW
AnchorPoint: "bot" 251 77 mark 0
LayerCount: 2
Fore
SplineSet
182 -122 m 2
 226 7 l 2
 226 8 227 10 227 11 c 0
 227 15 224 18 220 18 c 0
 217 18 214 16 211 12 c 2
 136 -106 l 2
 131 -114 129 -121 129 -127 c 0
 129 -141 139 -150 151 -150 c 0
 162 -150 175 -142 182 -122 c 2
EndSplineSet
EndChar

StartChar: cent
Encoding: 162 162 217
Width: 306
VWidth: 0
Flags: HW
LayerCount: 2
Fore
SplineSet
161 55 m 1
 115 58 84 98 84 142 c 0
 84 204 125 259 179 271 c 1
 173 201 167 125 161 55 c 1
164 -58 m 0
 185 -58 184 -57 187 -43 c 2
 194 14 l 1
 219 14 265 40 294 63 c 0
 298 67 300 70 300 75 c 0
 300 87 294 98 287 98 c 0
 286 98 284 98 283 97 c 0
 262 81 223 59 197 56 c 1
 205 130 208 203 212 273 c 1
 285 268 239 196 272 196 c 0
 291 196 301 224 301 249 c 0
 301 292 258 314 215 317 c 1
 216 330 217 344 217 356 c 0
 217 369 215 378 209 378 c 0
 200 378 189 376 187 353 c 2
 184 317 l 1
 98 313 32 236 32 141 c 0
 32 66 75 10 149 10 c 0
 152 10 154 10 157 10 c 1
 157 -14 155 -18 155 -30 c 0
 155 -44 156 -58 164 -58 c 0
EndSplineSet
EndChar

StartChar: circumflex
Encoding: 710 710 218
Width: 295
VWidth: 0
Flags: HW
AnchorPoint: "top" 144 333 mark 0
LayerCount: 2
Fore
SplineSet
231 424 m 0
 235 423 238 422 242 422 c 0
 258 422 270 433 268 453 c 2
 257 571 l 2
 253 613 256 635 217 635 c 0
 190 635 177 615 154 584 c 0
 115 531 83 488 66 465 c 0
 59 453 55 450 55 442 c 0
 55 432 63 427 73 427 c 0
 84 427 97 433 106 445 c 0
 110 451 113 457 210 597 c 1
 223 455 208 432 231 424 c 0
EndSplineSet
EndChar

StartChar: colon
Encoding: 58 58 219
Width: 240
VWidth: 0
Flags: HW
LayerCount: 2
Fore
SplineSet
186 229 m 0
 221 229 240 250 240 283 c 0
 240 313 224 329 192 329 c 0
 159 329 140 308 140 273 c 0
 140 243 155 229 186 229 c 0
166 0 m 0
 200 0 219 21 219 55 c 0
 219 85 203 100 172 100 c 0
 138 100 120 79 120 45 c 0
 120 14 135 0 166 0 c 0
EndSplineSet
EndChar

StartChar: comma
Encoding: 44 44 220
Width: 290
VWidth: 0
Flags: HW
LayerCount: 2
Fore
SplineSet
95 -61 m 0
 133 -50 188 16 188 71 c 0
 188 89 181 104 162 104 c 0
 140 104 131 94 129 80 c 0
 124 34 105 -12 83 -49 c 0
 82 -51 81 -53 81 -55 c 0
 81 -59 85 -62 90 -62 c 0
 92 -62 93 -62 95 -61 c 0
EndSplineSet
EndChar

StartChar: copyright
Encoding: 169 169 221
Width: 612
VWidth: 0
Flags: HW
LayerCount: 2
Fore
SplineSet
290 10 m 0
 416 10 566 103 566 292 c 0
 566 426 482 500 346 500 c 0
 173 500 36 397 36 227 c 0
 36 86 144 10 290 10 c 0
291 50 m 0
 174 50 85 106 85 223 c 0
 85 363 190 460 333 460 c 0
 445 460 518 402 518 291 c 0
 518 155 429 50 291 50 c 0
288 115 m 0
 333 115 369 136 397 156 c 0
 400 159 403 162 403 168 c 0
 403 183 396 192 390 192 c 0
 389 192 389 192 388 192 c 0
 368 180 337 160 305 160 c 0
 262 160 247 196 247 234 c 0
 247 284 263 354 319 354 c 0
 333 354 336 342 336 329 c 0
 336 318 334 305 334 299 c 0
 334 285 337 282 349 282 c 0
 372 282 386 309 386 336 c 0
 386 375 354 398 313 398 c 0
 239 398 185 319 185 228 c 0
 185 167 213 115 288 115 c 0
EndSplineSet
EndChar

StartChar: currency
Encoding: 164 164 222
Width: 503
VWidth: 0
Flags: HW
LayerCount: 2
Fore
SplineSet
238 200 m 0
 180 200 151 242 151 308 c 0
 151 396 197 482 287 482 c 0
 332 482 358 449 358 399 c 0
 358 395 357 390 357 385 c 0
 357 305 323 200 238 200 c 0
141 186 m 1
 164 165 194 154 227 154 c 0
 255 154 284 162 308 175 c 1
 326 163 355 119 382 119 c 0
 393 119 406 132 406 144 c 0
 405 148 400 156 389 167 c 2
 348 205 l 1
 392 249 418 322 418 390 c 0
 418 419 414 444 403 464 c 1
 450 496 l 2
 463 504 472 511 472 522 c 0
 472 533 463 543 454 543 c 0
 428 543 397 510 376 498 c 1
 353 518 321 527 287 527 c 0
 253 527 220 519 193 502 c 1
 146 543 l 2
 137 552 128 556 123 556 c 0
 112 556 99 542 99 531 c 0
 99 521 105 516 115 507 c 2
 155 471 l 1
 117 429 96 359 96 300 c 0
 96 269 102 240 114 219 c 1
 54 178 l 2
 41 168 32 163 32 152 c 0
 32 141 41 130 50 130 c 0
 55 130 63 134 73 140 c 0
 94 151 121 171 141 186 c 1
EndSplineSet
EndChar

StartChar: d
Encoding: 100 100 223
Width: 395
VWidth: 0
Flags: HW
PickledData: "(dp1
S'com.typemytype.robofont.layerData'
p2
(dp3
s."
AnchorPoint: "caron.alt" 521 555 basechar 0
AnchorPoint: "mid" 298 456 basechar 0
LayerCount: 2
Fore
SplineSet
408 595 m 0
 425 595 436 581 436 552 c 0
 436 457 365 341 277 211 c 1
 297 351 334 595 408 595 c 0
124 40 m 0
 98 40 78 63 78 111 c 0
 78 186 139 284 214 284 c 0
 222 284 230 282 239 280 c 1
 226 182 l 2
 215 111 176 40 124 40 c 0
27 103 m 0
 27 39 63 -5 118 -5 c 0
 172 -5 215 43 231 93 c 1
 238 29 280 -3 324 -3 c 0
 395 -3 437 42 469 82 c 0
 472 85 476 93 475 99 c 0
 475 111 465 119 455 118 c 0
 449 118 447 115 442 110 c 0
 417 74 376 42 328 42 c 0
 295 42 273 68 273 130 c 0
 273 135 273 140 273 146 c 0
 348 256 486 434 486 584 c 0
 486 590 485 595 485 601 c 0
 483 630 459 657 425 657 c 0
 333 657 270 516 241 318 c 1
 228 324 215 326 202 326 c 0
 115 326 27 209 27 103 c 0
EndSplineSet
EndChar

StartChar: dagger
Encoding: 8224 8224 224
Width: 394
VWidth: 0
Flags: HW
LayerCount: 2
Fore
SplineSet
335 496 m 0
 335 508 330 511 320 511 c 0
 293 511 292 470 253 326 c 1
 159 326 l 2
 146 326 139 321 139 303 c 0
 139 285 140 284 155 284 c 2
 244 284 l 1
 181 1 172 -23 171 -53 c 0
 171 -64 176 -78 180 -78 c 0
 211 -78 210 -49 223 0 c 2
 290 284 l 1
 393 284 l 2
 410 284 413 286 413 306 c 0
 413 322 408 326 399 326 c 2
 298 326 l 1
 318 403 324 432 332 471 c 0
 334 483 335 490 335 496 c 0
EndSplineSet
EndChar

StartChar: daggerdbl
Encoding: 8225 8225 225
Width: 394
VWidth: 0
Flags: HW
LayerCount: 2
Fore
SplineSet
176 -78 m 0
 207 -78 210 -53 256 132 c 1
 360 132 l 2
 377 132 380 133 380 153 c 0
 380 169 375 173 367 173 c 2
 266 173 l 1
 290 284 l 1
 393 284 l 2
 410 284 413 286 413 306 c 0
 413 322 408 326 399 326 c 2
 298 326 l 1
 320 418 332 450 332 489 c 0
 332 506 329 510 326 510 c 0
 292 510 295 480 253 326 c 1
 159 326 l 2
 146 326 139 321 139 303 c 0
 139 285 140 284 155 284 c 2
 244 284 l 1
 217 173 l 1
 126 173 l 2
 113 173 105 168 105 150 c 0
 105 132 107 132 123 132 c 2
 208 132 l 1
 177 2 168 -23 167 -53 c 0
 167 -64 172 -78 176 -78 c 0
EndSplineSet
EndChar

StartChar: degree
Encoding: 176 176 229
Width: 251
VWidth: 0
Flags: HW
LayerCount: 2
Fore
SplineSet
111 367 m 0
 176 367 223 413 223 479 c 0
 223 523 193 551 150 551 c 0
 88 551 29 512 29 450 c 0
 29 398 61 367 111 367 c 0
111 404 m 0
 84 404 66 424 66 450 c 0
 66 490 101 516 141 516 c 0
 165 516 181 497 181 475 c 0
 181 437 149 404 111 404 c 0
EndSplineSet
EndChar

StartChar: dieresis
Encoding: 168 168 230
Width: 350
VWidth: 0
Flags: HW
AnchorPoint: "top" 164 333 mark 0
LayerCount: 2
Fore
SplineSet
273 455 m 0
 298 455 312 472 312 497 c 0
 312 520 299 532 277 532 c 0
 252 532 239 515 239 490 c 0
 239 467 251 455 273 455 c 0
86 455 m 0
 111 455 126 472 126 497 c 0
 126 520 113 532 91 532 c 0
 66 532 53 515 53 490 c 0
 53 467 64 455 86 455 c 0
EndSplineSet
EndChar

StartChar: divide
Encoding: 247 247 231
Width: 381
VWidth: 0
Flags: HW
LayerCount: 2
Fore
SplineSet
255 305 m 0
 279 305 293 321 293 344 c 0
 293 366 282 377 259 377 c 0
 235 377 222 361 222 338 c 0
 222 316 233 305 255 305 c 0
217 58 m 0
 242 58 256 74 256 98 c 0
 256 119 244 130 221 130 c 0
 197 130 184 115 184 91 c 0
 184 70 196 58 217 58 c 0
124 197 m 2
 349 197 l 2
 365 197 373 206 373 223 c 0
 373 233 364 239 352 239 c 2
 127 239 l 2
 111 239 97 232 97 217 c 0
 97 203 109 197 124 197 c 2
EndSplineSet
EndChar

StartChar: dollar
Encoding: 36 36 233
Width: 593
VWidth: 0
Flags: HW
LayerCount: 2
Fore
SplineSet
336 41 m 1
 378 268 l 1
 412 243 465 218 465 166 c 0
 465 99 400 51 336 41 c 1
333 346 m 1
 294 370 247 399 247 460 c 0
 247 519 293 549 369 552 c 1
 359 495 344 412 333 346 c 1
571 475 m 0
 571 543 495 581 432 592 c 1
 438 631 l 2
 440 641 441 650 441 658 c 0
 441 669 438 677 427 677 c 0
 405 677 390 665 387 646 c 2
 378 595 l 1
 278 593 195 553 195 457 c 0
 195 377 268 327 325 296 c 1
 277 42 l 1
 197 44 142 75 142 136 c 0
 142 177 174 208 215 208 c 0
 229 208 236 216 236 228 c 0
 236 244 227 250 208 250 c 0
 137 250 94 205 94 135 c 0
 94 41 179 7 271 1 c 1
 268 -13 264 -32 264 -48 c 0
 264 -64 268 -76 280 -76 c 0
 304 -76 314 -73 318 -60 c 2
 330 1 l 1
 436 16 515 64 515 166 c 0
 515 247 441 284 385 316 c 1
 425 549 l 1
 456 545 516 514 520 478 c 0
 522 458 535 448 548 448 c 0
 560 448 571 457 571 475 c 0
EndSplineSet
EndChar

StartChar: dotaccent
Encoding: 729 729 234
Width: 240
VWidth: 0
Flags: HW
AnchorPoint: "top" 104 333 mark 0
LayerCount: 2
Fore
SplineSet
119 425 m 0
 146 425 165 444 165 471 c 0
 165 494 148 509 125 509 c 0
 99 509 81 490 81 463 c 0
 81 440 97 425 119 425 c 0
EndSplineSet
EndChar

StartChar: dotlessi
Encoding: 305 305 235
Width: 183
VWidth: 0
Flags: HW
PickledData: "(dp1
S'com.typemytype.robofont.layerData'
p2
(dp3
s."
AnchorPoint: "top" 172 333 basechar 0
LayerCount: 2
Fore
SplineSet
48 88 m 0
 48 37 83 -1 136 -1 c 0
 182 -1 236 27 283 83 c 0
 290 92 291 96 292 101 c 0
 292 111 282 120 270 120 c 0
 266 119 262 116 260 113 c 0
 218 65 178 42 149 42 c 0
 122 42 105 62 105 100 c 0
 105 150 147 259 172 308 c 0
 173 310 174 311 174 313 c 0
 174 321 163 326 152 326 c 0
 132 326 122 323 110 301 c 0
 83 250 48 147 48 88 c 0
EndSplineSet
EndChar

StartChar: dotlessj
Encoding: 567 567 236
Width: 228
VWidth: 0
Flags: HW
AnchorPoint: "top" 166 333 basechar 0
LayerCount: 2
Fore
SplineSet
95 -166 m 0
 74 -166 65 -135 65 -76 c 0
 65 12 96 119 109 155 c 1
 150 113 154 60 154 -7 c 0
 154 -92 130 -166 95 -166 c 0
19 -56 m 0
 19 -135 32 -209 91 -209 c 0
 161 -209 198 -111 199 -19 c 0
 199 41 189 105 165 135 c 1
 241 141 314 149 314 205 c 0
 314 213 313 216 306 212 c 0
 268 195 219 173 115 173 c 1
 151 254 l 2
 154 261 172 296 172 315 c 0
 172 322 169 327 162 327 c 0
 139 327 127 316 114 285 c 0
 81 208 29 93 21 -1 c 0
 20 -19 19 -38 19 -56 c 0
EndSplineSet
EndChar

StartChar: e
Encoding: 101 101 239
Width: 263
VWidth: 0
Flags: HW
PickledData: "(dp1
S'com.typemytype.robofont.layerData'
p2
(dp3
s."
AnchorPoint: "top" 202 333 basechar 0
AnchorPoint: "ogonek" 208 0 basechar 0
LayerCount: 2
Fore
SplineSet
77 148 m 1
 77 208 125 289 186 289 c 0
 205 289 225 276 225 248 c 0
 225 193 131 152 77 148 c 1
25 132 m 0
 25 49 82 -6 158 -6 c 0
 244 -6 324 51 354 91 c 0
 357 95 358 99 358 103 c 0
 358 114 349 122 342 122 c 0
 340 122 339 122 338 121 c 0
 282 66 218 36 167 36 c 0
 121 36 86 60 78 109 c 1
 196 125 270 184 270 255 c 0
 270 302 229 331 182 331 c 0
 92 331 25 239 25 132 c 0
EndSplineSet
EndChar

StartChar: eight
Encoding: 56 56 248
Width: 417
VWidth: 0
Flags: HW
LayerCount: 2
Fore
SplineSet
216 282 m 1
 196 298 158 340 158 375 c 0
 158 420 191 455 246 455 c 0
 295 455 320 430 320 390 c 0
 320 347 261 299 216 282 c 1
198 37 m 0
 153 37 112 62 112 107 c 0
 112 171 175 216 210 234 c 1
 227 214 287 173 287 118 c 0
 287 66 251 37 198 37 c 0
371 405 m 0
 371 464 311 495 257 495 c 0
 179 495 110 452 110 375 c 0
 110 325 141 294 179 261 c 1
 126 225 62 189 62 100 c 0
 62 28 123 -5 197 -5 c 0
 272 -5 339 39 339 109 c 0
 339 180 283 223 243 256 c 1
 306 286 371 316 371 405 c 0
EndSplineSet
EndChar

StartChar: emdash
Encoding: 8212 8212 252
Width: 383
VWidth: 0
Flags: HW
LayerCount: 2
Fore
SplineSet
54 142 m 2
 318 142 l 2
 341 142 351 153 351 177 c 0
 351 193 340 198 319 198 c 2
 63 198 l 2
 40 198 32 191 32 168 c 0
 32 151 40 142 54 142 c 2
EndSplineSet
EndChar

StartChar: emptyset
Encoding: 8709 8709 253
Width: 347
VWidth: 0
Flags: HW
LayerCount: 2
Fore
SplineSet
215 112 m 1
 299 366 l 1
 317 354 325 326 325 293 c 0
 325 218 282 117 215 112 c 1
174 119 m 1
 152 131 146 159 146 190 c 0
 146 273 196 356 257 371 c 1
 174 119 l 1
146 -102 m 2
 204 76 l 1
 302 81 359 196 359 289 c 0
 359 338 343 381 310 399 c 1
 373 592 l 2
 374 596 375 600 375 603 c 0
 375 616 367 624 357 624 c 0
 348 624 338 617 333 601 c 2
 270 408 l 1
 180 405 102 294 102 192 c 0
 102 140 123 98 162 83 c 1
 105 -91 l 2
 104 -93 104 -95 104 -97 c 0
 104 -109 115 -116 126 -116 c 0
 134 -116 142 -112 146 -102 c 2
EndSplineSet
EndChar

StartChar: endash
Encoding: 8211 8211 254
Width: 338
VWidth: 0
Flags: HW
LayerCount: 2
Fore
SplineSet
54 131 m 2
 274 131 l 2
 304 131 317 148 317 177 c 0
 317 201 300 208 276 208 c 2
 64 208 l 2
 35 208 22 197 22 168 c 0
 22 147 34 131 54 131 c 2
EndSplineSet
EndChar

StartChar: eng
Encoding: 331 331 255
Width: 363
VWidth: 0
Flags: HW
LayerCount: 2
Fore
SplineSet
204 -44 m 1
 178 -130 136 -271 46 -271 c 0
 28 -271 23 -253 23 -241 c 0
 27 -185 130 -103 204 -44 c 1
281 269 m 0
 284 269 284 266 284 261 c 0
 284 231 252 129 239 80 c 2
 215 5 l 1
 172 -26 115 -67 68 -111 c 0
 18 -158 -20 -202 -20 -253 c 0
 -20 -289 -3 -314 39 -314 c 0
 99 -314 153 -277 180 -229 c 0
 210 -175 233 -100 261 -12 c 1
 337 38 376 64 425 88 c 0
 438 96 443 105 443 113 c 0
 443 123 434 131 423 131 c 0
 421 131 419 130 417 130 c 0
 365 106 328 73 271 32 c 1
 283 71 l 2
 292 108 323 222 346 289 c 0
 347 291 347 294 347 296 c 0
 347 311 333 328 304 328 c 0
 267 328 166 265 91 77 c 1
 94 137 128 271 141 305 c 0
 141 306 142 307 142 308 c 0
 142 316 129 326 116 326 c 0
 99 326 95 315 87 298 c 0
 60 235 43 131 43 63 c 0
 43 57 43 51 43 46 c 0
 43 19 46 0 68 0 c 0
 94 0 103 4 116 35 c 0
 171 189 265 269 281 269 c 0
EndSplineSet
EndChar

StartChar: equal
Encoding: 61 61 257
Width: 583
VWidth: 0
Flags: HW
LayerCount: 2
Fore
SplineSet
183 254 m 2
 488 259 l 2
 532 260 562 270 562 294 c 0
 562 314 556 318 547 320 c 0
 534 323 520 324 505 324 c 0
 462 324 411 315 333 315 c 0
 325 315 317 315 309 315 c 2
 220 317 l 2
 217 317 215 317 212 317 c 0
 178 317 147 311 147 286 c 0
 147 267 163 254 183 254 c 2
289 163 m 0
 259 163 225 165 192 165 c 0
 159 165 129 160 129 142 c 0
 129 117 145 108 177 108 c 2
 448 108 l 2
 513 108 544 118 544 154 c 0
 544 162 539 165 526 165 c 2
 413 165 l 2
 387 165 343 163 289 163 c 0
EndSplineSet
EndChar

StartChar: estimated
Encoding: 8494 8494 258
Width: 368
VWidth: 0
Flags: HW
LayerCount: 2
Fore
SplineSet
128 248 m 1
 128 370 169 424 217 424 c 0
 255 424 279 393 279 357 c 0
 279 309 236 251 128 248 c 1
220 110 m 0
 305 110 359 155 388 193 c 0
 391 198 392 201 392 206 c 0
 392 216 383 225 376 225 c 0
 375 225 374 225 373 224 c 0
 321 161 266 133 220 133 c 0
 165 133 128 166 128 233 c 1
 269 233 332 280 332 348 c 0
 332 392 296 436 215 436 c 0
 143 436 63 389 63 258 c 0
 63 255 63 251 63 248 c 0
 66 140 168 110 220 110 c 0
EndSplineSet
EndChar

StartChar: eth
Encoding: 240 240 259
Width: 354
VWidth: 0
Flags: HW
LayerCount: 2
Fore
SplineSet
182 43 m 0
 176 42 170 42 165 42 c 0
 107 42 74 80 74 141 c 0
 74 243 149 296 223 297 c 0
 250 297 278 290 301 276 c 1
 302 269 302 262 302 255 c 0
 302 172 260 52 182 43 c 0
306 312 m 1
 283 331 252 340 217 340 c 0
 127 340 22 272 22 142 c 0
 22 57 79 -1 160 -1 c 0
 165 -1 169 0 174 0 c 0
 296 10 357 131 357 311 c 0
 357 373 348 424 329 460 c 1
 397 492 l 2
 407 496 414 501 414 512 c 0
 414 523 409 533 398 533 c 0
 395 533 391 532 388 530 c 2
 308 494 l 1
 263 551 196 567 147 567 c 0
 120 567 118 556 118 546 c 0
 118 536 128 525 142 525 c 0
 171 525 223 514 260 472 c 1
 181 436 l 2
 173 433 167 429 167 421 c 0
 167 410 176 398 188 398 c 0
 190 398 193 399 196 400 c 2
 283 439 l 1
 297 413 306 377 306 312 c 1
EndSplineSet
EndChar

StartChar: exclam
Encoding: 33 33 261
Width: 355
VWidth: 0
Flags: HW
LayerCount: 2
Fore
SplineSet
191 20 m 0
 212 20 232 39 232 65 c 0
 232 89 222 101 197 101 c 0
 175 101 155 82 155 55 c 0
 155 31 166 20 191 20 c 0
385 609 m 0
 385 626 374 638 348 638 c 0
 326 638 312 622 306 599 c 2
 207 198 l 2
 205 190 210 184 216 184 c 0
 220 184 226 187 229 195 c 2
 361 530 l 2
 374 562 385 589 385 609 c 0
EndSplineSet
EndChar

StartChar: f
Encoding: 102 102 263
Width: 241
VWidth: 0
Flags: HW
PickledData: "(dp1
S'com.typemytype.robofont.layerData'
p2
(dp3
s."
AnchorPoint: "top" 302 658 basechar 0
LayerCount: 2
Fore
SplineSet
93 222 m 1
 109 302 187 613 275 613 c 0
 298 613 303 588 303 568 c 0
 303 473 174 321 93 222 c 1
109 -164 m 0
 79 -164 78 -91 78 -37 c 0
 78 -33 78 -30 78 -26 c 0
 78 54 82 105 91 186 c 1
 123 138 167 69 167 -17 c 0
 167 -85 149 -164 109 -164 c 0
28 -13 m 0
 28 -97 37 -209 110 -209 c 0
 182 -209 212 -111 212 -10 c 0
 212 58 177 131 149 166 c 1
 164 162 181 160 198 160 c 0
 263 160 329 191 334 236 c 0
 335 244 335 250 330 250 c 0
 326 250 314 250 300 235 c 0
 277 213 248 190 198 190 c 0
 181 190 141 199 129 210 c 1
 246 335 352 462 352 576 c 0
 352 623 329 658 291 658 c 0
 111 658 28 176 28 -13 c 0
EndSplineSet
EndChar

StartChar: f_f
Encoding: 65537 -1 264
Width: 476
VWidth: 0
Flags: HW
LayerCount: 2
Fore
SplineSet
329 213 m 1
 343 278 396 517 489 517 c 0
 510 517 520 502 520 483 c 0
 520 403 373 240 329 213 c 1
117 226 m 1
 111 229 104 238 101 246 c 0
 101 266 163 571 251 571 c 0
 273 571 277 546 277 526 c 0
 277 433 171 292 117 226 c 1
356 -100 m 0
 324 -100 324 -5 324 73 c 2
 325 173 l 1
 344 166 l 1
 347 154 396 43 396 -33 c 0
 396 -68 387 -100 356 -100 c 0
109 -147 m 0
 86 -147 85 -92 85 -44 c 0
 85 -37 85 -30 85 -23 c 0
 85 53 93 127 95 205 c 1
 125 158 160 77 160 -27 c 2
 160 -29 l 2
 160 -67 159 -147 109 -147 c 0
28 -13 m 0
 28 -99 36 -196 109 -196 c 0
 188 -196 213 -113 213 -27 c 0
 213 64 187 127 159 171 c 1
 176 165 199 162 222 162 c 0
 245 162 268 165 283 172 c 1
 282 120 279 69 279 18 c 0
 279 -63 292 -146 354 -146 c 0
 427 -146 441 -76 441 -27 c 0
 441 47 414 112 392 161 c 1
 403 160 414 160 425 160 c 0
 497 160 579 174 579 247 c 1
 577 261 l 1
 528 220 455 198 407 198 c 0
 392 198 378 200 365 202 c 1
 436 248 564 393 564 504 c 0
 564 546 542 573 505 573 c 0
 382 573 314 376 287 206 c 1
 263 200 240 197 219 197 c 0
 192 197 168 201 147 208 c 1
 213 284 333 422 333 555 c 0
 333 597 311 624 274 624 c 0
 93 624 28 176 28 -13 c 0
EndSplineSet
Ligature2: "'liga' Standard Ligatures lookup 10 subtable" f f
EndChar

StartChar: firsttonechinese
Encoding: 713 713 269
Width: 205
VWidth: 0
Flags: HW
AnchorPoint: "top" 114 333 mark 0
LayerCount: 2
Fore
SplineSet
25 600 m 2
 194 616 l 2
 207 618 212 628 212 637 c 0
 211 644 208 651 195 651 c 0
 194 651 193 651 192 651 c 2
 25 640 l 2
 10 639 6 629 6 619 c 0
 6 607 11 600 21 600 c 0
 22 600 24 600 25 600 c 2
EndSplineSet
EndChar

StartChar: five
Encoding: 53 53 270
Width: 395
VWidth: 0
Flags: HW
LayerCount: 2
Fore
SplineSet
29 105 m 0
 29 38 92 -10 177 -10 c 0
 266 -10 340 45 340 155 c 0
 340 235 279 282 179 282 c 0
 165 282 150 281 135 279 c 1
 174 417 l 2
 175 417 176 417 177 417 c 0
 237 417 298 396 337 396 c 0
 363 396 379 405 379 434 c 0
 379 463 368 471 360 471 c 0
 357 471 354 470 353 468 c 0
 332 450 315 444 297 444 c 0
 265 444 228 461 155 461 c 0
 91 461 149 452 95 278 c 0
 93 273 93 268 93 264 c 0
 93 248 106 242 118 242 c 0
 129 242 140 243 151 243 c 0
 223 243 286 225 286 152 c 0
 286 67 237 27 177 27 c 0
 120 27 80 57 80 92 c 0
 80 125 104 139 104 149 c 0
 104 158 97 164 68 164 c 0
 40 164 29 141 29 105 c 0
EndSplineSet
EndChar

StartChar: florin
Encoding: 402 402 272
Width: 449
VWidth: 0
Flags: HW
LayerCount: 2
Fore
SplineSet
162 -30 m 0
 306 -30 306 109 344 313 c 1
 458 313 l 2
 469 313 475 318 475 328 c 0
 475 339 471 344 458 344 c 2
 347 344 l 1
 364 439 372 582 467 582 c 0
 503 582 510 558 527 558 c 0
 540 558 550 574 550 590 c 0
 550 612 511 625 478 625 c 0
 343 625 324 479 298 344 c 0
 295 344 291 344 288 344 c 0
 268 344 248 346 232 346 c 0
 208 346 199 343 199 328 c 0
 199 315 202 313 217 313 c 2
 293 313 l 1
 273 195 l 2
 259 114 249 12 167 12 c 0
 136 12 139 37 130 37 c 0
 118 37 107 20 107 4 c 0
 107 -17 134 -30 162 -30 c 0
EndSplineSet
EndChar

StartChar: four
Encoding: 52 52 274
Width: 417
VWidth: 0
Flags: HW
LayerCount: 2
Fore
SplineSet
228 -19 m 0
 235 -19 245 -13 248 3 c 2
 264 83 l 1
 279 83 308 82 330 82 c 0
 335 82 341 82 345 82 c 0
 359 83 366 99 366 111 c 0
 366 118 363 124 358 124 c 0
 347 124 334 122 275 122 c 1
 280 145 318 278 318 315 c 0
 318 323 312 329 298 329 c 0
 278 329 272 320 269 306 c 0
 261 278 230 142 229 132 c 1
 216 124 191 122 167 122 c 0
 142 122 118 124 113 124 c 1
 140 202 203 386 227 464 c 0
 227 465 228 467 228 468 c 0
 228 478 217 487 205 487 c 0
 195 487 185 481 180 465 c 0
 151 388 89 202 64 126 c 0
 59 113 57 103 57 96 c 0
 57 83 65 79 79 79 c 0
 129 79 157 82 217 82 c 1
 202 9 l 2
 201 6 201 3 201 1 c 0
 201 -13 212 -19 225 -19 c 0
 226 -19 227 -19 228 -19 c 0
EndSplineSet
Substitution2: "'sups' Superscript lookup 5 subtable" foursuperior
EndChar

StartChar: fraction
Encoding: 8260 8260 276
Width: 217
VWidth: 0
Flags: HW
LayerCount: 2
Fore
SplineSet
29 5 m 2
 279 564 l 2
 281 569 282 574 282 579 c 0
 282 594 272 605 260 605 c 0
 251 605 240 598 232 580 c 2
 -20 28 l 2
 -24 20 -25 13 -25 7 c 0
 -25 -9 -14 -17 -2 -17 c 0
 10 -17 22 -10 29 5 c 2
EndSplineSet
EndChar

StartChar: g
Encoding: 103 103 277
Width: 342
VWidth: 0
Flags: HW
PickledData: "(dp1
S'com.typemytype.robofont.layerData'
p2
(dp3
s."
AnchorPoint: "top" 242 333 basechar 0
LayerCount: 2
Fore
SplineSet
46 -277 m 0
 28 -277 22 -260 22 -249 c 0
 22 -192 118 -110 188 -52 c 1
 168 -138 136 -277 46 -277 c 0
128 54 m 0
 92 54 83 86 83 109 c 0
 83 193 145 283 236 283 c 0
 241 283 245 282 250 282 c 1
 216 158 l 2
 207 125 185 54 128 54 c 0
30 95 m 0
 30 44 70 9 117 9 c 0
 155 9 193 31 215 72 c 1
 196 -2 l 1
 156 -33 102 -74 57 -118 c 0
 13 -162 -21 -209 -21 -251 c 0
 -21 -292 -3 -321 43 -321 c 0
 103 -321 146 -290 178 -236 c 0
 210 -183 231 -107 248 -20 c 1
 320 30 353 57 400 81 c 0
 412 89 416 98 416 105 c 0
 416 116 407 124 395 124 c 0
 393 124 391 123 389 123 c 0
 339 99 304 66 250 25 c 1
 309 282 l 2
 311 295 298 304 283 304 c 0
 278 304 273 303 269 301 c 2
 269 301 270 303 270 306 c 0
 270 314 261 325 223 325 c 0
 122 325 30 213 30 95 c 0
EndSplineSet
EndChar

StartChar: germandbls
Encoding: 223 223 284
Width: 438
VWidth: 0
Flags: HW
LayerCount: 2
Fore
SplineSet
166 37 m 0
 166 15 182 11 236 11 c 0
 335 11 421 80 421 155 c 0
 421 234 377 277 281 285 c 1
 367 287 432 343 432 424 c 0
 432 496 364 536 285 536 c 0
 258 536 234 532 213 523 c 0
 52 458 32 207 32 -23 c 0
 32 -37 47 -44 65 -44 c 0
 87 -44 103 -33 103 -13 c 0
 103 8 103 29 103 54 c 0
 103 223 104 490 286 490 c 0
 332 490 375 471 375 421 c 0
 375 349 284 311 214 311 c 0
 191 311 188 302 188 289 c 0
 188 275 195 269 206 264 c 0
 254 243 365 256 365 167 c 0
 365 103 296 62 224 62 c 0
 215 62 202 63 195 63 c 0
 173 63 166 58 166 37 c 0
EndSplineSet
EndChar

StartChar: grave
Encoding: 96 96 285
Width: 208
VWidth: 0
Flags: HW
PickledData: "(dp1
S'com.typemytype.robofont.layerData'
p2
(dp3
s."
AnchorPoint: "top" 144 333 mark 0
LayerCount: 2
Fore
SplineSet
146 436 m 0
 122 487 96 541 73 594 c 0
 69 604 59 609 48 609 c 0
 30 609 11 596 11 575 c 0
 11 567 14 557 22 546 c 0
 49 509 84 464 116 426 c 0
 123 417 130 411 139 411 c 0
 145 411 148 417 148 425 c 0
 148 429 147 433 146 436 c 0
EndSplineSet
EndChar

StartChar: greater
Encoding: 62 62 286
Width: 404
VWidth: 0
Flags: HW
LayerCount: 2
Fore
SplineSet
62 71 m 0
 62 57 75 46 91 46 c 0
 129 46 166 68 198 85 c 0
 283 129 377 151 377 214 c 0
 377 259 302 277 205 317 c 0
 165 333 107 361 77 361 c 0
 64 361 57 353 57 334 c 0
 57 321 64 313 81 308 c 0
 101 301 302 230 334 211 c 1
 298 186 125 103 87 93 c 0
 72 89 62 81 62 71 c 0
EndSplineSet
EndChar

StartChar: greaterequal
Encoding: 8805 8805 287
Width: 545
VWidth: 0
Flags: HW
LayerCount: 2
Fore
SplineSet
266 44 m 0
 242 44 214 46 186 46 c 0
 159 46 135 42 135 27 c 0
 135 6 147 -1 175 -1 c 2
 393 -1 l 2
 447 -1 472 7 472 37 c 0
 472 44 469 46 458 46 c 2
 363 46 l 2
 341 46 308 44 266 44 c 0
EndSplineSet
Refer: 286 62 N 1 0 0 1 89 58 2
EndChar

StartChar: guillemotleft
Encoding: 171 171 288
Width: 492
VWidth: 0
Flags: HW
LayerCount: 2
Fore
SplineSet
423 40 m 0
 427 38 432 36 437 36 c 0
 448 36 458 42 458 54 c 0
 458 78 438 84 421 99 c 2
 319 187 l 1
 442 273 l 2
 456 283 469 291 469 306 c 0
 469 322 459 330 447 330 c 0
 428 330 413 311 389 293 c 0
 353 268 279 236 279 182 c 0
 279 162 289 150 300 140 c 0
 342 99 375 66 423 40 c 0
227 40 m 0
 231 38 236 36 241 36 c 0
 252 36 262 42 262 54 c 0
 262 78 241 84 225 99 c 2
 122 187 l 1
 245 273 l 2
 259 283 272 291 272 306 c 0
 272 322 262 330 250 330 c 0
 231 330 215 311 191 293 c 0
 156 268 83 236 83 182 c 0
 83 162 92 150 103 140 c 0
 146 99 178 67 227 40 c 0
EndSplineSet
EndChar

StartChar: guillemotright
Encoding: 187 187 289
Width: 492
VWidth: 0
Flags: HW
LayerCount: 2
Fore
SplineSet
312 36 m 0
 322 36 341 46 361 62 c 0
 382 77 405 97 424 117 c 0
 442 135 469 152 469 182 c 0
 469 219 437 242 412 256 c 0
 393 268 374 283 360 293 c 0
 337 309 319 330 301 330 c 0
 289 330 279 322 279 306 c 0
 279 291 292 283 306 273 c 2
 430 187 l 1
 327 99 l 2
 310 84 290 78 290 54 c 0
 290 43 300 36 312 36 c 0
114 36 m 0
 125 36 144 46 165 62 c 0
 185 77 208 97 228 117 c 0
 246 135 272 152 272 182 c 0
 272 219 240 242 215 256 c 0
 196 268 177 283 163 293 c 0
 140 309 123 330 104 330 c 0
 92 330 83 322 83 306 c 0
 83 291 96 283 109 273 c 2
 232 187 l 1
 130 99 l 2
 113 84 93 78 93 54 c 0
 93 43 103 36 114 36 c 0
EndSplineSet
EndChar

StartChar: guilsinglleft
Encoding: 8249 8249 290
Width: 372
VWidth: 0
Flags: HW
LayerCount: 2
Fore
SplineSet
303 40 m 0
 314 40 322 46 322 60 c 0
 322 74 313 83 300 89 c 2
 122 180 l 1
 280 273 l 2
 294 282 312 292 312 313 c 0
 312 321 303 327 292 327 c 0
 289 327 286 326 279 324 c 0
 229 298 121 232 104 220 c 0
 83 204 65 195 65 171 c 0
 65 157 83 146 115 130 c 2
 292 42 l 2
 297 40 299 40 303 40 c 0
EndSplineSet
EndChar

StartChar: guilsinglright
Encoding: 8250 8250 291
Width: 372
VWidth: 0
Flags: HW
LayerCount: 2
Fore
SplineSet
109 40 m 0
 113 40 115 41 122 43 c 0
 172 68 281 134 297 146 c 0
 318 162 336 171 336 195 c 0
 336 209 318 221 286 236 c 2
 109 324 l 2
 104 326 102 327 98 327 c 0
 87 327 79 320 79 306 c 0
 79 292 89 283 102 277 c 2
 280 187 l 1
 122 94 l 2
 107 85 89 74 89 54 c 0
 89 46 99 40 109 40 c 0
EndSplineSet
EndChar

StartChar: h
Encoding: 104 104 292
Width: 381
VWidth: 0
Flags: HW
AnchorPoint: "top" 270 602 basechar 0
AnchorPoint: "mid" 123 456 basechar 0
LayerCount: 2
Fore
SplineSet
263 602 m 0
 286 602 294 587 294 567 c 0
 294 506 190 349 101 265 c 1
 115 424 202 602 263 602 c 0
42 71 m 0
 42 32 43 -3 76 -3 c 0
 96 -3 108 14 117 32 c 0
 154 112 202 176 238 209 c 0
 274 243 290 257 296 257 c 0
 298 257 299 256 299 254 c 0
 299 237 244 146 244 63 c 0
 244 27 262 0 301 0 c 0
 302 0 302 0 303 -0 c 0
 365 0 418 42 455 70 c 0
 467 79 471 88 471 98 c 0
 471 113 459 126 454 126 c 0
 448 126 444 122 437 115 c 0
 422 100 369 46 323 46 c 0
 308 46 300 54 300 71 c 0
 300 123 342 228 359 267 c 0
 361 273 362 279 362 285 c 0
 362 307 347 326 323 326 c 0
 293 326 180 251 91 72 c 1
 98 212 l 1
 286 376 345 503 349 580 c 0
 349 625 322 656 275 656 c 0
 111 656 42 308 42 114 c 0
 42 111 42 109 42 106 c 0
 42 97 42 84 42 71 c 0
EndSplineSet
EndChar

StartChar: hungarumlaut
Encoding: 733 733 295
Width: 350
VWidth: 0
Flags: HW
AnchorPoint: "top" 94 333 mark 0
LayerCount: 2
Fore
SplineSet
185 478 m 0
 221 519 263 558 297 598 c 0
 305 607 308 615 308 622 c 0
 308 640 288 651 271 651 c 0
 262 651 254 648 250 641 c 0
 218 581 166 532 166 479 c 0
 166 472 168 469 171 469 c 0
 174 469 179 472 185 478 c 0
71 478 m 0
 107 522 176 571 176 623 c 0
 176 641 156 654 140 654 c 0
 131 654 123 651 120 642 c 0
 96 582 52 528 52 479 c 0
 52 472 55 469 58 469 c 0
 62 469 66 472 71 478 c 0
EndSplineSet
EndChar

StartChar: hyphen
Encoding: 45 45 296
Width: 333
VWidth: 0
Flags: HW
LayerCount: 2
Fore
SplineSet
110 187 m 2
 285 204 l 2
 305 205 307 212 307 222 c 0
 307 233 299 235 288 235 c 2
 110 228 l 2
 97 228 88 222 88 208 c 0
 88 192 98 187 110 187 c 2
EndSplineSet
EndChar

StartChar: i
Encoding: 105 105 297
Width: 205
VWidth: 0
Flags: HW
PickledData: "(dp1
S'com.typemytype.robofont.layerData'
p2
(dp3
s."
AnchorPoint: "ogonek" 0 0 basechar 0
LayerCount: 2
Fore
SplineSet
191 412 m 0
 218 412 235 430 235 454 c 0
 235 472 221 485 198 485 c 0
 171 485 151 470 151 446 c 0
 151 423 166 412 191 412 c 0
38 88 m 0
 38 37 72 -1 125 -1 c 0
 171 -1 222 27 269 83 c 0
 275 92 276 96 277 101 c 0
 277 111 267 120 255 120 c 0
 251 119 248 116 245 113 c 0
 202 65 162 42 133 42 c 0
 107 42 91 60 91 94 c 0
 91 147 131 248 157 297 c 0
 159 301 161 305 161 309 c 0
 161 319 148 327 132 327 c 0
 119 327 113 319 103 301 c 0
 76 250 38 147 38 88 c 0
EndSplineSet
EndChar

StartChar: infinity
Encoding: 8734 8734 308
Width: 653
VWidth: 0
Flags: HW
LayerCount: 2
Fore
SplineSet
574 254 m 0
 574 204 559 160 506 160 c 0
 454 160 420 194 388 248 c 1
 408 272 458 323 509 323 c 0
 547 323 574 298 574 254 c 0
340 248 m 1
 315 225 272 157 211 157 c 0
 172 157 150 184 150 225 c 0
 150 277 178 335 235 335 c 0
 286 335 325 278 340 248 c 1
242 376 m 0
 152 376 108 305 108 219 c 0
 108 157 146 113 203 113 c 0
 209 113 215 113 221 114 c 0
 286 124 323 174 360 218 c 1
 390 172 433 115 507 115 c 0
 577 115 614 176 614 253 c 0
 614 319 581 370 517 370 c 0
 446 370 408 326 369 282 c 1
 339 326 309 376 242 376 c 0
EndSplineSet
EndChar

StartChar: integral
Encoding: 8747 8747 309
Width: 470
VWidth: 0
Flags: HW
LayerCount: 2
Fore
SplineSet
167 -35 m 0
 310 -35 310 94 351 298 c 0
 379 441 388 574 475 574 c 0
 508 574 517 550 536 550 c 0
 551 550 561 567 561 583 c 0
 561 605 520 619 486 619 c 0
 349 619 330 493 294 293 c 0
 262 109 268 10 171 10 c 0
 142 10 146 34 135 34 c 0
 120 34 109 16 109 0 c 0
 109 -21 138 -35 167 -35 c 0
EndSplineSet
EndChar

StartChar: j
Encoding: 106 106 312
Width: 228
VWidth: 0
Flags: HW
LayerCount: 2
Fore
SplineSet
192 404 m 0
 224 404 245 422 245 455 c 0
 245 481 228 493 200 493 c 0
 167 493 144 475 144 446 c 0
 144 417 160 404 192 404 c 0
95 -166 m 0
 74 -166 65 -135 65 -76 c 0
 65 12 96 119 109 155 c 1
 150 113 154 60 154 -7 c 0
 154 -92 130 -166 95 -166 c 0
19 -56 m 0
 19 -135 32 -209 91 -209 c 0
 161 -209 198 -111 199 -19 c 0
 199 41 189 105 165 135 c 1
 241 141 314 149 314 205 c 0
 314 213 313 216 306 212 c 0
 268 195 219 173 115 173 c 1
 151 254 l 2
 154 261 172 296 172 315 c 0
 172 322 169 327 162 327 c 0
 139 327 127 316 114 285 c 0
 81 208 29 93 21 -1 c 0
 20 -19 19 -38 19 -56 c 0
EndSplineSet
EndChar

StartChar: k
Encoding: 107 107 315
Width: 419
VWidth: 0
Flags: HW
AnchorPoint: "bot" 204 0 basechar 0
LayerCount: 2
Fore
SplineSet
110 259 m 1
 137 404 205 589 270 591 c 0
 289 591 297 579 297 560 c 0
 297 484 163 293 110 259 c 1
408 254 m 0
 408 301 380 329 337 329 c 0
 285 329 244 310 96 74 c 1
 96 107 100 162 106 209 c 1
 192 275 347 433 347 570 c 0
 347 607 324 645 288 645 c 0
 174 645 66 420 50 112 c 1
 50 8 63 -3 77 -3 c 0
 125 -3 242 273 321 280 c 0
 322 280 323 280 324 280 c 0
 351 280 356 257 356 243 c 0
 356 199 224 138 224 61 c 0
 224 6 265 -3 298 -3 c 0
 354 -3 431 36 487 120 c 0
 491 125 492 131 492 137 c 0
 492 149 485 161 474 161 c 1
 474 161 395 42 309 42 c 0
 292 42 279 53 280 71 c 0
 287 130 408 164 408 254 c 0
EndSplineSet
EndChar

StartChar: kgreenlandic
Encoding: 312 312 318
Width: 419
VWidth: 0
Flags: HW
LayerCount: 2
Fore
SplineSet
186 374 m 0
 193 374 197 372 197 366 c 0
 197 343 136 279 110 259 c 1
 120 315 149 374 186 374 c 0
408 254 m 0
 408 301 380 329 337 329 c 0
 285 329 244 310 96 74 c 1
 96 107 100 162 106 209 c 1
 196 278 248 343 248 381 c 0
 248 404 230 417 191 417 c 0
 77 417 66 249 50 112 c 1
 50 8 63 -3 77 -3 c 0
 125 -3 242 273 321 280 c 0
 322 280 323 280 324 280 c 0
 351 280 356 257 356 243 c 0
 356 199 224 138 224 61 c 0
 224 6 265 -3 298 -3 c 0
 354 -3 431 36 487 120 c 0
 491 125 492 131 492 137 c 0
 492 149 485 161 474 161 c 1
 474 161 395 42 309 42 c 0
 292 42 279 53 280 71 c 0
 287 130 408 164 408 254 c 0
EndSplineSet
EndChar

StartChar: l
Encoding: 108 108 319
Width: 226
VWidth: 0
Flags: HW
AnchorPoint: "caron.alt" 402 391 basechar 0
AnchorPoint: "mid" 362 335 basechar 0
LayerCount: 2
Fore
SplineSet
110 270 m 1
 124 358 199 600 272 600 c 0
 291 600 299 588 299 569 c 0
 299 475 178 339 110 270 c 1
140 -0 m 0
 193 -0 245 26 298 85 c 0
 304 92 307 99 307 105 c 0
 307 117 297 124 288 124 c 0
 284 124 281 123 278 120 c 0
 244 80 196 42 157 42 c 0
 113 42 99 77 99 133 c 0
 99 159 102 190 107 223 c 1
 210 302 349 460 349 585 c 0
 349 623 328 657 289 657 c 0
 154 657 62 350 48 179 c 0
 47 165 46 152 46 139 c 0
 46 50 73 -0 140 -0 c 0
EndSplineSet
EndChar

StartChar: less
Encoding: 60 60 324
Width: 404
VWidth: 0
Flags: HW
LayerCount: 2
Fore
SplineSet
320 53 m 0
 335 53 345 60 345 70 c 0
 345 81 337 98 309 104 c 0
 230 121 116 167 78 213 c 1
 102 233 327 317 351 325 c 0
 369 331 371 333 371 346 c 0
 371 361 364 374 348 374 c 0
 345 374 342 374 338 373 c 0
 241 333 165 300 112 275 c 0
 60 250 30 230 30 211 c 0
 30 183 63 152 107 127 c 0
 181 85 285 53 320 53 c 0
EndSplineSet
EndChar

StartChar: lessequal
Encoding: 8804 8804 325
Width: 534
VWidth: 0
Flags: HW
LayerCount: 2
Fore
SplineSet
242 44 m 0
 218 44 190 46 162 46 c 0
 135 46 111 42 111 27 c 0
 111 6 124 -1 151 -1 c 2
 369 -1 l 2
 423 -1 448 7 448 37 c 0
 448 44 445 46 434 46 c 2
 339 46 l 2
 317 46 284 44 242 44 c 0
EndSplineSet
Refer: 324 60 N 1 0 0 1 79 44 2
EndChar

StartChar: logicalnot
Encoding: 172 172 327
Width: 416
VWidth: 0
Flags: HW
LayerCount: 2
Fore
SplineSet
312 84 m 0
 329 84 337 101 338 121 c 2
 345 236 l 2
 345 248 336 254 321 254 c 2
 105 254 l 2
 84 254 66 244 66 228 c 0
 66 212 81 206 100 206 c 2
 295 206 l 1
 290 115 l 2
 290 97 297 84 312 84 c 0
EndSplineSet
EndChar

StartChar: lozenge
Encoding: 9674 9674 328
Width: 420
VWidth: 0
Flags: HW
LayerCount: 2
Fore
SplineSet
170 253 m 1
 214 318 260 391 295 443 c 1
 367 248 l 1
 323 183 287 111 250 59 c 1
 170 253 l 1
336 474 m 2
 329 492 318 503 305 503 c 0
 295 503 283 496 272 479 c 0
 217 396 171 330 120 253 c 1
 208 31 l 2
 215 13 227 1 240 1 c 0
 250 1 261 8 272 24 c 0
 328 108 372 171 423 248 c 1
 336 474 l 2
EndSplineSet
EndChar

StartChar: lslash
Encoding: 322 322 329
Width: 226
VWidth: 0
Flags: HW
LayerCount: 2
Fore
SplineSet
172 161 m 2
 181 165 185 170 185 179 c 0
 185 189 178 197 167 197 c 0
 164 197 160 197 157 195 c 2
 -2 116 l 2
 -10 112 -14 105 -14 99 c 0
 -14 89 -6 81 4 81 c 0
 5 81 9 81 14 83 c 2
 172 161 l 2
EndSplineSet
Refer: 319 108 N 1 0 0 1 0 0 2
EndChar

StartChar: m
Encoding: 109 109 330
Width: 487
VWidth: 0
Flags: HW
PickledData: "(dp1
S'com.typemytype.robofont.layerData'
p2
(dp3
s."
AnchorPoint: "top" 332 333 basechar 0
LayerCount: 2
Fore
SplineSet
371 59 m 0
 371 15 401 -3 435 -3 c 0
 477 -3 530 26 578 90 c 0
 580 92 581 95 581 97 c 0
 581 106 568 116 559 116 c 0
 556 116 555 115 553 113 c 0
 529 86 482 41 444 41 c 0
 443 41 443 41 442 41 c 0
 426 41 420 53 420 70 c 0
 420 122 474 228 474 283 c 0
 474 307 461 322 440 322 c 0
 396 322 320 257 260 82 c 1
 279 168 301 239 301 280 c 0
 301 302 294 317 273 317 c 0
 235 317 162 253 87 65 c 1
 112 199 128 272 137 303 c 0
 138 307 139 310 139 313 c 0
 139 325 130 329 124 330 c 0
 112 330 97 323 86 284 c 0
 76 249 59 183 42 55 c 0
 41 48 41 42 41 36 c 0
 41 14 47 -3 67 -3 c 0
 94 -3 98 2 124 63 c 0
 158 148 231 263 249 263 c 0
 252 263 252 261 252 257 c 0
 252 230 218 95 214 32 c 0
 214 30 214 29 214 27 c 0
 214 2 232 3 237 -3 c 1
 246 -3 261 -2 277 40 c 0
 311 124 389 262 412 262 c 0
 417 262 419 256 419 251 c 0
 419 219 371 127 371 59 c 0
EndSplineSet
EndChar

StartChar: macron
Encoding: 175 175 331
Width: 205
VWidth: 0
Flags: HW
AnchorPoint: "top" 118 333 mark 0
AnchorPoint: "mid" 119 462 mark 0
LayerCount: 2
Fore
SplineSet
35 431 m 2
 204 447 l 2
 217 449 222 459 222 468 c 0
 221 475 218 482 205 482 c 0
 204 482 203 482 202 482 c 2
 35 471 l 2
 20 470 16 460 16 450 c 0
 16 438 21 431 31 431 c 0
 32 431 34 431 35 431 c 2
EndSplineSet
EndChar

StartChar: minus
Encoding: 8722 8722 333
Width: 416
VWidth: 0
Flags: HW
LayerCount: 2
Fore
SplineSet
107 204 m 2
 313 204 l 2
 334 204 343 215 343 236 c 0
 343 249 333 256 317 256 c 2
 113 256 l 2
 91 256 72 246 72 228 c 0
 72 211 87 204 107 204 c 2
EndSplineSet
EndChar

StartChar: mu
Encoding: 956 956 334
Width: 347
VWidth: 0
Flags: HW
LayerCount: 2
Fore
SplineSet
226 66 m 1
 226 31 238 -4 282 -4 c 0
 333 -4 396 49 420 90 c 0
 423 94 424 98 424 102 c 0
 424 110 418 117 406 117 c 0
 400 117 392 115 383 103 c 0
 370 85 325 35 290 35 c 0
 277 35 266 49 266 81 c 0
 266 86 266 91 267 97 c 0
 275 182 311 278 319 305 c 0
 320 306 320 308 320 309 c 0
 320 317 310 326 297 326 c 0
 283 326 271 319 262 284 c 2
 229 159 l 2
 204 65 165 38 126 37 c 0
 97 37 82 58 82 93 c 0
 82 96 82 100 82 103 c 0
 86 172 105 240 134 313 c 0
 134 322 126 328 111 328 c 0
 97 328 89 327 84 316 c 0
 66 277 54 235 45 194 c 2
 -9 -55 l 2
 -12 -68 1 -81 15 -81 c 0
 25 -81 36 -73 41 -52 c 2
 56 18 l 1
 70 3 92 -5 120 -5 c 0
 170 -5 202 23 226 66 c 1
EndSplineSet
EndChar

StartChar: multiply
Encoding: 215 215 335
Width: 438
VWidth: 0
Flags: HW
LayerCount: 2
Fore
SplineSet
321 64 m 0
 334 64 343 73 343 86 c 0
 343 99 336 108 328 116 c 2
 273 175 l 1
 330 235 l 2
 337 242 341 249 341 260 c 0
 341 275 332 287 318 287 c 0
 310 287 304 283 298 277 c 2
 236 208 l 1
 172 276 l 2
 165 284 159 287 152 287 c 0
 138 287 129 274 129 259 c 0
 129 248 133 242 140 235 c 2
 200 175 l 1
 142 117 l 2
 134 108 127 100 127 87 c 0
 127 74 136 65 149 65 c 0
 163 65 169 71 178 79 c 2
 236 142 l 1
 292 79 l 2
 300 70 309 64 321 64 c 0
EndSplineSet
EndChar

StartChar: n
Encoding: 110 110 336
Width: 363
VWidth: 0
Flags: HW
PickledData: "(dp1
S'com.typemytype.robofont.layerData'
p2
(dp3
s."
AnchorPoint: "bot" 184 0 basechar 0
AnchorPoint: "top" 252 333 basechar 0
LayerCount: 2
Fore
SplineSet
232 59 m 0
 232 18 261 -4 302 -4 c 0
 340 -4 403 19 451 102 c 0
 452 104 452 105 452 107 c 0
 452 117 440 130 428 130 c 0
 423 130 418 127 414 121 c 0
 378 61 345 42 320 40 c 0
 317 40 315 40 312 40 c 0
 293 40 284 49 284 64 c 0
 284 66 285 68 285 71 c 0
 292 130 323 222 346 289 c 0
 347 291 347 294 347 296 c 0
 347 311 333 328 304 328 c 0
 267 328 166 262 91 74 c 1
 94 147 125 266 141 305 c 0
 141 306 142 307 142 308 c 0
 142 316 129 326 116 326 c 0
 99 326 95 315 87 298 c 0
 60 235 43 131 43 63 c 0
 43 57 43 51 43 46 c 0
 43 19 46 0 68 0 c 0
 94 0 103 2 116 32 c 0
 170 190 265 269 281 269 c 0
 283 269 284 267 284 264 c 0
 284 239 232 134 232 59 c 0
EndSplineSet
EndChar

StartChar: nine
Encoding: 57 57 341
Width: 417
VWidth: 0
Flags: HW
LayerCount: 2
Fore
SplineSet
240 328 m 0
 297 328 339 290 339 222 c 0
 339 156 302 103 217 103 c 0
 156 103 126 151 126 203 c 0
 126 263 166 328 240 328 c 0
242 371 m 0
 141 371 73 291 73 190 c 0
 73 114 142 63 216 63 c 0
 253 63 292 76 324 105 c 1
 295 34 216 -58 99 -110 c 0
 87 -117 80 -126 80 -139 c 0
 80 -149 90 -157 106 -157 c 0
 116 -157 123 -155 133 -150 c 0
 251 -92 384 33 392 205 c 0
 392 208 392 210 392 213 c 0
 392 299 331 371 242 371 c 0
EndSplineSet
EndChar

StartChar: numbersign
Encoding: 35 35 345
Width: 426
VWidth: 0
Flags: HW
LayerCount: 2
Fore
SplineSet
214 218 m 1
 231 259 248 298 265 338 c 1
 382 338 l 1
 352 251 347 239 340 219 c 1
 318 219 305 218 214 218 c 1
80 -11 m 0
 101 -11 110 -1 118 14 c 0
 143 62 164 109 187 157 c 1
 230 157 276 158 318 158 c 1
 271 24 272 27 272 13 c 0
 272 -4 281 -10 301 -10 c 0
 320 -10 329 -1 335 15 c 0
 355 63 374 110 392 158 c 1
 399 158 l 2
 444 158 476 168 476 206 c 0
 476 215 469 219 456 220 c 2
 413 220 l 1
 427 259 441 298 454 338 c 0
 457 338 460 338 463 338 c 0
 521 338 550 348 550 387 c 0
 550 396 544 399 530 399 c 2
 476 399 l 1
 484 454 520 508 520 537 c 0
 520 551 517 558 505 558 c 0
 435 558 427 458 404 399 c 1
 367 399 328 399 291 399 c 1
 302 427 348 525 348 535 c 0
 348 550 346 556 327 556 c 0
 305 556 282 535 273 512 c 2
 222 399 l 1
 159 399 121 399 121 367 c 0
 121 344 134 338 182 338 c 0
 186 338 191 338 195 338 c 2
 142 219 l 1
 137 219 131 219 126 219 c 0
 81 219 57 214 57 188 c 0
 57 169 88 159 112 159 c 0
 115 159 118 160 121 160 c 1
 110 137 73 73 59 22 c 0
 57 15 56 10 56 6 c 0
 56 -8 66 -11 80 -11 c 0
EndSplineSet
EndChar

StartChar: o
Encoding: 111 111 346
Width: 302
VWidth: 0
Flags: HW
PickledData: "(dp1
S'com.typemytype.robofont.layerData'
p2
(dp3
s."
AnchorPoint: "top" 222 333 basechar 0
AnchorPoint: "ogonek" 134 12 basechar 0
LayerCount: 2
Fore
SplineSet
224 158 m 1
 221 108 187 41 135 41 c 0
 89 41 77 78 77 117 c 0
 77 198 133 286 195 286 c 0
 222 286 226 260 226 241 c 0
 226 231 225 223 225 223 c 1
 207 218 196 202 196 187 c 0
 196 173 205 160 224 158 c 1
119 -3 m 0
 218 -3 262 97 271 158 c 1
 314 158 385 193 417 252 c 0
 419 255 419 257 419 260 c 0
 419 271 408 282 399 282 c 0
 396 282 392 280 390 277 c 0
 351 225 325 209 277 197 c 1
 279 209 279 220 279 230 c 0
 279 295 248 330 194 330 c 0
 104 330 23 217 23 113 c 0
 23 48 58 -3 119 -3 c 0
EndSplineSet
Substitution2: "Single Substitution lookup 9 subtable" ordmasculine
EndChar

StartChar: oe
Encoding: 339 339 353
Width: 457
VWidth: 0
Flags: HW
AnchorPoint: "ogonek" 401 0 basechar 0
LayerCount: 2
Fore
SplineSet
270 148 m 1
 270 208 318 289 379 289 c 0
 397 289 417 276 417 249 c 0
 417 192 326 152 270 148 c 1
161 294 m 0
 201 294 223 261 223 188 c 0
 223 131 215 33 143 33 c 0
 86 33 69 98 69 142 c 0
 69 235 113 294 161 294 c 0
241 70 m 1
 262 22 297 -6 351 -6 c 0
 437 -6 517 51 546 91 c 0
 550 95 551 100 551 104 c 0
 551 114 541 122 535 122 c 0
 533 122 532 122 531 121 c 0
 475 66 411 36 360 36 c 0
 314 36 279 60 271 109 c 1
 389 125 462 184 462 255 c 0
 462 302 422 331 375 331 c 0
 324 331 280 300 252 255 c 1
 242 301 210 331 165 331 c 0
 85 331 23 247 23 146 c 0
 23 67 61 -4 140 -4 c 0
 190 -4 229 28 241 70 c 1
EndSplineSet
EndChar

StartChar: ogonek
Encoding: 731 731 354
Width: 183
VWidth: 0
Flags: HW
PickledData: "(dp1
S'com.typemytype.robofont.layerData'
p2
(dp3
s."
AnchorPoint: "ogonek" 116 0 mark 0
LayerCount: 2
Fore
SplineSet
51 -94 m 0
 51 -121 66 -146 112 -146 c 0
 113 -146 114 -146 115 -146 c 0
 143 -146 166 -133 183 -114 c 0
 187 -110 189 -105 189 -98 c 0
 189 -89 183 -75 176 -82 c 0
 161 -95 145 -108 121 -108 c 0
 120 -108 119 -108 118 -108 c 0
 103 -108 94 -97 94 -82 c 0
 94 -53 113 -20 135 3 c 1
 100 3 l 1
 85 -17 51 -59 51 -94 c 0
EndSplineSet
EndChar

StartChar: one
Encoding: 49 49 359
Width: 333
VWidth: 0
Flags: HW
LayerCount: 2
Fore
SplineSet
171 10 m 0
 202 170 249 417 255 448 c 0
 256 455 257 461 257 467 c 0
 257 482 253 492 241 492 c 0
 240 492 238 492 236 492 c 0
 201 485 157 471 129 462 c 0
 118 459 113 448 113 437 c 0
 113 426 118 414 129 414 c 0
 131 414 132 415 134 415 c 0
 147 418 186 429 202 435 c 1
 171 274 167 242 121 22 c 0
 121 20 120 18 120 16 c 0
 120 2 132 -3 145 -3 c 0
 157 -3 169 2 171 10 c 0
EndSplineSet
Substitution2: "'sups' Superscript lookup 5 subtable" onesuperior
EndChar

StartChar: onehalf
Encoding: 189 189 360
Width: 967
VWidth: 0
Flags: HW
LayerCount: 2
Fore
SplineSet
171 215 m 0
 202 375 249 622 255 653 c 0
 256 660 257 666 257 672 c 0
 257 687 253 697 241 697 c 0
 240 697 238 697 236 697 c 0
 201 690 157 676 129 667 c 0
 118 664 113 653 113 642 c 0
 113 631 118 619 129 619 c 0
 131 619 132 620 134 620 c 0
 147 624 186 634 202 640 c 1
 171 479 167 447 121 228 c 0
 121 226 120 224 120 222 c 0
 120 208 133 202 146 202 c 0
 158 202 169 207 171 215 c 0
324 5 m 2
 574 564 l 2
 576 569 577 574 577 579 c 0
 577 594 567 605 555 605 c 0
 546 605 535 598 527 580 c 2
 275 28 l 2
 271 20 270 13 270 7 c 0
 270 -9 281 -17 293 -17 c 0
 305 -17 317 -10 324 5 c 2
675 36 m 0
 640 36 628 66 628 85 c 0
 628 102 639 120 661 120 c 0
 699 120 729 92 751 78 c 1
 734 53 702 36 675 36 c 0
771 449 m 0
 838 449 863 392 863 329 c 0
 863 235 818 150 779 109 c 1
 749 129 704 164 657 164 c 0
 611 164 583 128 583 84 c 0
 583 35 625 -3 677 -3 c 0
 719 -3 753 25 782 50 c 1
 807 30 832 0 869 0 c 0
 906 0 918 33 918 65 c 0
 918 75 911 75 910 73 c 0
 905 66 892 50 879 50 c 0
 848 50 830 68 810 81 c 1
 857 132 915 227 915 347 c 0
 915 442 849 495 772 495 c 0
 701 495 627 462 627 392 c 0
 627 357 649 327 671 327 c 0
 683 327 692 335 692 343 c 0
 692 357 675 377 675 396 c 0
 675 436 720 449 771 449 c 0
EndSplineSet
Ligature2: "'frac' Diagonal Fractions lookup 6 subtable" one slash two
EndChar

StartChar: onequarter
Encoding: 188 188 361
Width: 967
VWidth: 0
Flags: HW
LayerCount: 2
Fore
SplineSet
171 215 m 0
 202 375 249 622 255 653 c 0
 256 660 257 666 257 672 c 0
 257 687 253 697 241 697 c 0
 240 697 238 697 236 697 c 0
 201 690 157 676 129 667 c 0
 118 664 113 653 113 642 c 0
 113 631 118 619 129 619 c 0
 131 619 132 620 134 620 c 0
 147 624 186 634 202 640 c 1
 171 479 167 447 121 228 c 0
 121 226 120 224 120 222 c 0
 120 208 133 202 146 202 c 0
 158 202 169 207 171 215 c 0
344 5 m 2
 594 564 l 2
 596 569 597 574 597 579 c 0
 597 594 588 605 576 605 c 0
 567 605 556 598 547 580 c 2
 296 28 l 2
 292 20 290 12 290 6 c 0
 290 -9 301 -17 313 -17 c 0
 325 -17 338 -10 344 5 c 2
779 -19 m 0
 786 -19 796 -13 799 3 c 2
 815 83 l 1
 829 83 859 82 881 82 c 0
 887 82 892 82 896 82 c 0
 910 83 916 99 916 111 c 0
 916 118 914 124 909 124 c 0
 897 124 883 122 826 122 c 1
 831 145 869 278 869 315 c 0
 869 323 863 329 849 329 c 0
 829 329 823 320 819 306 c 0
 812 278 781 142 779 132 c 1
 767 124 742 122 718 122 c 0
 693 122 669 124 664 124 c 1
 690 202 753 386 777 464 c 0
 778 466 778 467 778 469 c 0
 778 479 767 487 756 487 c 0
 746 487 736 481 730 465 c 0
 702 388 640 202 615 126 c 0
 610 113 608 103 608 96 c 0
 608 83 615 79 629 79 c 0
 680 79 708 82 768 82 c 1
 752 9 l 2
 752 7 751 4 751 2 c 0
 751 -13 763 -19 776 -19 c 0
 777 -19 778 -19 779 -19 c 0
EndSplineSet
Ligature2: "'frac' Diagonal Fractions lookup 6 subtable" one slash four
EndChar

StartChar: ordfeminine
Encoding: 170 170 364
Width: 317
VWidth: 0
Flags: HW
LayerCount: 2
Fore
SplineSet
121 323 m 0
 95 323 89 350 89 371 c 0
 89 428 128 510 189 510 c 0
 193 510 196 510 200 509 c 1
 180 413 l 2
 174 385 160 323 121 323 c 0
243 282 m 0
 292 282 344 347 339 362 c 2
 334 382 l 2
 333 385 332 387 330 387 c 0
 319 387 292 332 252 332 c 0
 231 332 231 356 231 371 c 0
 231 422 250 462 250 508 c 0
 250 527 241 527 233 527 c 0
 194 527 214 549 194 549 c 0
 182 549 163 549 137 537 c 0
 84 514 30 443 30 358 c 0
 30 315 56 283 96 283 c 0
 140 283 179 316 191 339 c 1
 202 310 213 282 243 282 c 0
EndSplineSet
EndChar

StartChar: ordmasculine
Encoding: 186 186 365
Width: 273
VWidth: 0
Flags: HW
LayerCount: 2
Fore
SplineSet
121 284 m 0
 196 284 237 365 237 445 c 0
 237 500 215 547 165 547 c 0
 88 547 34 482 34 403 c 0
 34 338 61 284 121 284 c 0
131 320 m 0
 90 320 78 355 78 391 c 0
 78 435 99 511 148 511 c 0
 185 511 193 467 193 437 c 0
 193 396 175 320 131 320 c 0
EndSplineSet
EndChar

StartChar: oslash
Encoding: 248 248 366
Width: 306
VWidth: 0
Flags: HW
LayerCount: 2
Fore
SplineSet
23 -31 m 0
 122 106 229 243 401 361 c 0
 408 366 411 372 411 378 c 0
 411 385 406 392 397 392 c 0
 392 392 385 389 377 384 c 0
 210 267 108 119 12 -14 c 0
 6 -22 3 -29 3 -33 c 0
 3 -38 6 -40 10 -40 c 0
 14 -40 19 -37 23 -31 c 0
EndSplineSet
Refer: 346 111 N 1 0 0 1 0 0 2
EndChar

StartChar: p
Encoding: 112 112 369
Width: 319
VWidth: 0
Flags: HW
PickledData: "(dp1
S'com.typemytype.robofont.layerData'
p2
(dp3
s."
AnchorPoint: "top" 222 333 basechar 0
LayerCount: 2
Fore
SplineSet
148 52 m 0
 129 52 105 55 78 78 c 1
 83 111 101 284 195 284 c 0
 218.69710901 284 233.684416768 261.079470391 240.893038055 232.929592006 c 1
 237.390658482 232.343576369 232.006827219 229.917780097 225 221 c 0
 217 210 214 198 214 187 c 0
 214 180 215 173 217 167 c 0
 220.579984634 153.19148784 226.513981714 141.998545063 237.209799348 134.357541491 c 1
 223.004033492 89.3887032552 192.070302453 52 148 52 c 0
294 210 m 0
 294 273 271 328 190 328 c 0
 76 328 40 173 22 86 c 0
 18 62 0 -63 -7 -152 c 1
 -7 -152 -7 -155 -7 -158 c 0
 -7 -175 -6 -223 3 -223 c 0
 19 -223 51 -213 51 -200 c 0
 51 -186 50 -172 50 -159 c 0
 50 -78 58 -6 69 32 c 1
 88 13 125 0 143 0 c 0
 207.913396635 0 255.774970262 57.0018083398 278.763365964 123.057118788 c 0
 280.145650984 123.019127659 281.55763588 123 283 123 c 0
 318 123 383 150 413 190 c 0
 418 198 423 207 423 218 c 0
 423 229 420 232 416 232 c 0
 410 232 401 224 394 218 c 0
 355.175590214 185.969861927 309.7565907 176.549745782 291.57567645 176.023702243 c 1
 293.178980103 187.53055427 294 198.935143321 294 210 c 0
EndSplineSet
EndChar

StartChar: paragraph
Encoding: 182 182 370
Width: 447
VWidth: 0
Flags: HW
LayerCount: 2
Fore
SplineSet
213 -82 m 2
 322 541 l 1
 335 541 346 541 355 541 c 0
 387 541 400 539 400 521 c 0
 400 518 400 515 399 511 c 2
 301 -81 l 2
 301 -83 301 -85 301 -87 c 0
 301 -100 309 -106 319 -106 c 0
 332 -106 348 -95 352 -74 c 2
 436 418 l 2
 442 455 454 489 454 519 c 0
 454 584 375 585 294 585 c 0
 187 585 77 561 77 460 c 0
 77 377 140 344 232 344 c 1
 166 -75 l 2
 163 -91 176 -98 188 -98 c 0
 199 -98 211 -92 213 -82 c 2
EndSplineSet
EndChar

StartChar: parenleft
Encoding: 40 40 371
Width: 470
VWidth: 0
Flags: HW
LayerCount: 2
Fore
SplineSet
355 -121 m 0
 379 -121 423 -118 423 -96 c 0
 423 -74 393 -81 352 -74 c 0
 248 -56 207 33 207 147 c 0
 207 298 282 476 425 579 c 0
 456 602 472 621 472 634 c 0
 472 642 467 646 456 646 c 0
 450 646 443 645 434 641 c 0
 245 556 136 339 136 140 c 0
 136 -14 214 -121 355 -121 c 0
EndSplineSet
EndChar

StartChar: parenright
Encoding: 41 41 372
Width: 470
VWidth: 0
Flags: HW
LayerCount: 2
Fore
SplineSet
118 -121 m 0
 296 -121 408 48 408 263 c 0
 408 422 341 573 206 641 c 0
 197 645 190 646 184 646 c 0
 172 646 164 639 164 628 c 0
 164 616 175 599 198 579 c 0
 292 498 337 372 337 250 c 0
 337 87 270 -51 135 -74 c 0
 94 -81 57 -74 57 -102 c 0
 57 -118 96 -121 118 -121 c 0
EndSplineSet
EndChar

StartChar: partialdiff
Encoding: 8706 8706 373
Width: 354
VWidth: 0
Flags: HW
LayerCount: 2
Fore
SplineSet
182 43 m 0
 176 42 170 42 165 42 c 0
 107 42 74 80 74 141 c 0
 74 243 149 296 223 297 c 0
 250 297 278 290 301 276 c 1
 302 269 302 262 302 255 c 0
 302 172 260 52 182 43 c 0
306 312 m 1
 283 331 252 340 217 340 c 0
 127 340 22 272 22 142 c 0
 22 57 79 -1 160 -1 c 0
 165 -1 169 0 174 0 c 0
 296 10 357 131 357 311 c 0
 357 461 292 567 147 567 c 0
 120 567 118 556 118 546 c 0
 118 536 128 525 142 525 c 0
 247 525 306 445 306 312 c 1
EndSplineSet
EndChar

StartChar: percent
Encoding: 37 37 375
Width: 754
VWidth: 0
Flags: HW
LayerCount: 2
Fore
SplineSet
570 -4 m 0
 646 -4 725 75 725 195 c 0
 725 275 694 339 618 339 c 0
 511 339 457 240 457 130 c 0
 457 53 496 -4 570 -4 c 0
574 37 m 0
 525 37 515 95 515 132 c 0
 515 197 535 298 612 298 c 0
 664 298 670 231 670 191 c 0
 670 135 642 37 574 37 c 0
257 20 m 0
 335 154 519 474 562 550 c 0
 565 556 567 563 567 568 c 0
 567 581 558 590 547 590 c 0
 539 590 531 585 524 574 c 2
 220 52 l 2
 212 38 208 26 208 17 c 0
 208 3 216 -5 226 -5 c 0
 236 -5 247 3 257 20 c 0
158 295 m 0
 107 295 98 362 98 401 c 0
 98 462 122 549 197 549 c 0
 249 549 264 502 264 462 c 0
 264 403 231 295 158 295 c 0
155 250 m 0
 172 250 186 253 200 259 c 0
 268 287 316 365 316 460 c 0
 316 540 280 594 203 594 c 0
 98 594 41 502 41 395 c 0
 41 315 79 250 155 250 c 0
EndSplineSet
EndChar

StartChar: period
Encoding: 46 46 376
Width: 185
VWidth: 0
Flags: HW
LayerCount: 2
Fore
SplineSet
93 0 m 0
 124 0 141 19 141 49 c 0
 141 76 126 89 99 89 c 0
 68 89 52 71 52 41 c 0
 52 13 65 0 93 0 c 0
EndSplineSet
EndChar

StartChar: periodcentered
Encoding: 183 183 377
Width: 240
VWidth: 0
Flags: HW
AnchorPoint: "mid" 171 59 mark 0
LayerCount: 2
Fore
SplineSet
167 21 m 0
 193 21 208 38 208 64 c 0
 208 87 196 99 171 99 c 0
 146 99 131 83 131 57 c 0
 131 33 143 21 167 21 c 0
EndSplineSet
EndChar

StartChar: perthousand
Encoding: 8240 8240 378
Width: 1083
VWidth: 0
Flags: HW
LayerCount: 2
Fore
SplineSet
875 31 m 0
 820 31 796 85 796 144 c 0
 796 214 831 289 899 289 c 0
 951 289 974 236 974 177 c 0
 974 107 940 31 875 31 c 0
563 33 m 0
 507 33 484 87 484 145 c 0
 484 214 520 290 586 290 c 0
 639 290 662 239 662 180 c 0
 662 110 627 33 563 33 c 0
191 295 m 0
 142 295 117 347 117 404 c 0
 117 473 152 549 221 549 c 0
 272 549 297 494 297 435 c 0
 297 367 263 295 191 295 c 0
752 136 m 0
 752 56 798 -6 874 -6 c 0
 955 -6 1017 67 1017 184 c 0
 1017 260 976 328 900 328 c 0
 807 328 752 239 752 136 c 0
439 141 m 0
 439 60 484 -4 564 -4 c 0
 642 -4 705 69 705 184 c 0
 705 262 664 330 585 330 c 0
 496 330 439 242 439 141 c 0
269 1 m 0
 344 150 496 452 544 554 c 0
 545 557 546 560 546 563 c 0
 546 574 537 585 527 585 c 0
 521 585 514 581 509 571 c 0
 459 472 308 167 235 26 c 0
 229 15 227 6 227 -1 c 0
 227 -13 234 -20 242 -20 c 0
 251 -20 262 -13 269 1 c 0
72 395 m 0
 72 313 111 257 193 257 c 0
 276 257 339 321 339 449 c 0
 339 526 297 591 223 591 c 0
 127 591 72 500 72 395 c 0
EndSplineSet
EndChar

StartChar: pi
Encoding: 960 960 379
Width: 575
VWidth: 0
Flags: HW
LayerCount: 2
Fore
SplineSet
449 -3 m 0
 466 -3 477 5 477 20 c 0
 477 41 464 80 464 150 c 0
 464 189 468 238 481 300 c 1
 494 300 506 299 521 299 c 0
 586 299 591 308 591 319 c 0
 591 332 582 343 572 343 c 0
 571 343 571 343 570 343 c 0
 431 343 405 359 298 359 c 0
 192 359 135 341 121 248 c 0
 121 238 133 232 142 232 c 0
 148 232 152 234 153 239 c 0
 186 309 196 316 251 316 c 0
 259 316 269 316 280 316 c 1
 217 189 175 64 175 29 c 0
 175 10 180 -1 198 -1 c 0
 217 -1 225 9 229 35 c 0
 244 121 281 214 313 316 c 1
 355 314 393 307 442 303 c 1
 417 201 407 131 407 84 c 0
 407 18 426 -3 449 -3 c 0
EndSplineSet
EndChar

StartChar: plus
Encoding: 43 43 380
Width: 514
VWidth: 0
Flags: HW
LayerCount: 2
Fore
SplineSet
263 27 m 0
 280 27 289 44 289 66 c 2
 289 149 l 1
 375 149 l 2
 394 149 408 162 408 180 c 0
 408 193 398 201 381 201 c 2
 289 201 l 1
 289 292 l 2
 289 309 281 319 267 319 c 0
 249 319 237 305 237 286 c 2
 237 201 l 1
 155 201 l 2
 133 201 116 192 116 175 c 0
 116 158 132 149 153 149 c 2
 237 149 l 1
 237 64 l 2
 237 43 246 27 263 27 c 0
EndSplineSet
EndChar

StartChar: plusminus
Encoding: 177 177 381
Width: 514
VWidth: 0
Flags: HW
LayerCount: 2
Fore
SplineSet
135 -10 m 2
 389 10 l 2
 408 11 419 24 419 36 c 0
 419 45 410 55 390 55 c 2
 140 42 l 2
 121 41 113 29 113 16 c 0
 113 2 121 -10 135 -10 c 2
263 94 m 0
 280 94 289 111 289 133 c 2
 289 216 l 1
 375 216 l 2
 394 216 408 229 408 247 c 0
 408 260 398 268 381 268 c 2
 289 268 l 1
 289 359 l 2
 289 376 281 387 267 387 c 0
 249 387 237 372 237 353 c 2
 237 268 l 1
 155 268 l 2
 133 268 116 259 116 242 c 0
 116 225 132 216 153 216 c 2
 237 216 l 1
 237 132 l 2
 237 111 246 94 263 94 c 0
EndSplineSet
EndChar

StartChar: product
Encoding: 8719 8719 382
Width: 783
VWidth: 0
Flags: HW
LayerCount: 2
Fore
SplineSet
573 -3 m 0
 573 -33 574 -56 596 -56 c 0
 606 -56 616 -49 619 -33 c 0
 625 3 617 169 700 561 c 1
 705 561 712 561 721 561 c 0
 759 561 825 562 847 564 c 0
 852 565 858 579 858 592 c 0
 858 602 854 610 844 610 c 0
 629 610 491 616 375 616 c 0
 293 616 224 613 147 603 c 0
 138 602 134 591 134 580 c 0
 134 568 139 557 146 557 c 2
 147 557 l 1
 193 565 215 569 307 569 c 0
 317 569 328 569 340 569 c 1
 230 235 187 21 187 -28 c 0
 187 -45 198 -56 210 -56 c 0
 220 -56 230 -49 233 -33 c 0
 239 6 278 192 375 569 c 1
 449 569 609 563 665 563 c 1
 590 259 573 71 573 -3 c 0
EndSplineSet
EndChar

StartChar: q
Encoding: 113 113 383
Width: 333
VWidth: 0
Flags: HW
LayerCount: 2
Fore
SplineSet
198 45 m 1
 185 42 173 40 162 40 c 0
 104 40 78 85 78 136 c 0
 78 205 125 286 200 286 c 0
 224 286 255 277 255 265 c 0
 255 247.515430554 243.731254185 196.224623664 229.083696128 143.12564227 c 1
 210.549000763 137.399191103 200.999999772 119.517524083 201 103 c 0
 201 94.0452363947 203.851121466 85.0904727894 209.978883044 79.327099026 c 1
 205.954519861 67.0133996449 201.920419368 55.4041898629 198 45 c 1
265.755553077 86.1978658008 m 1
 309.72069978 90.6889120901 389.822520152 170.673403069 418 228 c 0
 419 230 420 233 420 235 c 0
 420 247 408 258 398 258 c 0
 394 258 391 256 389 253 c 0
 354.50748877 203.177483779 324.604998107 151.518959332 280.821705484 137.604760644 c 1
 294.502761063 185.102865108 309 240.350751138 309 273 c 0
 309 295 255 330 195 330 c 0
 85 326 31 230 31 142 c 0
 31 67 70 -2 147 -2 c 0
 161 -2 176 0 192 5 c 1
 174 -64 144 -162 117 -242 c 0
 117 -243 116 -245 116 -246 c 0
 116 -258 134 -270 149 -270 c 0
 158 -270 166 -265 169 -254 c 2
 262 73 l 2
 263.110130383 77.0135483061 264.373397918 81.4354623526 265.755553077 86.1978658008 c 1
EndSplineSet
EndChar

StartChar: question
Encoding: 63 63 384
Width: 441
VWidth: 0
Flags: HW
LayerCount: 2
Fore
SplineSet
208 0 m 0
 243 0 262 21 262 55 c 0
 262 85 246 100 214 100 c 0
 181 100 162 79 162 45 c 0
 162 14 177 0 208 0 c 0
196 221 m 0
 196 207 203 202 215 202 c 0
 228 202 235 203 238 226 c 0
 256 369 417 392 417 518 c 0
 417 582 366 640 288 640 c 0
 195 640 146 577 129 536 c 0
 127 532 126 528 126 524 c 0
 126 508 142 498 155 498 c 0
 161 498 167 501 170 506 c 0
 200 563 235 590 288 590 c 0
 330 590 356 554 356 512 c 0
 356 413 204 384 196 221 c 0
EndSplineSet
EndChar

StartChar: questiondown
Encoding: 191 191 385
Width: 441
VWidth: 0
Flags: HW
LayerCount: 2
Fore
SplineSet
334 437 m 0
 369 437 387 458 387 492 c 0
 387 523 372 537 341 537 c 0
 306 537 287 517 287 482 c 0
 287 452 303 437 334 437 c 0
264 10 m 0
 309 10 381 39 381 79 c 0
 381 95 372 108 358 108 c 0
 352 108 347 105 343 101 c 0
 328 82 299 55 264 55 c 0
 223 55 208 83 208 122 c 0
 208 218 344 243 344 359 c 0
 344 367 336 371 324 371 c 0
 312 371 304 359 298 344 c 0
 292 329 281 316 271 306 c 0
 211 248 145 223 145 116 c 0
 145 50 197 10 264 10 c 0
EndSplineSet
EndChar

StartChar: quotedbl
Encoding: 34 34 386
Width: 404
VWidth: 0
Flags: HW
LayerCount: 2
Fore
SplineSet
106 396 m 0
 115 396 124 408 125 421 c 0
 132 470 138 540 138 597 c 0
 138 617 126 626 109 626 c 0
 92 626 74 613 74 591 c 0
 74 534 82 474 87 422 c 0
 89 405 94 396 106 396 c 0
227 396 m 0
 238 396 247 408 250 422 c 0
 259 471 266 529 272 599 c 0
 273 600 273 600 273 602 c 0
 273 618 261 626 248 626 c 0
 227 626 206 613 206 591 c 0
 206 533 208 480 208 421 c 0
 208 406 215 396 227 396 c 0
EndSplineSet
EndChar

StartChar: quotedblbase
Encoding: 8222 8222 387
Width: 350
VWidth: 0
Flags: HW
LayerCount: 2
Fore
SplineSet
259 -65 m 0
 294 -65 310 -26 325 -3 c 2
 340 21 l 2
 349 35 363 49 363 70 c 0
 363 97 336 110 310 110 c 0
 286 110 268 100 263 81 c 0
 252 44 232 3 232 -37 c 0
 232 -54 243 -65 259 -65 c 0
126 -65 m 0
 161 -65 176 -26 191 -3 c 0
 198 9 199 9 207 21 c 0
 216 35 229 49 229 70 c 0
 229 97 203 110 176 110 c 0
 152 110 134 100 129 81 c 0
 119 44 98 3 98 -37 c 0
 98 -54 110 -65 126 -65 c 0
EndSplineSet
EndChar

StartChar: quotedblleft
Encoding: 8220 8220 388
Width: 350
VWidth: 0
Flags: HW
LayerCount: 2
Fore
SplineSet
150 615 m 0
 150 623 148 631 137 631 c 0
 130 631 124 624 120 614 c 0
 102 567 70 489 70 437 c 0
 70 417 82 408 102 408 c 0
 122 408 133 416 133 438 c 0
 133 504 148 600 150 615 c 0
271 619 m 0
 271 625 268 631 259 631 c 0
 251 631 246 624 242 614 c 0
 224 567 191 489 191 437 c 0
 191 417 203 408 223 408 c 0
 244 408 254 416 254 438 c 0
 254 508 271 600 271 619 c 0
EndSplineSet
EndChar

StartChar: quotedblright
Encoding: 8221 8221 389
Width: 404
VWidth: 0
Flags: HW
LayerCount: 2
Fore
SplineSet
229 419 m 0
 229 414 232 408 242 408 c 0
 249 408 254 415 258 425 c 0
 276 471 309 549 309 602 c 0
 309 622 297 631 277 631 c 0
 257 631 246 623 246 601 c 0
 246 531 229 439 229 419 c 0
107 420 m 0
 107 415 111 408 120 408 c 0
 127 408 133 415 137 425 c 0
 155 471 188 549 188 602 c 0
 188 622 175 631 155 631 c 0
 135 631 125 623 125 601 c 0
 125 531 107 439 107 420 c 0
EndSplineSet
EndChar

StartChar: quoteleft
Encoding: 8216 8216 390
Width: 240
VWidth: 0
Flags: HW
LayerCount: 2
Fore
SplineSet
99 418 m 0
 114 418 126 429 128 450 c 0
 146 605 l 2
 146 615 143 620 140 620 c 0
 130 620 122 611 118 598 c 0
 102 551 72 491 72 442 c 0
 72 425 82 418 99 418 c 0
EndSplineSet
EndChar

StartChar: quoteright
Encoding: 8217 8217 391
Width: 219
VWidth: 0
Flags: HW
LayerCount: 2
Fore
SplineSet
92 419 m 0
 99 419 104 425 107 435 c 2
 157 591 l 2
 158 594 159 597 159 600 c 0
 159 613 146 621 133 621 c 0
 116 621 101 610 100 590 c 2
 89 438 l 2
 89 422 91 419 92 419 c 0
EndSplineSet
EndChar

StartChar: quotesinglbase
Encoding: 8218 8218 392
Width: 208
VWidth: 0
Flags: HW
LayerCount: 2
Fore
SplineSet
126 -65 m 0
 161 -65 176 -26 191 -3 c 0
 198 9 199 9 207 21 c 0
 216 35 229 49 229 70 c 0
 229 97 203 110 176 110 c 0
 152 110 134 100 129 81 c 0
 119 44 98 3 98 -37 c 0
 98 -54 110 -65 126 -65 c 0
EndSplineSet
EndChar

StartChar: quotesingle
Encoding: 39 39 393
Width: 179
VWidth: 0
Flags: HW
LayerCount: 2
Fore
SplineSet
56 389 m 0
 64 389 98 419 111 440 c 0
 125 461 190 554 190 598 c 0
 190 615 181 626 160 626 c 0
 125 626 103 494 53 416 c 0
 49 410 47 403 47 398 c 0
 47 393 50 389 56 389 c 0
EndSplineSet
EndChar

StartChar: r
Encoding: 114 114 394
Width: 298
VWidth: 0
Flags: HW
PickledData: "(dp1
S'com.typemytype.robofont.layerData'
p2
(dp3
s."
AnchorPoint: "top" 222 333 basechar 0
LayerCount: 2
Fore
SplineSet
75 0 m 0
 96 0 97 5 103 19 c 0
 154 159 224 271 239 271 c 0
 241 271 242 269 242 265 c 0
 242 261 241 256 239 248 c 0
 232 227 228 205 228 185 c 0
 228 145 244 112 282 112 c 0
 320 112 351 142 368 164 c 0
 373 170 375 176 375 182 c 0
 375 191 371 197 364 197 c 0
 360 197 355 195 351 191 c 0
 326 166 305 154 291 154 c 0
 277 154 270 166 270 187 c 0
 270 196 271 207 274 219 c 0
 282 251 288 276 288 294 c 0
 288 317 279 329 254 329 c 0
 197 329 121 174 101 111 c 1
 107 207 130 273 139 307 c 0
 139 308 140 310 140 311 c 0
 140 321 131 330 120 330 c 0
 102 330 95 321 86 292 c 0
 68 233 49 131 48 63 c 0
 48 61 48 58 48 56 c 0
 48 24 49 0 75 0 c 0
EndSplineSet
EndChar

StartChar: radical
Encoding: 8730 8730 396
Width: 601
VWidth: 0
Flags: HW
LayerCount: 2
Fore
SplineSet
358 171 m 2
 312 61 290 37 275 37 c 0
 250 37 223 81 223 172 c 0
 223 206 227 246 236 293 c 0
 236 296 237 298 237 300 c 0
 237 317 226 329 202 329 c 0
 169 329 126 312 91 298 c 0
 78 293 73 284 73 275 c 0
 73 262 84 248 96 248 c 0
 98 248 101 249 103 250 c 0
 131 264 154 274 185 284 c 1
 177 244 174 208 174 177 c 0
 174 56 224 -3 272 -3 c 0
 326 -3 354 50 402 160 c 2
 576 558 l 2
 579 565 581 573 581 579 c 0
 581 596 571 608 559 608 c 0
 549 608 537 599 527 576 c 2
 358 171 l 2
EndSplineSet
EndChar

StartChar: registered
Encoding: 174 174 400
Width: 602
VWidth: 0
Flags: HW
LayerCount: 2
Fore
SplineSet
389 364 m 0
 389 315 342 305 299 305 c 0
 289 305 280 305 271 306 c 1
 297 397 l 1
 325 397 l 2
 366 397 389 392 389 364 c 0
566 316 m 0
 566 455 471 532 321 532 c 0
 158 532 33 416 33 248 c 0
 33 105 140 20 292 20 c 0
 420 20 566 119 566 316 c 0
328 494 m 0
 450 494 518 430 518 316 c 0
 518 178 434 59 291 59 c 0
 168 59 77 123 77 248 c 0
 77 375 160 494 328 494 c 0
348.778817344 277.28492066 m 1
 398.905714338 289.193041909 429 321.022444314 429 369 c 0
 429 416 389 431 342 431 c 0
 324 431 287 428 264 427 c 1
 229 311 l 1
 203 315 l 2
 196 317 194 311 194 304 c 0
 194 291 209 283 221 279 c 1
 188 165 l 2
 187 162 187 158 187 155 c 0
 187 140 196 130 207 130 c 0
 216 130 226 138 230 155 c 2
 263 273 l 1
 279 272 296 271 310 271 c 1
 313 260 322 180 328 140 c 0
 330 123 342 115 353 115 c 0
 364 115 373 123 373 139 c 0
 373 141 373 143 373 145 c 2
 348.778817344 277.28492066 l 1
EndSplineSet
EndChar

StartChar: ring
Encoding: 730 730 401
Width: 251
VWidth: 0
Flags: HW
PickledData: "(dp1
S'com.typemytype.robofont.layerData'
p2
(dp3
s."
AnchorPoint: "top" 101 333 mark 0
AnchorPoint: "top" 144 549 basechar 0
LayerCount: 2
Fore
SplineSet
112 413 m 0
 171 413 212 455 212 514 c 0
 212 555 185 581 146 581 c 0
 90 581 38 545 38 489 c 0
 38 442 67 413 112 413 c 0
112 444 m 0
 87 444 72 461 72 486 c 0
 72 524 104 549 144 549 c 0
 167 549 180 534 180 512 c 0
 180 475 150 444 112 444 c 0
EndSplineSet
EndChar

StartChar: s
Encoding: 115 115 403
Width: 294
VWidth: 0
Flags: HW
PickledData: "(dp1
S'com.typemytype.robofont.layerData'
p2
(dp3
s."
AnchorPoint: "top" 252 333 basechar 0
AnchorPoint: "bot" 146 14 basechar 0
LayerCount: 2
Fore
SplineSet
153 37 m 0
 112 37 82 59 68 78 c 1
 85 110 141 215 141 215 c 1
 151 236 l 1
 192 175 212 126 212 92 c 0
 212 57 191 37 153 37 c 0
188 274 m 0
 188 284 195 294 195 304 c 0
 195 319 183 331 169 331 c 0
 159 331 147 325 139 309 c 0
 51 134 29 97 18 70 c 1
 26 41 78 -2 171 -3 c 0
 278 -3 338 45 381 95 c 0
 382 96 382 98 382 100 c 0
 382 111 371 130 363 130 c 0
 362 130 360 129 359 128 c 0
 345 111 306 56 244 43 c 1
 255 62 260 81 260 99 c 0
 260 171 188 233 188 274 c 0
EndSplineSet
EndChar

StartChar: section
Encoding: 167 167 411
Width: 492
VWidth: 0
Flags: HW
LayerCount: 2
Fore
SplineSet
327 163 m 1
 315 171 303 179 291 185 c 0
 266 198 184 233 184 278 c 0
 184 304 202 322 215 332 c 1
 232 322 250 313 267 304 c 0
 293 291 354 269 354 220 c 0
 354 218 354 216 354 214 c 0
 354 190 338 171 327 163 c 1
233 -37 m 0
 306 -37 381 -6 381 61 c 0
 381 89 373 106 359 124 c 1
 386 142 410 174 410 214 c 0
 410 217 410 220 410 223 c 0
 410 284 361 310 320 332 c 0
 297 345 216 371 216 414 c 0
 216 451 254 468 289 468 c 0
 332 468 380 448 380 401 c 0
 380 392 376 384 376 378 c 0
 376 368 385 361 396 361 c 0
 415 361 424 379 424 403 c 0
 424 466 364 509 299 509 c 0
 226 509 150 482 150 418 c 0
 150 388 167 371 186 353 c 1
 156 336 128 313 128 276 c 0
 128 237 151 206 179 189 c 0
 217 167 321 140 321 71 c 0
 321 29 273 4 235 4 c 0
 190 4 139 20 139 69 c 0
 139 89 145 103 145 115 c 0
 145 119 138 122 126 122 c 0
 103 122 87 97 87 69 c 0
 87 -3 156 -37 233 -37 c 0
EndSplineSet
EndChar

StartChar: semicolon
Encoding: 59 59 412
Width: 262
VWidth: 0
Flags: HW
LayerCount: 2
Fore
SplineSet
186 240 m 0
 221 240 240 261 240 295 c 0
 240 325 224 340 192 340 c 0
 158 340 140 319 140 285 c 0
 140 254 155 240 186 240 c 0
126 -55 m 0
 156 -55 219 53 219 70 c 0
 219 89 199 100 176 100 c 0
 157 100 144 91 138 77 c 0
 128 53 108 1 108 -37 c 0
 108 -48 115 -55 126 -55 c 0
EndSplineSet
EndChar

StartChar: seven
Encoding: 55 55 413
Width: 417
VWidth: 0
Flags: HW
LayerCount: 2
Fore
SplineSet
87 427 m 0
 87 413 97 396 111 396 c 0
 130 396 142 428 204 428 c 0
 206 428 207 428 209 428 c 2
 320 425 l 1
 260 337 130 106 130 10 c 0
 130 -4 139 -11 150 -11 c 0
 163 -11 178 -2 184 18 c 0
 221 141 275 283 360 410 c 0
 369 425 392 428 392 445 c 0
 392 459 389 465 381 465 c 0
 374 465 342 462 327 462 c 0
 289 462 211 467 147 467 c 0
 103 467 87 446 87 427 c 0
EndSplineSet
EndChar

StartChar: six
Encoding: 54 54 414
Width: 417
VWidth: 0
Flags: HW
LayerCount: 2
Fore
SplineSet
213 32 m 0
 156 32 114 71 114 139 c 0
 114 205 151 257 236 257 c 0
 298 257 327 209 327 157 c 0
 327 97 288 32 213 32 c 0
211 -10 m 0
 312 -10 380 70 380 170 c 0
 380 246 312 298 238 298 c 0
 201 298 161 285 129 255 c 1
 159 327 237 419 354 471 c 0
 366 478 373 487 373 499 c 0
 373 510 363 518 347 518 c 0
 337 518 331 515 321 510 c 0
 203 453 69 327 62 155 c 0
 62 152 62 150 62 147 c 0
 62 62 122 -10 211 -10 c 0
EndSplineSet
EndChar

StartChar: slash
Encoding: 47 47 415
Width: 426
VWidth: 0
Flags: HW
LayerCount: 2
Fore
SplineSet
134 17 m 0
 162 79 296 385 374 559 c 0
 376 564 377 569 377 573 c 0
 377 586 369 595 358 595 c 0
 349 595 340 588 332 572 c 0
 260 416 125 106 93 35 c 0
 88 25 86 17 86 10 c 0
 86 -3 94 -11 103 -11 c 0
 113 -11 125 -2 134 17 c 0
EndSplineSet
EndChar

StartChar: sterling
Encoding: 163 163 418
Width: 514
VWidth: 0
Flags: HW
LayerCount: 2
Fore
SplineSet
219 -5 m 2
 419 8 l 2
 443 9 454 22 454 34 c 0
 454 44 444 53 425 53 c 0
 424 53 423 53 422 53 c 2
 220 39 l 1
 223 66 245 227 254 283 c 1
 363 283 l 2
 391 283 407 288 407 304 c 0
 407 327 390 329 364 329 c 2
 261 329 l 1
 286 478 293 549 392 549 c 0
 427 549 455 524 455 482 c 0
 455 471 466 462 480 462 c 0
 498 462 506 475 506 497 c 0
 506 565 461 594 391 594 c 0
 258 594 233 508 212 329 c 1
 156 329 l 2
 132 329 121 327 121 307 c 0
 121 291 131 283 147 283 c 2
 206 283 l 1
 176 91 l 2
 171 77 166 58 166 41 c 0
 166 9 184 -5 213 -5 c 0
 215 -5 217 -5 219 -5 c 2
EndSplineSet
EndChar

StartChar: summation
Encoding: 8721 8721 419
Width: 698
VWidth: 0
Flags: HW
LayerCount: 2
Fore
SplineSet
362 640 m 0
 272 640 215 630 158 609 c 0
 148 605 144 597 144 588 c 0
 144 577 152 565 165 565 c 0
 168 565 171 566 174 567 c 0
 194 575 218 581 246 585 c 1
 407 314 l 1
 221 148 101 54 101 24 c 0
 101 14 109 7 119 7 c 0
 131 7 148 16 168 40 c 1
 260 9 355 -26 463 -26 c 0
 529 -26 599 -13 678 22 c 0
 683 24 685 29 685 35 c 0
 685 47 676 64 667 64 c 0
 666 64 665 63 664 63 c 0
 603 38 543 18 467 18 c 0
 396 18 311 35 198 80 c 1
 263 148 359 213 462 306 c 1
 295 590 l 1
 319 592 347 593 376 593 c 0
 441 593 545 589 615 589 c 0
 622 589 629 589 635 589 c 0
 703 591 708 599 708 613 c 0
 708 628 697 641 685 641 c 2
 684 641 l 1
 638 637 599 636 563 636 c 0
 497 636 440 640 362 640 c 0
EndSplineSet
EndChar

StartChar: t
Encoding: 116 116 420
Width: 247
VWidth: 0
Flags: HW
PickledData: "(dp1
S'com.typemytype.robofont.layerData'
p2
(dp3
s."
AnchorPoint: "bot" 176 0 basechar 0
AnchorPoint: "caron.alt" 359 551 basechar 0
AnchorPoint: "mid" 105 339 basechar 0
LayerCount: 2
Fore
SplineSet
117 275 m 1
 128 343 181 564 254 564 c 0
 263 564 265 554 265 543 c 0
 265 536 264 529 263 524 c 0
 241 420 159 337 117 275 c 1
55 149 m 0
 55 53 84 -14 168 -14 c 0
 223 -14 271 19 317 75 c 0
 323 82 325 88 325 94 c 0
 325 106 316 114 307 114 c 0
 303 114 299 112 296 109 c 0
 263 68 222 30 178 30 c 0
 123 30 111 84 111 141 c 0
 111 163.345240615 112.834012041 186.148984241 115.260174294 206.617041763 c 1
 162.875143485 220.118829935 216.500710756 233.340984474 251 237 c 0
 259 238 264 246 264 254 c 0
 264 263 259 271 249 271 c 0
 248 271 247 271 246 271 c 0
 217.133647557 268.276759203 176.99491365 259.917327676 130.592323257 246.244834892 c 1
 198.365051867 318.640101778 300.611938094 442.508800831 311 553 c 0
 311 555 311 557 311 559 c 0
 311 588 296 612 265 612 c 2
 264 612 l 2
 144.674443034 612 82.7625495572 372.15905091 60.4419538736 223.082036377 c 1
 42.0499193086 216.381045617 23.1587267131 209.015385666 4 201 c 0
 -1 199 -3 195 -3 190 c 0
 -3 182 3 174 12 174 c 0
 14 174 16 175 19 176 c 0
 26.2049030092 178.881961204 39.5237243535 183.494276653 56.5184661726 188.936549411 c 1
 55.5061553909 175.118210883 55 161.806027746 55 149 c 0
EndSplineSet
EndChar

StartChar: thorn
Encoding: 254 254 425
Width: 313
VWidth: 0
Flags: HW
LayerCount: 2
Fore
SplineSet
156 44 m 0
 136 44 113 51 87 66 c 1
 108 189 139 278 208 278 c 0
 241 278 251 246 251 213 c 0
 251 113 218 44 156 44 c 0
-10 -197 m 2
 -11 -200 -11 -202 -11 -204 c 0
 -11 -220 1 -229 12 -229 c 0
 22 -229 33 -222 36 -208 c 2
 80 29 l 1
 103 9 131 0 158 0 c 0
 193 0 226 15 245 41 c 1
 324 62 366 82 399 104 c 0
 403 107 405 111 405 116 c 0
 405 128 395 141 384 141 c 0
 382 141 380 141 378 140 c 0
 358 128 321 105 273 92 c 1
 292 120 304 165 304 224 c 0
 304 276 276 326 216 326 c 0
 195 326 143 311 112 250 c 1
 158 483 l 2
 159 486 159 490 159 493 c 0
 159 510 148 519 138 519 c 0
 130 519 123 513 120 500 c 0
 103 429 82 319 74 274 c 2
 -10 -197 l 2
EndSplineSet
EndChar

StartChar: three
Encoding: 51 51 426
Width: 417
VWidth: 0
Flags: HW
LayerCount: 2
Fore
SplineSet
307 147 m 0
 307 67 245 29 183 29 c 0
 143 29 104 45 83 76 c 0
 69 96 57 103 48 103 c 0
 36 103 29 91 29 82 c 0
 29 80 29 79 30 77 c 0
 43 39 101 -13 195 -13 c 0
 293 -13 358 49 358 137 c 0
 358 209 334 251 260 274 c 1
 310 289 354 327 354 387 c 0
 354 453 297 490 226 490 c 0
 169 490 128 472 97 427 c 0
 96 425 95 423 95 421 c 0
 95 412 105 403 115 403 c 0
 120 403 124 405 128 410 c 0
 149 438 187 452 222 452 c 0
 266 452 306 431 306 390 c 0
 306 330 261 288 152 288 c 0
 136 288 129 280 129 272 c 0
 129 264 136 256 147 256 c 0
 237 256 307 233 307 147 c 0
EndSplineSet
Substitution2: "'sups' Superscript lookup 5 subtable" threesuperior
EndChar

StartChar: threequarters
Encoding: 190 190 427
Width: 1052
VWidth: 0
Flags: HW
LayerCount: 2
Fore
SplineSet
313 351 m 0
 313 272 250 234 189 234 c 0
 149 234 110 250 88 281 c 0
 75 301 63 308 54 308 c 0
 42 308 35 296 35 287 c 0
 35 285 35 284 36 282 c 0
 49 245 107 192 201 192 c 0
 299 192 364 255 364 342 c 0
 364 414 340 456 266 479 c 1
 316 494 360 532 360 592 c 0
 360 658 303 695 232 695 c 0
 175 695 134 677 103 632 c 0
 102 630 101 628 101 626 c 0
 101 617 111 608 121 608 c 0
 126 608 130 610 134 615 c 0
 155 643 193 657 228 657 c 0
 272 657 312 636 312 595 c 0
 312 535 267 493 158 493 c 0
 142 493 135 485 135 477 c 0
 135 469 143 461 153 461 c 0
 243 461 313 439 313 351 c 0
377 5 m 2
 627 564 l 2
 630 569 631 575 631 580 c 0
 631 595 621 605 609 605 c 0
 600 605 589 598 581 580 c 2
 329 28 l 2
 325 20 324 13 324 7 c 0
 324 -9 334 -17 346 -17 c 0
 357 -17 371 -10 377 5 c 2
789 -19 m 0
 796 -19 806 -13 809 3 c 2
 825 83 l 1
 840 83 869 82 891 82 c 0
 896 82 902 82 906 82 c 0
 920 83 927 99 927 111 c 0
 927 118 924 124 919 124 c 0
 908 124 895 122 836 122 c 1
 841 145 879 278 879 315 c 0
 879 323 873 329 859 329 c 0
 839 329 833 320 829 306 c 0
 822 278 790 135 788 125 c 1
 774 125 683 124 674 124 c 1
 700 202 764 386 788 464 c 0
 788 465 789 467 789 468 c 0
 789 478 778 487 766 487 c 0
 756 487 746 481 741 465 c 0
 712 388 650 202 625 126 c 0
 620 113 618 103 618 96 c 0
 618 83 626 79 640 79 c 0
 690 79 718 82 778 82 c 1
 763 9 l 2
 762 6 762 3 762 1 c 0
 762 -13 773 -19 786 -19 c 0
 787 -19 788 -19 789 -19 c 0
EndSplineSet
Ligature2: "'frac' Diagonal Fractions lookup 6 subtable" three slash four
EndChar

StartChar: tilde
Encoding: 732 732 429
Width: 328
VWidth: 0
Flags: HW
AnchorPoint: "top" 134 333 mark 0
LayerCount: 2
Fore
SplineSet
221 403 m 0
 253 403 291 446 291 479 c 0
 291 486 286 490 276 490 c 0
 248 490 242 450 215 430 c 1
 194 447 177 461 165 471 c 0
 144 487 130 501 106 501 c 0
 73 501 36 458 36 426 c 0
 36 418 41 414 50 414 c 0
 78 414 89 457 111 474 c 1
 133 458 149 444 162 433 c 0
 183 417 196 403 221 403 c 0
EndSplineSet
EndChar

StartChar: trademark
Encoding: 8482 8482 430
Width: 923
VWidth: 0
Flags: HW
LayerCount: 2
Fore
SplineSet
811 338 m 0
 796 338 790 348 790 363 c 0
 790 403 829 482 836 533 c 0
 837 537 837 541 837 544 c 0
 837 577 811 597 774 597 c 0
 730 597 697 562 675 515 c 1
 677 523 678 530 678 538 c 0
 678 570 662 598 629 598 c 0
 626 598 622 597 619 597 c 0
 581 592 529 554 499 489 c 1
 510 523 519 554 519 567 c 0
 519 597 444 597 395 597 c 2
 394 597 l 2
 300 597 201 590 201 504 c 0
 201 488 208 478 224 478 c 0
 244 478 258 487 258 504 c 0
 258 550 296 558 350 558 c 0
 354 558 357 558 361 558 c 2
 292 350 l 2
 290 343 288 336 288 331 c 0
 288 318 297 311 311 311 c 0
 324 311 328 321 335 344 c 0
 352 396 389 515 403 558 c 0
 407 558 411 558 415 558 c 0
 437 558 466 556 482 552 c 1
 482 552 438 413 421 338 c 0
 420 335 420 332 420 329 c 0
 420 316 427 307 443 307 c 0
 458 307 462 320 469 335 c 0
 480 363 492 396 504 426 c 0
 529 493 573 538 599 545 c 0
 602 546 605 546 608 546 c 0
 624 546 632 533 632 510 c 0
 632 502 631 494 629 484 c 0
 621 442 604 390 591 336 c 0
 590 333 590 331 590 328 c 0
 590 316 598 307 619 307 c 0
 629 307 636 315 640 328 c 0
 665 410 707 541 764 551 c 0
 767 552 769 552 771 552 c 0
 783 552 792 545 792 530 c 0
 792 525 791 520 789 513 c 0
 773 458 749 412 749 358 c 0
 749 326 768 303 805 303 c 0
 841 303 871 327 892 367 c 0
 895 373 896 378 896 382 c 0
 896 392 888 397 880 397 c 0
 875 397 870 395 868 391 c 0
 855 369 833 338 811 338 c 0
EndSplineSet
EndChar

StartChar: two
Encoding: 50 50 431
Width: 417
VWidth: 0
Flags: HW
LayerCount: 2
Fore
SplineSet
125 36 m 0
 89 36 77 66 77 85 c 0
 77 102 88 120 111 120 c 0
 148 120 179 92 201 78 c 1
 184 53 151 36 125 36 c 0
220 449 m 0
 285 449 313 393 313 331 c 0
 313 236 267 150 229 109 c 1
 198 129 153 164 106 164 c 0
 60 164 32 128 32 84 c 0
 32 35 75 -3 127 -3 c 0
 168 -3 203 25 231 50 c 1
 256 30 281 0 318 0 c 0
 355 0 368 33 368 65 c 0
 368 75 360 75 359 73 c 0
 354 66 341 50 328 50 c 0
 297 50 279 68 259 81 c 1
 305 131 364 225 364 344 c 0
 364 440 300 495 222 495 c 0
 151 495 77 462 77 392 c 0
 77 357 99 327 120 327 c 0
 132 327 141 335 141 343 c 0
 141 357 124 377 124 396 c 0
 124 436 169 449 220 449 c 0
EndSplineSet
Substitution2: "'sups' Superscript lookup 5 subtable" twosuperior
EndChar

StartChar: u
Encoding: 117 117 433
Width: 347
VWidth: 0
Flags: HW
PickledData: "(dp1
S'com.typemytype.robofont.layerData'
p2
(dp3
s."
AnchorPoint: "top" 212 333 basechar 0
AnchorPoint: "ogonek" 270 0 basechar 0
LayerCount: 2
Fore
SplineSet
31 91 m 0
 31 31 62 -5 120 -5 c 0
 170 -5 202 23 226 66 c 1
 226 30 240 -4 282 -4 c 0
 333 -4 396 49 420 90 c 0
 423 94 424 98 424 102 c 0
 424 110 418 117 406 117 c 0
 400 117 392 115 383 103 c 0
 370 85 325 35 290 35 c 0
 277 35 266 49 266 81 c 0
 266 86 266 91 267 97 c 0
 275 182 311 272 319 299 c 0
 320 300 320 302 320 303 c 0
 320 312 309 320 296 320 c 0
 283 320 273 315 267 296 c 2
 225 161 l 2
 196 67 165 38 126 37 c 0
 97 37 82 58 82 93 c 0
 82 96 82 100 82 103 c 0
 87 189 106 232 133 300 c 0
 134 302 134 303 134 305 c 0
 134 315 124 322 111 322 c 0
 97 322 88 314 83 303 c 0
 53 237 39 178 32 111 c 0
 31 104 31 97 31 91 c 0
EndSplineSet
EndChar

StartChar: underscore
Encoding: 95 95 444
Width: 426
VWidth: 0
Flags: HW
LayerCount: 2
Fore
SplineSet
34 10 m 2
 357 10 l 2
 401 10 431 20 431 56 c 0
 431 64 426 66 413 66 c 2
 70 66 l 2
 33 66 -2 64 -2 37 c 0
 -2 20 13 10 34 10 c 2
EndSplineSet
EndChar

StartChar: uni0307
Encoding: 775 775 456
Width: 205
VWidth: 0
Flags: HW
AnchorPoint: "top" 104 333 mark 0
LayerCount: 2
Fore
SplineSet
119 425 m 0
 146 425 165 444 165 471 c 0
 165 494 148 509 125 509 c 0
 99 509 81 490 81 463 c 0
 81 440 97 425 119 425 c 0
EndSplineSet
EndChar

StartChar: uni030F
Encoding: 783 783 457
Width: 205
VWidth: 0
Flags: HW
AnchorPoint: "top" 144 333 mark 0
LayerCount: 2
Fore
SplineSet
197 478 m 2
 200 475 203 473 206 473 c 0
 211 473 216 477 216 483 c 0
 216 485 215 488 214 490 c 2
 132 639 l 2
 126 650 116 655 106 655 c 0
 90 655 74 642 74 625 c 0
 74 618 77 610 84 602 c 2
 197 478 l 2
61 478 m 2
 64 475 67 473 70 473 c 0
 75 473 79 477 79 483 c 0
 79 485 78 488 77 490 c 2
 -4 639 l 2
 -10 650 -20 655 -30 655 c 0
 -47 655 -63 642 -63 625 c 0
 -63 618 -60 610 -53 602 c 2
 61 478 l 2
EndSplineSet
EndChar

StartChar: uni0311
Encoding: 785 785 458
Width: 205
VWidth: 0
Flags: HW
AnchorPoint: "top" 94 333 mark 0
LayerCount: 2
Fore
SplineSet
207 462 m 0
 207 512 174 543 122 543 c 0
 71 543 18 512 18 451 c 0
 18 444 25 441 33 441 c 0
 42 441 52 445 53 453 c 0
 58 492 90 511 119 511 c 0
 145 511 170 494 170 464 c 0
 170 460 169 456 169 452 c 0
 169 441 178 436 187 436 c 0
 202 436 207 446 207 462 c 0
EndSplineSet
EndChar

StartChar: uni0312
Encoding: 786 786 459
Width: 205
VWidth: 0
Flags: HW
AnchorPoint: "top" 94 333 mark 0
LayerCount: 2
Fore
SplineSet
99 418 m 0
 114 418 126 429 128 450 c 0
 146 605 l 2
 146 615 143 620 140 620 c 0
 130 620 122 611 118 598 c 0
 102 551 72 491 72 442 c 0
 72 425 82 418 99 418 c 0
EndSplineSet
EndChar

StartChar: uni0358
Encoding: 856 856 461
Width: 205
VWidth: 0
Flags: HW
AnchorPoint: "top" 114 333 mark 0
LayerCount: 2
Fore
SplineSet
119 425 m 0
 146 425 165 444 165 471 c 0
 165 494 148 509 125 509 c 0
 99 509 81 490 81 463 c 0
 81 440 97 425 119 425 c 0
EndSplineSet
EndChar

StartChar: v
Encoding: 118 118 466
Width: 300
VWidth: 0
Flags: HW
LayerCount: 2
Fore
SplineSet
419 252 m 0
 421 255 421 257 421 260 c 0
 421 271 410 282 401 282 c 0
 398 282 394 280 392 277 c 0
 358.869216982 232.825622643 328.279287629 204.743318499 277.626196456 200.547575666 c 1
 289.060469665 228.890018666 298.976237828 259.446450616 307 292 c 0
 308 295 308 298 308 301 c 0
 308 314 299 322 287 322 c 0
 261 322 221 287 221 199 c 0
 221 193 222 187 222 181 c 0
 184 96 128 47 124 47 c 0
 112 47 94 84 94 158 c 0
 94 195 110 244 110 298 c 0
 110 311 99 321 87 321 c 0
 77 321 67 315 62 300 c 0
 46 247 39 198 39 156 c 0
 39 56 77 -6 110 -6 c 0
 115 -6 120 -5 125 -2 c 0
 174.616662895 29.3368397229 222.102254774 84.5416748165 258.830892489 158.605927967 c 0
 262.759832236 158.177127134 266.791352551 158.000000001 271 158 c 0
 329 158 392 201 419 252 c 0
EndSplineSet
EndChar

StartChar: w
Encoding: 119 119 467
Width: 565
VWidth: 0
Flags: HW
PickledData: "(dp1
S'com.typemytype.robofont.layerData'
p2
(dp3
s."
AnchorPoint: "top" 362 333 basechar 0
LayerCount: 2
Fore
SplineSet
582 296 m 0
 582 348 552 372 510 372 c 0
 460 372 435 336 435 297 c 0
 435 257.743928963 460.489777394 216.303019863 510.847823788 204.995709117 c 1
 505.108832504 191.601112126 498.21560283 176.961742641 490 161 c 0
 458 107 408 38 353 32 c 0
 352 32 350 32 349 32 c 0
 325 32 305 56 305 121 c 0
 305 147 379 235 379 284 c 0
 379 304 367 317 333 317 c 0
 309.821742031 316.275679438 284.544922958 267.809093773 272.369852351 198.580792488 c 1
 266 181 l 1
 234 128 181 38 126 32 c 0
 124 32 123 32 121 32 c 0
 98 32 83 52 83 108 c 0
 83 225 147 301 153 310 c 0
 154 312 155 314 155 316 c 0
 155 325 145 335 132 335 c 0
 123 335 112 330 101 314 c 0
 88 296 33 222 33 112 c 0
 33 27 61 -18 117 -18 c 0
 174.048770598 -15.7180491761 221.261530911 33.4295977135 265.23983737 97.3153661491 c 1
 267.764887239 22.6540356161 290.47434272 -17.9999999818 345 -18 c 0
 419 -15 473 48 528 139 c 0
 541.039200844 162.333306774 551.48805772 183.782727026 559.588982221 203.388662687 c 1
 593.908298779 207.897198527 635.189903357 223.735698829 684 256 c 0
 691 260 693 266 693 272 c 0
 693 282 686 291 677 291 c 0
 674 291 670 290 667 288 c 0
 629.785420442 262.288108669 598.522584392 247.564051507 572.901713343 240.730043446 c 1
 579.119974847 261.904298234 582 280.302160907 582 296 c 0
523.444435538 237.555525557 m 1
 490.292484712 244.15602318 476 270.582483665 476 294 c 0
 476 317 489 337 513 337 c 0
 523 337 536 329 536 299 c 0
 536 284.480369016 532.569502185 264.347196153 523.444435538 237.555525557 c 1
EndSplineSet
EndChar

StartChar: x
Encoding: 120 120 472
Width: 326
VWidth: 0
Flags: HW
LayerCount: 2
Fore
SplineSet
270 -4 m 0
 281 -7 291 -9 300 -9 c 0
 367 -9 396 66 414 98 c 0
 418 104 419 110 419 115 c 0
 419 124 414 130 408 130 c 0
 404 130 398 127 393 120 c 0
 376 97 344 32 295 32 c 0
 263.472057463 32 229.898824473 65.4064107471 184.528121413 132.219232241 c 1
 291 264 l 2
 306 283 321 289 334 289 c 0
 351 289 365 279 373 279 c 0
 380 279 381 291 381 297 c 0
 381 320 361 333 337 333 c 0
 318 333 297 325 281 305 c 2
 164.940931289 161.950450194 l 1
 136.909092838 205.624883092 104.543736574 260.308066361 66 326 c 0
 65 327 64 328 62 328 c 0
 53 328 34 318 34 305 c 0
 34 303 35 300 36 298 c 0
 75.466309539 230.072409544 107.876231334 173.2334284 137.000523081 127.701651217 c 1
 104.980680484 88.6095148821 73.6262951612 50.7058807096 52 36 c 0
 44 31 41 23 41 16 c 0
 41 2 53 -12 66 -12 c 0
 72 -12 79 -9 85 0 c 0
 104.84643189 31.0639803502 131.394050414 65.1062658708 156.93302113 97.629453138 c 1
 195.884396311 41.2451307622 230.113934676 7.16809829064 270 -4 c 0
EndSplineSet
EndChar

StartChar: y
Encoding: 121 121 473
Width: 346
VWidth: 0
Flags: HW
PickledData: "(dp1
S'com.typemytype.robofont.layerData'
p2
(dp3
s."
AnchorPoint: "top" 242 333 basechar 0
LayerCount: 2
Fore
SplineSet
74 -282 m 0
 50 -282 34 -270 34 -244 c 0
 34 -201 90 -132 200 -62 c 1
 189 -100 163 -282 74 -282 c 0
-13 -254 m 0
 -13 -292 19 -322 61 -322 c 0
 204 -322 242 -141 265 -21 c 1
 334 37 373 60 420 76 c 0
 428 77 431 84 431 92 c 0
 431 104 423 119 410 119 c 0
 409 119 407 119 406 119 c 0
 370 111 330 80 271 33 c 1
 271 33 286 105 294 146 c 0
 315 247 331 273 331 317 c 0
 331 323 325 326 314 326 c 0
 286 326 272 309 266 286 c 2
 234 162 l 2
 226 130 188 47 135 47 c 0
 101 47 97 90 97 113 c 0
 97 159 117 214 134 266 c 0
 142 288 148 301 148 317 c 0
 148 326 138 332 135 332 c 0
 114 332 105 319 98 306 c 0
 70 253 44 176 44 99 c 0
 44 50 67 0 118 0 c 0
 175 0 217 48 228 77 c 2
 203 -8 l 1
 149 -49 95 -82 53 -130 c 0
 28 -158 -13 -208 -13 -254 c 0
EndSplineSet
EndChar

StartChar: yen
Encoding: 165 165 477
Width: 562
VWidth: 0
Flags: HW
LayerCount: 2
Fore
SplineSet
278 6 m 2
 322 143 l 1
 421 143 l 2
 451 143 465 145 465 165 c 0
 465 175 456 175 437 175 c 2
 331 175 l 1
 350 230 l 1
 439 230 l 2
 469 230 477 231 477 252 c 0
 477 263 475 263 457 263 c 2
 378 263 l 1
 414 312 505 445 557 513 c 0
 563 522 566 530 566 537 c 0
 566 550 556 558 545 558 c 0
 536 558 527 553 519 542 c 0
 456 446 348 294 332 264 c 1
 326 288 263 512 253 547 c 0
 248 565 238 573 228 573 c 0
 217 573 206 562 206 544 c 0
 206 539 206 534 208 529 c 2
 290 263 l 1
 217 263 l 2
 194 263 185 262 185 250 c 0
 185 233 194 230 217 230 c 2
 296 230 l 1
 277 175 l 1
 201 175 l 2
 179 175 171 174 171 162 c 0
 171 146 180 143 201 143 c 2
 270 143 l 1
 265 127 237 36 232 22 c 0
 230 17 229 12 229 8 c 0
 229 -7 240 -14 252 -14 c 0
 263 -14 274 -8 278 6 c 2
EndSplineSet
EndChar

StartChar: z
Encoding: 122 122 481
Width: 254
VWidth: 0
Flags: HW
PickledData: "(dp1
S'com.typemytype.robofont.layerData'
p2
(dp3
s."
AnchorPoint: "top" 172 333 basechar 0
LayerCount: 2
Fore
SplineSet
299 66 m 0
 305 71 307 77 307 83 c 0
 307 94 300 106 295 106 c 0
 294 106 294 105 293 105 c 0
 218 60 153 41 111 41 c 0
 78 41 60 53 61 73 c 1
 88 106 208 219 237 256 c 0
 248 269 251 279 251 292 c 0
 251 310 238 314 227 314 c 0
 210 314 95 313 36 313 c 0
 25 313 21 306 21 298 c 0
 21 286 29 271 36 271 c 0
 65 271 125 275 191 277 c 1
 42 124 l 2
 27 108 9 91 9 62 c 0
 9 22 49 -5 109 -5 c 0
 162 -5 230 16 299 66 c 0
EndSplineSet
EndChar

StartChar: zero
Encoding: 48 48 485
Width: 417
VWidth: 0
Flags: HW
LayerCount: 2
Fore
SplineSet
47 185 m 0
 47 80 82 -7 200 -7 c 0
 344 -7 418 156 418 301 c 0
 418 407 374 495 263 495 c 0
 112 495 47 333 47 185 c 0
200 35 m 0
 132 35 102 90 102 192 c 0
 102 327 158 451 266 451 c 0
 334 451 366 380 366 297 c 0
 366 162 306 35 200 35 c 0
EndSplineSet
EndChar
